<svg width="23" height="13" viewBox="0 0 23 13" fill="none" xmlns="http://www.w3.org/2000/svg">
<path d="M20.0765 7.78909L20.9611 6.93034H19.7283H0.958333C0.832072 6.93034 0.713857 6.88151 0.628964 6.79909C0.544574 6.71717 0.5 6.60927 0.5 6.5C0.5 6.39073 0.544574 6.28283 0.628964 6.20091C0.713857 6.11849 0.832072 6.06966 0.958333 6.06966H19.7283H20.9615L20.0764 5.21083L15.9651 1.22145C15.8849 1.13957 15.8432 1.03365 15.8442 0.92673C15.8451 0.818679 15.8897 0.712246 15.9731 0.631244C16.057 0.549775 16.1736 0.50107 16.2984 0.500017C16.4219 0.498975 16.5384 0.544777 16.6237 0.623506L22.37 6.20194L22.3702 6.20214C22.4115 6.24224 22.4435 6.2891 22.4648 6.33959L22.4648 6.33961L22.4674 6.34562C22.4893 6.39538 22.5 6.44785 22.5 6.5V6.50368C22.5 6.5037 22.5 6.50371 22.5 6.50372C22.5 6.55711 22.4891 6.61033 22.4677 6.66046L22.9272 6.85739L22.4676 6.66047C22.4461 6.71066 22.4142 6.75722 22.3729 6.79705L22.3719 6.79806L16.6256 12.3765C16.5403 12.4552 16.4238 12.501 16.3003 12.5C16.1755 12.4989 16.059 12.4502 15.975 12.3688C15.8916 12.2878 15.8471 12.1813 15.8461 12.0733C15.8451 11.9663 15.8869 11.8604 15.9671 11.7785L20.0765 7.78909Z" fill="#F35000" stroke="white"/>
</svg>
