<svg width="41" height="38" viewBox="0 0 41 38" fill="none" xmlns="http://www.w3.org/2000/svg">
<path d="M37.6977 4.60997H35.1642V2.12719C35.1642 1.11381 34.3029 0.252441 33.2895 0.252441C32.2761 0.252441 31.4147 1.11381 31.4147 2.12719V4.60997H26.4999V2.12719C26.4999 1.11381 25.6385 0.252441 24.6251 0.252441C23.6117 0.252441 22.7504 1.11381 22.7504 2.12719V4.60997H17.8355V2.12719C17.8355 1.11381 16.9741 0.252441 15.9607 0.252441C14.9473 0.252441 14.086 1.11381 14.086 2.12719V4.60997H9.12041V2.12719C9.12041 1.11381 8.25904 0.252441 7.24566 0.252441C6.23228 0.252441 5.37091 1.11381 5.37091 2.12719V4.60997H2.83746C1.26672 4.60997 0 5.87669 0 7.44743V34.91C0 36.4807 1.26672 37.7475 2.83746 37.7475H37.6977C39.2684 37.7475 40.5352 36.4807 40.5352 34.91V7.44743C40.5352 5.87669 39.2684 4.60997 37.6977 4.60997ZM33.2895 1.26582C33.7455 1.26582 34.1509 1.67117 34.1509 2.12719V8.10613C34.1509 8.56215 33.7455 8.9675 33.2895 8.9675C32.8335 8.9675 32.4281 8.61282 32.4281 8.10613V5.11666V2.12719C32.4281 1.67117 32.8335 1.26582 33.2895 1.26582ZM23.7637 2.12719C23.7637 1.67117 24.1691 1.26582 24.6251 1.26582C25.0811 1.26582 25.4865 1.67117 25.4865 2.12719V8.10613C25.4865 8.56215 25.0811 8.9675 24.6251 8.9675C24.1691 8.9675 23.7637 8.56215 23.7637 8.10613V2.12719ZM15.0487 2.12719C15.0487 1.67117 15.454 1.26582 15.91 1.26582C16.3661 1.26582 16.7714 1.67117 16.7714 2.12719V5.11666V8.10613C16.7714 8.56215 16.3661 8.9675 15.91 8.9675C15.454 8.9675 15.0487 8.56215 15.0487 8.10613V2.12719ZM6.38429 2.12719C6.38429 1.67117 6.78964 1.26582 7.24566 1.26582C7.70168 1.26582 8.10703 1.67117 8.10703 2.12719V5.11666V8.10613C8.10703 8.56215 7.70168 8.9675 7.24566 8.9675C6.78964 8.9675 6.38429 8.56215 6.38429 8.10613V2.12719ZM2.83746 5.62335H5.37091V8.10613C5.37091 9.11951 6.23228 9.98088 7.24566 9.98088C8.25904 9.98088 9.12041 9.11951 9.12041 8.10613V5.62335H14.0353V8.10613C14.0353 9.11951 14.8967 9.98088 15.91 9.98088C16.9234 9.98088 17.7848 9.11951 17.7848 8.10613V5.62335H22.6997V8.10613C22.6997 9.11951 23.5611 9.98088 24.5744 9.98088C25.5878 9.98088 26.4492 9.11951 26.4492 8.10613V5.62335H31.4147V8.10613C31.4147 9.11951 32.2761 9.98088 33.2895 9.98088C34.3029 9.98088 35.1642 9.11951 35.1642 8.10613V5.62335H37.6977C38.7111 5.62335 39.5218 6.43405 39.5218 7.44743V11.9063H1.01338V7.4981C1.01338 6.43405 1.82408 5.62335 2.83746 5.62335ZM37.6977 36.7341H2.83746C1.82408 36.7341 1.01338 35.9234 1.01338 34.91V12.9197H39.5218V34.91C39.5218 35.9234 38.7111 36.7341 37.6977 36.7341Z" fill="white"/>
<path d="M9.22156 16.0615H5.26938C4.96537 16.0615 4.7627 16.2642 4.7627 16.5682V20.5204C4.7627 20.8244 4.96537 21.0271 5.26938 21.0271H9.22156C9.52558 21.0271 9.72825 20.8244 9.72825 20.5204V16.5682C9.72825 16.2642 9.52558 16.0615 9.22156 16.0615ZM8.71487 20.0137H5.77607V17.0749H8.71487V20.0137Z" fill="white"/>
<path d="M17.8866 16.0615H13.9344C13.6304 16.0615 13.4277 16.2642 13.4277 16.5682V20.5204C13.4277 20.8244 13.6304 21.0271 13.9344 21.0271H17.8866C18.1906 21.0271 18.3933 20.8244 18.3933 20.5204V16.5682C18.3933 16.2642 18.1906 16.0615 17.8866 16.0615ZM17.3799 20.0137H14.4411V17.0749H17.3799V20.0137Z" fill="white"/>
<path d="M26.6014 16.0615H22.6493C22.3453 16.0615 22.1426 16.2642 22.1426 16.5682V20.5204C22.1426 20.8244 22.3453 21.0271 22.6493 21.0271H26.6014C26.9055 21.0271 27.1081 20.8244 27.1081 20.5204V16.5682C27.1081 16.2642 26.8548 16.0615 26.6014 16.0615ZM26.0948 20.0137H23.156V17.0749H26.0948V20.0137Z" fill="white"/>
<path d="M35.2655 16.0615H31.3133C31.0093 16.0615 30.8066 16.2642 30.8066 16.5682V20.5204C30.8066 20.8244 31.0093 21.0271 31.3133 21.0271H35.2655C35.5695 21.0271 35.7722 20.8244 35.7722 20.5204V16.5682C35.7722 16.2642 35.5695 16.0615 35.2655 16.0615ZM34.7588 20.0137H31.82V17.0749H34.7588V20.0137Z" fill="white"/>
<path d="M9.22156 22.3442H5.26938C4.96537 22.3442 4.7627 22.5469 4.7627 22.8509V26.8031C4.7627 27.1071 4.96537 27.3098 5.26938 27.3098H9.22156C9.52558 27.3098 9.72825 27.1071 9.72825 26.8031V22.8509C9.72825 22.5469 9.52558 22.3442 9.22156 22.3442ZM8.71487 26.2964H5.77607V23.3576H8.71487V26.2964Z" fill="white"/>
<path d="M17.8866 22.3442H13.9344C13.6304 22.3442 13.4277 22.5469 13.4277 22.8509V26.8031C13.4277 27.1071 13.6304 27.3098 13.9344 27.3098H17.8866C18.1906 27.3098 18.3933 27.1071 18.3933 26.8031V22.8509C18.3933 22.5469 18.1906 22.3442 17.8866 22.3442ZM17.3799 26.2964H14.4411V23.3576H17.3799V26.2964Z" fill="white"/>
<path d="M26.6014 22.3442H22.6493C22.3453 22.3442 22.1426 22.5469 22.1426 22.8509V26.8031C22.1426 27.1071 22.3453 27.3098 22.6493 27.3098H26.6014C26.9055 27.3098 27.1081 27.1071 27.1081 26.8031V22.8509C27.1081 22.5469 26.8548 22.3442 26.6014 22.3442ZM26.0948 26.2964H23.156V23.3576H26.0948V26.2964Z" fill="white"/>
<path d="M35.2655 22.3442H31.3133C31.0093 22.3442 30.8066 22.5469 30.8066 22.8509V26.8031C30.8066 27.1071 31.0093 27.3098 31.3133 27.3098H35.2655C35.5695 27.3098 35.7722 27.1071 35.7722 26.8031V22.8509C35.7722 22.5469 35.5695 22.3442 35.2655 22.3442ZM34.7588 26.2964H31.82V23.3576H34.7588V26.2964Z" fill="white"/>
<path d="M9.22156 28.627H5.26938C4.96537 28.627 4.7627 28.8296 4.7627 29.1336V33.0858C4.7627 33.3898 4.96537 33.5925 5.26938 33.5925H9.22156C9.52558 33.5925 9.72825 33.3898 9.72825 33.0858V29.1336C9.72825 28.8296 9.52558 28.627 9.22156 28.627ZM8.71487 32.5791H5.77607V29.6403H8.71487V32.5791Z" fill="white"/>
<path d="M17.8866 28.627H13.9344C13.6304 28.627 13.4277 28.8296 13.4277 29.1336V33.0858C13.4277 33.3898 13.6304 33.5925 13.9344 33.5925H17.8866C18.1906 33.5925 18.3933 33.3898 18.3933 33.0858V29.1336C18.3933 28.8296 18.1906 28.627 17.8866 28.627ZM17.3799 32.5791H14.4411V29.6403H17.3799V32.5791Z" fill="white"/>
<path d="M26.6014 28.627H22.6493C22.3453 28.627 22.1426 28.8296 22.1426 29.1336V33.0858C22.1426 33.3898 22.3453 33.5925 22.6493 33.5925H26.6014C26.9055 33.5925 27.1081 33.3898 27.1081 33.0858V29.1336C27.1081 28.8296 26.8548 28.627 26.6014 28.627ZM26.0948 32.5791H23.156V29.6403H26.0948V32.5791Z" fill="white"/>
<path d="M35.2655 28.627H31.3133C31.0093 28.627 30.8066 28.8296 30.8066 29.1336V33.0858C30.8066 33.3898 31.0093 33.5925 31.3133 33.5925H35.2655C35.5695 33.5925 35.7722 33.3898 35.7722 33.0858V29.1336C35.7722 28.8296 35.5695 28.627 35.2655 28.627ZM34.7588 32.5791H31.82V29.6403H34.7588V32.5791Z" fill="white"/>
</svg>
