<svg width="1061" height="506" viewBox="0 0 1061 506" fill="none" xmlns="http://www.w3.org/2000/svg">
<mask id="mask0_320_5" style="mask-type:luminance" maskUnits="userSpaceOnUse" x="-312" y="0" width="1373" height="506">
<path d="M-311.945 0.164062H1060.89V505.369H-311.945V0.164062Z" fill="white"/>
</mask>
<g mask="url(#mask0_320_5)">
<mask id="mask1_320_5" style="mask-type:luminance" maskUnits="userSpaceOnUse" x="-312" y="-205" width="1373" height="954">
<path d="M870.756 748.104L-311.83 224.752L-121.821 -204.589L1060.77 318.763L870.756 748.104Z" fill="white"/>
</mask>
<g mask="url(#mask1_320_5)">
<mask id="mask2_320_5" style="mask-type:luminance" maskUnits="userSpaceOnUse" x="-312" y="-205" width="1373" height="954">
<path d="M870.756 748.104L-311.83 224.752L-121.821 -204.589L1060.77 318.763L870.756 748.104Z" fill="white"/>
</mask>
<g mask="url(#mask2_320_5)">
<mask id="mask3_320_5" style="mask-type:luminance" maskUnits="userSpaceOnUse" x="-312" y="0" width="1373" height="504">
<path d="M1021.44 402.935L1022.54 404.108C956.258 472.678 846.817 509.702 730.14 503.21C639.275 498.247 544.22 468.388 431.39 409.47C385.944 385.674 340.954 359.305 297.496 333.635C252.006 306.822 204.858 279.051 157.023 254.425C101.923 225.896 28.5764 192.276 -50.1616 184.382C-134.119 175.787 -216.132 198.697 -295.356 220.533C-300.376 221.992 -305.595 223.365 -310.815 224.752L-311.258 223.165C-306.039 221.792 -301.019 220.319 -295.8 218.946C-216.304 197.009 -134.291 174.1 -50.0615 182.58C28.9625 190.374 102.424 224.266 157.795 252.681C205.63 277.306 252.764 305.077 298.268 331.891C341.712 357.574 386.716 383.944 431.962 407.654C544.607 466.486 639.261 496.174 730.04 501.322C846.646 508.014 955.529 471.205 1021.44 402.935ZM970.215 436.469C950.781 446.523 930.517 454.831 909.51 461.195C847.704 480.615 784.196 489.824 725.921 487.751C633.326 484.09 533.095 454.474 428.273 399.331C420.822 395.356 413.372 391.366 405.821 387.09C370.671 367.627 336.35 345.762 303.187 324.397C276.646 307.351 249.332 289.962 221.689 273.817C198.994 260.56 178.659 249.249 159.997 239.381C117.739 217.23 82.1314 201.929 47.5674 191.003C16.9216 181.136 -15.1399 175.001 -47.4159 172.47C-80.9218 170.082 -117.116 172.255 -157.901 179.548C-194.095 185.869 -230.804 195.422 -266.212 204.631C-279.712 208.106 -293.512 211.667 -307.211 215.056L-306.754 216.629C-293.054 213.254 -279.268 209.679 -265.755 206.219C-195.139 187.714 -122.093 168.909 -47.4445 174.071C-15.3544 176.517 16.4354 182.752 47.0811 192.633C81.445 203.459 117.053 218.76 159.125 240.84C177.973 250.793 198.122 262.005 220.817 275.275C248.445 291.42 275.773 308.81 302.315 325.856C335.477 347.221 369.984 369.172 405.135 388.635C412.499 392.825 420.15 396.886 427.601 400.876C532.694 455.918 633.026 485.806 725.893 489.352C784.381 491.512 848.075 482.388 909.953 462.782C930.975 456.419 951.51 447.996 970.945 437.942C990.922 427.66 1008.97 414.461 1024.93 398.716L1023.83 397.544C1008.15 413.174 989.907 426.288 970.215 436.469ZM970.587 428.333C949.508 437.442 928.558 443.133 908.967 447.838C856.012 460.794 786.913 475.352 721.402 474.008C626.248 471.977 523.328 443.248 424.011 390.765C416.561 386.776 409.11 382.8 401.746 378.61C368.025 359.548 335.649 336.924 304.26 315.202C277.847 296.826 250.547 277.835 222.504 261.046C200.367 247.575 180.304 236.164 161.256 226.111C120.056 204.188 83.3899 188.658 49.1547 178.576C18.4518 169.367 -13.2952 164.075 -45.3424 162.56C-111.968 159.556 -177.307 176.031 -240.586 192.018C-261.078 197.224 -282.529 202.486 -303.522 207.234L-303.264 208.736C-282.071 204.059 -260.821 198.725 -240.328 193.52C-177.121 177.718 -111.982 161.172 -45.5569 164.075C-13.7099 165.505 17.9655 170.997 48.4683 180.12C82.7035 190.202 119.37 205.732 160.383 227.569C179.431 237.608 199.209 249.134 221.432 262.419C249.289 279.122 276.588 298.113 303.001 316.489C334.391 338.211 366.767 360.835 400.487 379.897C407.852 384.073 415.302 388.063 422.753 392.052C522.455 444.707 625.561 473.522 720.916 475.638C786.612 477.068 855.812 462.31 908.766 449.354C928.429 444.463 949.38 438.758 970.458 429.663C993.839 419.509 1012.23 407.611 1026.64 393.254L1025.56 392.081C1011.8 406.496 993.682 418.294 970.587 428.333ZM970.759 420.124C950.238 426.931 929.001 430.664 908.438 434.467C897.212 436.412 886.1 438.629 874.117 440.702C822.421 450.298 769.051 460.537 716.884 460.265C618.039 459.822 515.291 432.78 420.021 382.085C412.571 378.11 405.206 373.92 397.841 369.744C365.165 350.91 334.076 327.472 304.245 304.834C278.347 285.3 251.749 265.236 223.877 248.062C202.212 234.562 182.506 222.85 163.358 212.525C122.702 190.402 85.9496 175.058 51.3856 165.749C20.6111 157.197 -11.0071 152.649 -42.8112 152.163C-102.544 151.291 -161.476 165.763 -218.42 179.949C-244.89 186.656 -272.304 193.42 -299.489 198.654L-299.232 200.155C-272.032 194.907 -244.633 188.157 -217.977 181.522C-161.204 167.25 -102.487 152.707 -42.8255 153.765C-11.0214 154.251 20.3966 158.713 50.9709 167.179C85.4634 176.688 122.015 191.933 162.757 213.884C181.719 224.123 201.611 235.906 223.076 249.334C250.762 266.423 277.547 286.558 303.273 306.007C333.189 328.459 364.278 351.897 397.055 371.002C404.405 375.192 411.77 379.368 419.221 383.358C514.89 434.21 617.825 461.338 716.955 461.681C769.209 461.767 822.678 451.8 874.46 442.004C886.329 439.658 897.555 437.714 908.781 435.769C929.545 432.065 950.781 428.318 971.388 421.325C995.985 413.088 1015.09 402.191 1029.69 387.92L1028.6 386.747C1014 401.019 995.084 412.001 970.759 420.124ZM971.03 411.715C954.242 415.805 937.539 417.636 919.906 419.495C915.959 420.053 911.927 420.339 907.794 420.825C885.285 423.299 862.076 427.303 837.379 431.579C796.222 438.7 753.65 445.893 712.379 446.523C611.347 447.881 506.01 421.997 415.746 373.519C408.295 369.529 400.93 365.354 393.852 361.063C361.733 342.015 331.931 317.776 302.987 294.138C278.09 273.902 252.192 252.766 225.15 235.277C203.084 221.134 183.478 209.222 165.36 199.14C124.99 176.903 88.3521 161.83 53.6021 152.907C22.9707 145.099 -8.80484 141.409 -40.3658 141.953C-94.5644 142.625 -147.962 156.067 -199.601 169.152C-230.919 176.946 -263.352 185.168 -295.642 190.46L-295.371 191.961C-263.095 186.67 -230.747 178.633 -199.343 170.654C-147.79 157.755 -94.3928 144.312 -40.5804 143.469C-9.01935 142.925 22.4702 146.729 52.9157 154.451C87.4798 163.289 123.917 178.261 164.302 200.513C182.406 210.595 202.098 222.307 224.177 236.45C251.219 253.953 276.917 274.989 302.014 295.31C330.944 318.949 360.746 343.202 393.051 362.336C400.144 366.612 407.694 370.888 414.959 374.792C505.423 423.342 611.218 449.197 712.45 447.924C753.721 447.309 796.294 440.116 837.651 433.08C862.247 429.005 885.457 424.986 908.051 422.312C912.184 421.84 916.303 421.368 920.164 420.996C937.796 419.123 954.585 417.107 971.474 413.303C997.214 407.182 1016.83 397.201 1031.81 382.643L1030.71 381.47C1016.11 395.728 996.485 405.709 971.03 411.715ZM971.588 403.679C956.987 405.967 942.573 406.267 927.328 406.882C921.008 407.096 914.229 407.311 907.651 407.626C878.392 409.184 847.99 414.39 815.699 419.681C780.334 425.687 743.754 431.836 708.532 432.837C604.182 435.955 499.031 411.758 412.142 365.01C405.078 361.192 397.899 357.102 390.32 352.369C358.959 333.192 330.429 308.123 302.973 283.77C278.776 262.462 253.593 240.254 226.909 222.464C204.715 207.563 185.867 196.008 167.762 185.912C127.664 163.575 91.2122 148.588 56.1333 140.437C25.4303 133.301 -6.01627 130.441 -37.5344 131.914C-86.8564 134.045 -135.678 146.529 -183.012 158.756C-218.42 167.965 -254.843 177.418 -291.309 182.237L-291.052 183.738C-254.586 178.905 -218.077 169.266 -182.569 160.343C-135.421 148.03 -86.599 135.546 -37.563 133.53C-6.23077 131.957 25.2158 134.817 55.6471 142.053C90.5401 150.132 126.792 165.019 166.69 187.285C184.808 197.381 203.556 209.136 225.851 223.837C252.521 241.626 277.518 263.749 301.714 285.057C329.371 309.496 357.9 334.565 389.447 353.827C397.026 358.561 404.205 362.651 411.27 366.469C498.259 413.489 603.882 437.671 708.318 434.353C743.811 433.252 780.406 427.103 815.771 421.097C847.947 415.519 878.55 410.414 907.522 408.956C914.386 408.541 920.893 408.412 927.2 408.212C942.358 407.783 956.859 407.297 971.66 405.08C998.344 401.004 1018.75 391.838 1034.11 377.437L1033.01 376.265C1018.14 390.637 997.801 399.617 971.588 403.679ZM971.774 395.456C958.703 396.357 946.119 395.628 932.805 395.027C924.483 394.569 915.888 394.226 906.922 394.169C872.958 393.883 837.507 400.075 799.611 406.582C767.907 412.13 735.26 417.722 703.742 419.195C596.46 424.243 491.395 401.934 407.866 356.444C400.616 352.54 393.337 348.164 386.244 343.889C355.541 324.769 328.199 298.614 301.829 273.359C278.333 250.979 254.237 227.869 227.924 209.779C205.687 194.407 186.939 182.652 169.292 172.556C129.566 149.904 92.9568 135.303 58.0782 127.709C27.318 121.231 -4.08569 119.315 -35.375 121.818C-80.3927 125.164 -125.01 136.976 -168.211 148.717C-207.137 159.142 -247.464 170.082 -287.534 174.229L-287.362 175.93C-247.007 171.669 -206.78 160.915 -167.754 150.304C-124.638 138.749 -80.1353 126.666 -35.3893 123.419C-4.3002 120.831 27.0177 122.947 57.5919 129.325C92.5421 136.733 128.879 151.434 168.42 174C186.067 184.11 204.629 195.779 226.852 211.152C253.164 229.242 277.26 252.352 300.57 274.632C327.126 299.986 354.483 326.142 385.372 345.333C392.379 349.823 399.743 353.999 407.194 357.989C490.909 403.564 596.446 425.844 703.913 420.882C735.631 419.495 768.365 413.703 800.069 408.155C837.765 401.577 873.216 395.384 906.907 395.785C915.859 395.828 924.468 396.171 932.777 396.629C946.105 397.229 958.689 397.958 971.745 397.072C999.016 395.313 1020.7 386.933 1036.41 372.232L1035.31 371.059C1020.05 385.274 998.644 393.54 971.774 395.456ZM972.232 387.147C960.062 387.047 948.564 385.431 936.137 383.844C926.556 382.6 916.775 381.256 906.464 380.612C869.097 378.124 829.742 385.36 787.742 392.796C758.669 398.13 728.453 403.421 699.494 405.352C589.295 412.316 484.402 391.695 403.876 347.764C396.812 343.946 389.733 339.67 382.34 335.008C352.195 315.688 326.125 288.718 300.656 262.462C278.047 239.11 254.852 215.013 229.097 196.709C207.346 181.322 188.955 169.266 171.123 159.07C131.282 136.147 94.8588 121.632 60.023 114.982C29.3915 109.248 -1.88345 108.075 -32.9296 111.621C-74.2292 115.912 -115.271 127.466 -154.726 138.563C-196.612 150.433 -240.071 162.76 -283.487 166.12L-283.315 167.808C-239.713 164.533 -196.24 152.206 -154.168 140.423C-114.628 129.139 -73.8574 117.685 -32.5578 113.395C-1.79764 109.963 29.4774 111.135 59.9229 116.77C94.7444 123.434 130.796 137.763 170.622 160.7C188.455 170.897 206.845 182.952 228.41 198.253C254.165 216.558 277.375 240.64 299.784 263.921C325.253 290.162 351.437 317.419 381.568 336.753C388.961 341.4 396.04 345.691 403.104 349.509C483.744 393.711 589.009 414.032 699.594 407.225C728.739 405.38 758.755 400.018 788.028 394.77C829.828 387.233 869.197 380.011 906.278 382.6C916.589 383.258 926.37 384.588 935.952 385.832C948.379 387.419 959.862 389.049 972.031 389.135C991.28 389.35 1018.65 385.803 1038.81 367.313L1037.73 366.14C1017.91 383.858 991.194 387.476 972.232 387.147ZM972.603 379.01C961.049 378.052 950.095 375.736 938.368 373.076C928.072 370.831 917.318 368.6 905.935 367.256C865.722 362.35 820.762 370.788 777.474 379.039C750.289 384.287 722.146 389.564 694.99 391.595C582.145 400.404 477.252 381.856 399.801 339.284C392.622 335.194 385.543 330.904 378.536 326.428C349.063 307.151 323.966 279.008 299.869 251.751C278.362 227.498 255.853 202.329 230.655 183.81C212.279 170.153 193.103 157.283 173.411 145.571C134.128 122.433 98.0049 108.29 62.4398 102.226C31.7368 97.1638 0.604828 96.7348 -30.2126 101.297C-68.1658 106.388 -106.019 117.499 -142.471 128.553C-187.016 141.781 -233.05 155.738 -279.068 157.712L-279.083 159.313C-232.978 157.14 -186.759 143.283 -142.213 130.055C-105.847 119.201 -67.9084 107.889 -30.2268 102.913C0.304535 98.4508 31.5366 98.6796 61.9536 103.856C97.0325 109.934 133.17 124.077 172.338 146.943C192.03 158.656 211.221 171.526 229.583 185.183C254.795 203.702 277.089 228.77 298.697 252.852C322.993 280.18 348.076 308.338 377.749 327.686C384.757 332.162 391.835 336.452 399.2 340.628C476.751 383.472 582.031 402.191 695.347 393.382C722.604 391.151 750.733 385.86 777.932 380.626C821.205 372.361 865.98 363.852 905.921 368.857C917.304 370.201 927.786 372.532 938.154 374.592C949.78 376.98 960.92 379.368 972.575 380.612C1008.47 383.83 1029.81 372.075 1041.19 361.45L1040.09 360.277C1019.84 378.953 992.109 380.741 972.603 379.01ZM972.775 370.802C961.649 368.871 951.038 365.783 940.041 362.536C929.044 359.276 917.661 355.858 905.406 353.885C862.705 346.277 814.956 355.772 768.437 365.139C742.653 370.316 716.111 375.607 690.385 378.052C542.318 391.995 448.208 360.02 395.525 330.718C388.36 326.614 381.267 322.338 374.546 317.748C345.631 298.27 321.62 269.212 298.611 241.069C277.904 216.014 256.496 189.945 231.656 171.125C213.652 157.168 194.561 144.112 175.055 132.486C136.044 109.233 99.8354 95.2761 64.4991 89.7705C35.6122 85.2802 5.46698 85.7664 -27.9388 91.4865C-62.9319 97.1781 -97.782 108.247 -131.517 118.9C-178.35 133.644 -226.857 149.031 -275.379 149.904L-275.407 151.505C-226.686 150.719 -178.179 135.332 -131.059 120.473C-97.3244 109.834 -62.4886 98.7654 -27.6814 92.9738C5.63858 87.4538 35.5979 86.8961 64.2845 91.2863C99.6208 96.792 135.644 110.663 174.455 133.83C193.875 145.642 212.966 158.713 231.07 172.47C255.71 191.218 277.117 217.273 297.824 242.327C321.034 270.556 345.13 299.886 374.332 319.263C381.253 323.94 388.346 328.23 395.511 332.32C491.481 385.617 609.259 387.519 691.229 379.797C716.955 377.366 743.482 372.06 769.266 366.884C815.328 357.56 863.062 348.05 905.577 355.572C917.747 357.731 929.13 361.164 940.027 364.138C951.21 367.47 961.635 370.473 972.947 372.489C989.678 375.292 1020.97 376.923 1044.06 356.502L1042.98 355.329C1019.94 375.092 989.12 373.419 972.775 370.802ZM972.961 362.594C961.892 359.991 951.625 356.144 940.971 352.111C929.545 347.75 917.647 343.402 904.677 340.428C859.773 330.003 809.164 340.771 760.414 350.996C735.76 356.201 710.548 361.635 685.88 364.31C602.366 373.419 483.458 373.548 391.449 322.224C384.585 318.505 377.578 314.015 370.471 309.253C342.213 289.847 319.389 259.702 297.267 230.558C277.461 204.517 256.954 177.475 232.672 158.441C214.739 144.284 196.006 130.927 176.6 119.115C137.946 95.5621 101.651 81.8052 66.1722 77.1575C37.7001 73.3107 7.39752 74.6407 -25.9653 81.3046C-58.2842 87.7255 -90.7033 98.4937 -121.807 108.919C-170.728 125.264 -221.137 142.353 -271.904 141.524L-271.932 143.14C-221.066 143.755 -170.285 126.851 -121.263 110.306C-90.1599 99.8809 -57.7551 89.1127 -25.4219 82.6918C7.74072 75.942 37.7573 74.7122 66.2294 78.559C101.723 83.2066 137.546 96.9922 176.085 120.273C195.419 132.271 214.239 145.442 231.971 159.514C256.053 178.462 276.646 205.318 296.266 231.273C318.374 260.403 341.398 290.634 369.77 310.326C376.877 315.088 383.884 319.564 390.949 323.382C483.244 375.064 602.638 374.921 686.409 365.697C710.892 362.937 736.303 357.588 760.943 352.383C809.507 342.073 859.83 331.419 904.548 341.758C917.518 344.732 929.13 349.18 940.642 353.356C951.496 357.46 961.578 361.235 972.832 363.909C986.561 367.227 1021.24 372.675 1046.15 350.753L1045.05 349.58C1020.51 371.188 986.503 365.811 972.961 362.594ZM973.604 354.357C962.693 350.91 952.683 346.477 942.172 341.586C930.231 336.309 917.99 330.661 904.691 326.843C857.671 313.4 804.659 325.427 753.521 336.881C730.011 342.144 705.744 347.521 682.305 350.51C558.178 366.069 459.319 353.642 388.132 313.615C380.953 309.525 374.146 305.12 367.224 300.458C339.524 280.824 317.788 249.778 296.566 219.661C277.661 192.633 258.241 164.69 234.517 145.428C216.956 130.984 198.208 117.628 179.16 105.501C140.606 81.7623 104.612 68.3628 68.8607 64.3015C40.8033 61.0839 10.8153 63.2575 -22.9622 70.8796C-52.9216 77.658 -82.9668 88.3118 -111.997 98.7368C-162.634 116.87 -214.859 135.446 -267.299 133.201L-267.328 134.802C-214.402 137.033 -161.905 118.343 -111.267 100.21C-82.2374 89.7991 -52.3782 79.0452 -22.4331 72.2668C10.9726 64.4731 40.9463 62.3137 68.732 65.6171C104.283 69.6069 140.005 83.1065 178.373 106.774C197.507 118.7 216.155 132.243 233.53 146.615C257.068 165.777 276.574 193.534 295.279 220.476C316.415 250.793 338.152 281.825 366.252 301.631C372.887 306.407 380.166 310.783 387.145 314.787C458.532 354.914 557.763 367.499 682.176 351.84C705.801 348.937 730.154 343.36 753.678 338.097C804.817 326.642 857.542 314.73 904.19 328.001C917.475 331.819 929.802 337.268 941.471 342.659C951.668 347.178 962.178 352.054 973.09 355.501C1002.39 364.782 1030.41 360.82 1048.34 345.276L1047.25 344.103C1029.78 359.633 1002.32 363.38 973.604 354.357ZM973.79 346.134C962.936 342.03 952.683 336.567 942.63 331.19C930.532 324.698 917.776 318.119 903.976 313.4C855.197 297.112 799.897 310.183 746.443 322.695C723.776 328.101 700.181 333.549 677.6 336.681C551.113 354.428 452.255 343.603 383.741 304.763C376.763 300.759 369.77 296.283 363.134 291.492C335.892 271.843 315.328 239.71 295.279 208.492C277.275 180.478 258.756 151.548 235.575 132.085C218.386 117.327 199.924 103.871 180.676 91.6581C142.98 68.0768 105.927 54.4342 70.591 51.0164C42.7481 48.3565 12.8031 51.4597 -21.0174 60.2258C-48.8746 67.4762 -76.7604 77.9297 -103.717 88.3547C-155.784 108.146 -209.711 128.51 -263.938 124.563L-263.953 126.165C-209.268 130.098 -155.341 109.734 -102.987 89.8277C-76.1169 79.6029 -48.1453 68.9491 -20.5598 61.7989C13.0605 52.9612 42.9197 50.044 70.3908 52.5322C105.341 55.7927 142.193 69.3352 179.689 92.8451C198.751 104.958 217.213 118.428 234.402 133.172C257.383 152.564 275.988 181.293 293.806 209.222C313.855 240.44 334.619 272.658 361.962 292.593C368.597 297.369 375.59 301.845 382.769 305.95C451.654 344.961 550.799 355.658 677.472 338.011C700.324 334.765 723.748 329.231 746.6 323.911C799.769 311.513 854.797 298.542 903.175 314.659C917.061 319.192 929.545 325.87 941.643 332.377C951.696 337.754 962.15 343.288 973.004 347.407C1017.36 364.267 1043.38 346.077 1050.37 340.185L1049.27 338.998C1042.68 345.061 1017.29 362.865 973.79 346.134ZM974.548 338.183C974.348 338.097 974.162 338.011 973.962 337.925C963.179 333.149 952.883 326.757 942.887 320.708C930.36 313.1 917.447 305.32 903.246 299.944C852.623 280.538 795.207 294.752 739.635 308.395C717.641 313.858 694.89 319.464 672.896 322.853C542.476 343.231 446.434 334.35 379.48 296.197C372.501 292.193 365.494 287.702 358.944 282.74C332.174 263.063 312.597 229.743 293.649 197.638C276.717 168.723 259.199 139.078 236.39 119.315C219.473 104.457 201.182 90.5999 182.22 78.3016C144.681 54.3198 107.758 40.9632 72.4644 38.4749C44.8217 36.3728 15.7633 40.1052 -18.6578 50.2156C-44.613 57.8377 -70.4253 68.3056 -95.6083 78.3445C-149.192 100.01 -204.434 122.318 -260.163 116.555L-260.378 118.071C-204.177 123.82 -148.734 101.597 -95.0649 79.7459C-70.0821 69.6069 -44.0696 59.2391 -18.3146 51.5169C16.1065 41.4065 44.8932 37.7885 72.3357 39.8049C107.343 42.3932 144.095 55.664 181.519 79.3598C200.482 91.6724 218.657 105.244 235.503 120.302C257.926 139.893 275.444 169.538 292.247 198.168C311.124 230.472 330.901 263.878 357.858 283.641C364.407 288.603 371.414 293.094 378.579 297.184C445.848 335.709 542.161 344.475 673.039 324.068C695.047 320.679 717.885 314.887 740.065 309.51C795.364 295.968 852.509 281.868 902.617 300.83C916.832 306.193 929.745 313.972 942.072 321.509C952.068 327.543 962.45 333.75 973.347 338.798C973.547 338.884 973.733 338.969 973.919 339.055C997.429 349.466 1030.35 353.656 1052.84 334.593L1051.74 333.421C1029.92 352.555 997.658 348.408 974.548 338.183ZM974.334 329.803C963.423 324.269 952.998 317.133 942.873 310.34C930.303 301.788 917.161 292.979 902.703 286.587C850.449 264.135 790.902 279.48 733.415 294.352C712.079 299.886 689.999 305.549 668.577 309.196C583.904 323.553 461.564 337.139 375.49 287.516C368.511 283.512 361.504 279.036 355.141 274.146C328.942 254.254 310.452 220.047 292.776 187.113C276.746 157.211 260.129 126.594 238.063 106.688C221.317 91.4436 203.299 77.4864 184.608 65.0737C147.356 40.9918 110.532 27.9069 75.067 25.8048C47.2813 24.5749 18.3516 29.0367 -15.9121 40.3626C-40.1513 48.2993 -64.2761 58.5813 -87.6716 68.7346C-142.299 92.2445 -198.586 116.398 -255.816 108.804L-256.03 110.32C-198.414 118.085 -141.842 93.8175 -87.1282 70.1217C-63.747 59.9684 -39.6222 49.6865 -15.4545 41.9499C18.7234 30.8242 47.453 26.2624 74.9669 27.6066C110.232 29.623 146.784 42.808 183.736 66.5323C202.512 78.7592 220.531 92.7164 237.076 107.875C259.027 127.495 275.573 158.312 291.489 187.928C309.465 221.22 327.87 255.627 354.268 275.604C360.818 280.566 367.639 284.971 374.804 289.061C461.264 338.841 584.076 325.241 669.02 310.769C690.442 307.122 712.536 301.474 734.144 295.825C791.36 281.067 850.621 265.837 902.589 287.903C916.918 294.023 929.988 303.032 942.544 311.584C952.683 318.362 963.108 325.513 974.219 331.118C997.114 342.873 1032.22 349.423 1055.72 329.645L1054.63 328.473C1031.31 347.864 996.943 341.186 974.334 329.803ZM974.706 321.666C963.666 315.402 953.298 307.594 943.316 299.944C930.517 290.362 917.218 280.338 902.174 273.216C848.261 247.747 786.798 264.307 727.194 280.309C706.33 285.815 684.822 291.735 663.972 295.639C570.862 312.943 453.256 326.771 371.329 279.237C364.35 275.218 357.629 270.628 351.265 265.751C325.71 245.917 308.407 210.609 291.618 176.703C276.402 146.014 260.772 114.21 239.264 94.0892C222.876 78.5447 205.144 64.4874 186.267 51.9888C149.1 27.7067 112.463 14.7077 76.8403 13.4635C49.6409 12.4768 20.7541 17.8966 -13.7528 30.2665C-36.1901 38.3033 -58.9993 48.714 -80.693 58.6957C-136.364 84.036 -193.795 110.22 -252.155 100.524L-252.355 102.04C-193.523 111.722 -135.821 85.4232 -80.0638 59.8826C-58.1841 50.0011 -35.6467 39.6905 -13.1236 31.4677C21.0973 19.198 49.9841 13.7924 76.9976 14.6791C112.219 15.7659 148.671 28.6649 185.638 52.8611C204.328 65.2739 222.061 79.3455 238.263 94.8042C259.657 114.639 275.301 146.443 290.403 176.846C307.291 211.038 324.609 246.346 350.45 266.538C357 271.514 363.721 276.105 370.699 280.109C453.213 327.901 571.005 314.158 664.401 296.755C685.251 292.851 706.945 287.016 727.623 281.424C785.726 265.68 845.802 249.649 898.384 272.916C899.357 273.345 900.501 273.86 901.473 274.289C916.317 281.324 929.616 291.349 942.43 300.93C952.411 308.567 962.765 316.389 974.005 322.738C997.357 336.066 1033.22 344.575 1057.63 324.283L1056.55 323.096C1032.77 342.988 997.686 334.822 974.706 321.666ZM975.077 313.543C963.909 306.522 953.412 297.97 943.502 289.662C930.546 278.865 917.003 267.796 901.831 259.931C846.345 231.23 782.766 248.934 721.431 266.252C701.153 272.015 680.117 277.907 659.925 281.868C548.94 304.162 425.041 318.663 347.547 256.957C322.564 236.922 306.133 200.627 290.531 165.62C276.417 134.03 261.673 101.239 240.723 80.9185C186.181 28.2215 132.011 1.25098 79.3429 0.521654C26.6888 -0.207664 -24.3065 24.4462 -73.6286 48.4566C-130.144 75.7275 -188.518 104.028 -247.822 92.3017L-248.036 93.8175C-188.261 105.53 -129.7 77.3148 -72.8993 49.9296C-23.6487 26.1194 27.0606 1.56558 79.443 2.40931C131.625 3.15293 185.609 30.0377 239.836 82.3772C260.686 102.426 275.316 134.931 289.259 166.435C304.96 201.714 321.291 238.209 346.675 258.415C424.669 320.579 549.025 306.05 660.297 283.655C680.561 279.494 701.596 273.602 721.889 267.825C782.951 250.621 846.145 232.746 901.23 261.275C916.217 269.069 929.759 280.123 942.716 290.92C952.812 299.314 963.308 307.866 974.491 314.887C1000.05 331.047 1036.53 338.655 1060.24 319.435L1059.15 318.262C1035.97 336.796 1000.15 329.245 975.077 313.543Z" fill="white"/>
</mask>
<g mask="url(#mask3_320_5)">
<path d="M835.62 1017.25L1248.93 83.3065L-86.6419 -507.758L-499.967 426.187L835.62 1017.25Z" fill="url(#paint0_linear_320_5)"/>
</g>
</g>
</g>
</g>
<defs>
<linearGradient id="paint0_linear_320_5" x1="1036.02" y1="564.409" x2="-299.558" y2="-26.6516" gradientUnits="userSpaceOnUse">
<stop stop-color="#FEFFFF"/>
<stop offset="0.03125" stop-color="#FEFFFF"/>
<stop offset="0.046875" stop-color="#FEFFFF"/>
<stop offset="0.0546875" stop-color="#FEFFFF"/>
<stop offset="0.0585937" stop-color="#FEFEFE"/>
<stop offset="0.0625" stop-color="#FEFEFD"/>
<stop offset="0.0664062" stop-color="#FEFDFC"/>
<stop offset="0.0703125" stop-color="#FEFDFB"/>
<stop offset="0.0742187" stop-color="#FEFCFA"/>
<stop offset="0.078125" stop-color="#FEFCF9"/>
<stop offset="0.0820312" stop-color="#FEFBF8"/>
<stop offset="0.0859375" stop-color="#FEFAF7"/>
<stop offset="0.0898438" stop-color="#FEFAF6"/>
<stop offset="0.09375" stop-color="#FEF9F6"/>
<stop offset="0.0976562" stop-color="#FEF9F5"/>
<stop offset="0.101562" stop-color="#FEF8F4"/>
<stop offset="0.105469" stop-color="#FEF8F3"/>
<stop offset="0.109375" stop-color="#FEF7F2"/>
<stop offset="0.113281" stop-color="#FEF7F1"/>
<stop offset="0.117187" stop-color="#FEF6F0"/>
<stop offset="0.121094" stop-color="#FEF6EF"/>
<stop offset="0.125" stop-color="#FEF5EE"/>
<stop offset="0.128906" stop-color="#FEF5EE"/>
<stop offset="0.132812" stop-color="#FEF4ED"/>
<stop offset="0.136719" stop-color="#FEF4EC"/>
<stop offset="0.140625" stop-color="#FEF3EB"/>
<stop offset="0.144531" stop-color="#FEF3EA"/>
<stop offset="0.148438" stop-color="#FEF2E9"/>
<stop offset="0.152344" stop-color="#FEF1E8"/>
<stop offset="0.15625" stop-color="#FEF1E7"/>
<stop offset="0.160156" stop-color="#FDF0E6"/>
<stop offset="0.164062" stop-color="#FDF0E5"/>
<stop offset="0.167969" stop-color="#FDEFE5"/>
<stop offset="0.171875" stop-color="#FDEFE4"/>
<stop offset="0.175781" stop-color="#FDEEE3"/>
<stop offset="0.179687" stop-color="#FDEEE2"/>
<stop offset="0.183594" stop-color="#FDEDE1"/>
<stop offset="0.1875" stop-color="#FDEDE0"/>
<stop offset="0.191406" stop-color="#FDECDF"/>
<stop offset="0.195312" stop-color="#FDECDE"/>
<stop offset="0.199219" stop-color="#FDEBDD"/>
<stop offset="0.203125" stop-color="#FDEBDC"/>
<stop offset="0.207031" stop-color="#FDEADC"/>
<stop offset="0.210937" stop-color="#FDEADB"/>
<stop offset="0.214844" stop-color="#FDE9DA"/>
<stop offset="0.21875" stop-color="#FDE8D9"/>
<stop offset="0.222656" stop-color="#FDE8D8"/>
<stop offset="0.226562" stop-color="#FDE7D7"/>
<stop offset="0.230469" stop-color="#FDE7D6"/>
<stop offset="0.234375" stop-color="#FDE6D5"/>
<stop offset="0.238281" stop-color="#FDE6D4"/>
<stop offset="0.242188" stop-color="#FDE5D4"/>
<stop offset="0.246094" stop-color="#FDE5D3"/>
<stop offset="0.25" stop-color="#FDE4D2"/>
<stop offset="0.253906" stop-color="#FDE4D1"/>
<stop offset="0.257812" stop-color="#FDE3D0"/>
<stop offset="0.261719" stop-color="#FDE3CF"/>
<stop offset="0.265625" stop-color="#FDE2CE"/>
<stop offset="0.269531" stop-color="#FDE2CD"/>
<stop offset="0.273437" stop-color="#FDE1CC"/>
<stop offset="0.277344" stop-color="#FDE1CB"/>
<stop offset="0.28125" stop-color="#FDE0CB"/>
<stop offset="0.285156" stop-color="#FDDFCA"/>
<stop offset="0.289062" stop-color="#FDDFC9"/>
<stop offset="0.292969" stop-color="#FDDEC8"/>
<stop offset="0.296875" stop-color="#FDDEC7"/>
<stop offset="0.300781" stop-color="#FDDDC6"/>
<stop offset="0.304688" stop-color="#FDDDC5"/>
<stop offset="0.308594" stop-color="#FDDCC4"/>
<stop offset="0.3125" stop-color="#FDDCC3"/>
<stop offset="0.316406" stop-color="#FDDBC3"/>
<stop offset="0.320312" stop-color="#FDDBC2"/>
<stop offset="0.324219" stop-color="#FDDAC1"/>
<stop offset="0.328125" stop-color="#FDDAC0"/>
<stop offset="0.332031" stop-color="#FDD9BF"/>
<stop offset="0.335938" stop-color="#FDD9BE"/>
<stop offset="0.339844" stop-color="#FDD8BD"/>
<stop offset="0.34375" stop-color="#FDD8BC"/>
<stop offset="0.347656" stop-color="#FDD7BB"/>
<stop offset="0.351563" stop-color="#FDD6BA"/>
<stop offset="0.355469" stop-color="#FDD6BA"/>
<stop offset="0.359375" stop-color="#FDD5B9"/>
<stop offset="0.363281" stop-color="#FDD5B8"/>
<stop offset="0.367187" stop-color="#FDD4B7"/>
<stop offset="0.371094" stop-color="#FDD4B6"/>
<stop offset="0.375" stop-color="#FCD3B5"/>
<stop offset="0.378906" stop-color="#FCD3B4"/>
<stop offset="0.382812" stop-color="#FCD2B3"/>
<stop offset="0.386719" stop-color="#FCD2B2"/>
<stop offset="0.390625" stop-color="#FCD1B2"/>
<stop offset="0.394531" stop-color="#FCD1B1"/>
<stop offset="0.398438" stop-color="#FCD0B0"/>
<stop offset="0.40615" stop-color="#FCD0AF"/>
<stop offset="0.40625" stop-color="#FCCFAE"/>
<stop offset="0.410156" stop-color="#FCCEAD"/>
<stop offset="0.414063" stop-color="#FCCEAC"/>
<stop offset="0.417969" stop-color="#FCCDAB"/>
<stop offset="0.421875" stop-color="#FCCDAA"/>
<stop offset="0.425781" stop-color="#FCCCA9"/>
<stop offset="0.429687" stop-color="#FCCCA9"/>
<stop offset="0.433594" stop-color="#FCCBA8"/>
<stop offset="0.4375" stop-color="#FCCBA7"/>
<stop offset="0.441406" stop-color="#FCCAA6"/>
<stop offset="0.445312" stop-color="#FCCAA5"/>
<stop offset="0.449219" stop-color="#FCC9A4"/>
<stop offset="0.453125" stop-color="#FCC9A3"/>
<stop offset="0.457031" stop-color="#FCC8A2"/>
<stop offset="0.460938" stop-color="#FCC8A1"/>
<stop offset="0.464844" stop-color="#FCC7A0"/>
<stop offset="0.46875" stop-color="#FCC7A0"/>
<stop offset="0.472656" stop-color="#FCC69F"/>
<stop offset="0.476562" stop-color="#FCC59E"/>
<stop offset="0.480469" stop-color="#FCC59D"/>
<stop offset="0.484375" stop-color="#FCC49C"/>
<stop offset="0.488281" stop-color="#FCC49B"/>
<stop offset="0.492187" stop-color="#FCC39A"/>
<stop offset="0.496094" stop-color="#FCC399"/>
<stop offset="0.5" stop-color="#FCC298"/>
<stop offset="0.503906" stop-color="#FCC298"/>
<stop offset="0.507813" stop-color="#FCC197"/>
<stop offset="0.511719" stop-color="#FCC196"/>
<stop offset="0.515625" stop-color="#FCC095"/>
<stop offset="0.519531" stop-color="#FCC094"/>
<stop offset="0.523438" stop-color="#FCBF93"/>
<stop offset="0.527344" stop-color="#FCBF92"/>
<stop offset="0.53125" stop-color="#FCBE91"/>
<stop offset="0.535156" stop-color="#FCBE90"/>
<stop offset="0.539062" stop-color="#FCBD8F"/>
<stop offset="0.542969" stop-color="#FCBC8F"/>
<stop offset="0.546875" stop-color="#FCBC8E"/>
<stop offset="0.550781" stop-color="#FCBB8D"/>
<stop offset="0.554688" stop-color="#FCBB8C"/>
<stop offset="0.558594" stop-color="#FCBA8B"/>
<stop offset="0.5625" stop-color="#FCBA8A"/>
<stop offset="0.566406" stop-color="#FCB989"/>
<stop offset="0.570312" stop-color="#FCB988"/>
<stop offset="0.574219" stop-color="#FCB887"/>
<stop offset="0.578125" stop-color="#FCB887"/>
<stop offset="0.582031" stop-color="#FCB786"/>
<stop offset="0.585938" stop-color="#FCB785"/>
<stop offset="0.589844" stop-color="#FCB684"/>
<stop offset="0.59375" stop-color="#FBB683"/>
<stop offset="0.597656" stop-color="#FBB582"/>
<stop offset="0.601562" stop-color="#FBB581"/>
<stop offset="0.605469" stop-color="#FBB480"/>
<stop offset="0.609375" stop-color="#FBB37F"/>
<stop offset="0.613281" stop-color="#FBB37E"/>
<stop offset="0.617188" stop-color="#FBB27E"/>
<stop offset="0.621094" stop-color="#FBB27D"/>
<stop offset="0.625" stop-color="#FBB17C"/>
<stop offset="0.628906" stop-color="#FBB17B"/>
<stop offset="0.632812" stop-color="#FBB07A"/>
<stop offset="0.636719" stop-color="#FBB079"/>
<stop offset="0.640625" stop-color="#FBAF78"/>
<stop offset="0.644531" stop-color="#FBAF77"/>
<stop offset="0.648438" stop-color="#FBAE76"/>
<stop offset="0.652344" stop-color="#FBAE76"/>
<stop offset="0.65625" stop-color="#FBAD75"/>
<stop offset="0.660156" stop-color="#FBAD74"/>
<stop offset="0.664063" stop-color="#FBAC73"/>
<stop offset="0.667969" stop-color="#FBAC72"/>
<stop offset="0.671875" stop-color="#FBAB71"/>
<stop offset="0.675781" stop-color="#FBAA70"/>
<stop offset="0.679688" stop-color="#FBAA6F"/>
<stop offset="0.683594" stop-color="#FBA96E"/>
<stop offset="0.6875" stop-color="#FBA96D"/>
<stop offset="0.691406" stop-color="#FBA86D"/>
<stop offset="0.695313" stop-color="#FBA86C"/>
<stop offset="0.699219" stop-color="#FBA76B"/>
<stop offset="0.703125" stop-color="#FBA76A"/>
<stop offset="0.707031" stop-color="#FBA669"/>
<stop offset="0.710938" stop-color="#FBA668"/>
<stop offset="0.714844" stop-color="#FBA567"/>
<stop offset="0.71875" stop-color="#FBA566"/>
<stop offset="0.722656" stop-color="#FBA465"/>
<stop offset="0.726562" stop-color="#FBA465"/>
<stop offset="0.730469" stop-color="#FBA364"/>
<stop offset="0.734375" stop-color="#FBA363"/>
<stop offset="0.738281" stop-color="#FBA262"/>
<stop offset="0.742188" stop-color="#FBA161"/>
<stop offset="0.746094" stop-color="#FBA160"/>
<stop offset="0.75" stop-color="#FBA05F"/>
<stop offset="0.753906" stop-color="#FBA05E"/>
<stop offset="0.757812" stop-color="#FB9F5D"/>
<stop offset="0.761719" stop-color="#FB9F5C"/>
<stop offset="0.765625" stop-color="#FB9E5C"/>
<stop offset="0.769531" stop-color="#FB9E5B"/>
<stop offset="0.773438" stop-color="#FB9D5A"/>
<stop offset="0.777344" stop-color="#FB9D59"/>
<stop offset="0.78125" stop-color="#FB9C58"/>
<stop offset="0.785156" stop-color="#FB9C57"/>
<stop offset="0.789062" stop-color="#FB9B56"/>
<stop offset="0.792969" stop-color="#FB9B55"/>
<stop offset="0.796875" stop-color="#FB9A54"/>
<stop offset="0.800781" stop-color="#FB9A53"/>
<stop offset="0.804688" stop-color="#FB9953"/>
<stop offset="0.808594" stop-color="#FA9852"/>
<stop offset="0.8125" stop-color="#FA9851"/>
<stop offset="0.816406" stop-color="#FA9750"/>
<stop offset="0.820313" stop-color="#FA974F"/>
<stop offset="0.824219" stop-color="#FA964E"/>
<stop offset="0.828125" stop-color="#FA964D"/>
<stop offset="0.832031" stop-color="#FA954C"/>
<stop offset="0.835938" stop-color="#FA954B"/>
<stop offset="0.839844" stop-color="#FA944B"/>
<stop offset="0.84375" stop-color="#FA944A"/>
<stop offset="0.847656" stop-color="#FA9349"/>
<stop offset="0.851562" stop-color="#FA9348"/>
<stop offset="0.855469" stop-color="#FA9247"/>
<stop offset="0.859375" stop-color="#FA9246"/>
<stop offset="0.863281" stop-color="#FA9145"/>
<stop offset="0.867188" stop-color="#FA9144"/>
<stop offset="0.871094" stop-color="#FA9043"/>
<stop offset="0.875" stop-color="#FA8F42"/>
<stop offset="0.878906" stop-color="#FA8F42"/>
<stop offset="0.882812" stop-color="#FA8E41"/>
<stop offset="0.886719" stop-color="#FA8E40"/>
<stop offset="0.890625" stop-color="#FA8D3F"/>
<stop offset="0.894531" stop-color="#FA8D3E"/>
<stop offset="0.898438" stop-color="#FA8C3D"/>
<stop offset="0.902344" stop-color="#FA8C3C"/>
<stop offset="0.90625" stop-color="#FA8B3B"/>
<stop offset="0.910156" stop-color="#FA8B3A"/>
<stop offset="0.914062" stop-color="#FA8A3A"/>
<stop offset="0.917969" stop-color="#FA8A39"/>
<stop offset="0.921875" stop-color="#FA8938"/>
<stop offset="0.925781" stop-color="#FA8937"/>
<stop offset="0.929688" stop-color="#FA8836"/>
<stop offset="0.933594" stop-color="#FA8835"/>
<stop offset="0.9375" stop-color="#FA8734"/>
<stop offset="1" stop-color="#FA8734"/>
</linearGradient>
</defs>
</svg>
