<?xml version="1.0" encoding="UTF-8"?>
<svg xmlns="http://www.w3.org/2000/svg" version="1.1" viewBox="0 0 1000 1000">
  <defs>
    <style>
      .cls-1 {
        fill: #388048;
      }
    </style>
  </defs>
  <!-- Generator: Adobe Illustrator 28.7.0, SVG Export Plug-In . SVG Version: 1.2.0 Build 23)  -->
  <g>
    <g id="Layer_2">
      <g>
        <polygon class="cls-1" points="324.5 513 327.8 513 327.8 522.4 327.9 522.4 334.1 513 338.2 513 331.3 523.2 338.7 534.5 334.7 534.5 327.9 524 327.8 524 327.8 534.5 324.5 534.5 324.5 513"/>
        <path class="cls-1" d="M340.8,534.5h3.1v-14.8h-3.1v14.8ZM340.8,516.4h3.1v-3.4h-3.1v3.4Z"/>
        <g>
          <path class="cls-1" d="M347.9,519.7h3.1v2.8h0c.4-1.1,1.5-3.1,4-3.1s3.6,1.5,3.6,4.9v10.3h-3.1v-8.5c0-3-.3-3.5-1.4-3.5-2.1,0-3.2,3.2-3.2,5.5v6.4h-3.1v-14.8Z"/>
          <path class="cls-1" d="M372.9,535.5c0,4.3-2.3,6-6.4,6s-3.6-.4-4.2-.6v-3.4c.8.5,2.2,1.3,4.2,1.3,3.1,0,3.5-2.4,3.5-4.3v-2.3h0c-.3.6-1.4,2.3-3.5,2.3-3.6,0-4.6-3.8-4.6-7.8s1.4-7.4,4.6-7.4,3,1.4,3.5,2.1h0v-1.8h3v15.8ZM367.4,531.8c1.8,0,2.5-3,2.5-5.1s-.5-4.7-2.5-4.7-2.3,2.8-2.3,4.7.3,5.1,2.3,5.1"/>
          <polygon class="cls-1" points="385.2 513 396.3 513 396.3 515.8 388.5 515.8 388.5 522 395.8 522 395.8 524.7 388.5 524.7 388.5 534.5 385.2 534.5 385.2 513"/>
          <path class="cls-1" d="M405.5,532.8h0c-.4,1-1.4,2-3.5,2s-4-1.5-4-3.9c0-4.9,5.6-4.9,7.5-5v-1.5c0-1.5-.3-2.7-1.9-2.7s-2.1,1.3-2.1,2.3h-3.1c0-2.8,1.7-4.7,5.1-4.7s4.9,1.6,4.9,4.6v10.6h-3v-1.7ZM402.7,532.4c2,0,2.8-2.4,2.8-4.4-2,0-4.5.7-4.5,2.7s.6,1.8,1.7,1.8"/>
          <path class="cls-1" d="M412.3,513h3.1v9.4h0c.4-1.1,1.5-3.1,4-3.1s3.6,1.5,3.6,4.9v10.3h-3.1v-8.5c0-3-.3-3.5-1.4-3.5-2.1,0-3.2,3.2-3.2,5.5v6.4h-3.1v-21.5Z"/>
          <path class="cls-1" d="M434.2,532.4h0c-.3.8-1.7,2.4-3.4,2.4-3.6,0-4.6-3.6-4.6-7.8s1.4-7.7,4.6-7.7,3,1.4,3.4,2.1h0v-8.4h3.1v21.5h-3.1v-2ZM431.8,532.1c1.8,0,2.4-2.7,2.4-5.1s-.6-5.1-2.4-5.1-2.3,2.6-2.3,5.1.3,5.1,2.3,5.1"/>
          <path class="cls-1" d="M462.9,527.9c0,4.7-2.6,6.9-6.8,6.9s-6.8-2.2-6.8-6.9v-14.9h3.3v14.9c0,2.5.9,4.3,3.5,4.3s3.4-1.9,3.4-4.3v-14.9h3.3v14.9Z"/>
          <path class="cls-1" d="M466.7,519.7h3.1v2.8h0c.4-1.1,1.5-3.1,4-3.1s3.6,1.5,3.6,4.9v10.3h-3.1v-8.5c0-3-.3-3.5-1.4-3.5-2.1,0-3.2,3.2-3.2,5.5v6.4h-3.1v-14.8Z"/>
          <path class="cls-1" d="M481.5,513h3.1v3.4h-3.1v-3.4ZM481.5,519.7h3.1v14.8h-3.1v-14.8Z"/>
          <polygon class="cls-1" points="486.7 519.7 490 519.7 493 529.8 493.1 529.8 496.1 519.7 499.4 519.7 494.6 534.5 491.5 534.5 486.7 519.7"/>
          <path class="cls-1" d="M511,534.2c-1.1.4-2.3.6-3.8.6-4.3,0-6.8-3.1-6.8-8.5s1.7-7,5.8-7,5.1,2.4,5.1,6v.8h-8c0,2,1.3,6.2,5.1,6.2s2-.3,2.6-.6v2.4ZM508.3,524.1c0-.9-.4-2.6-2.4-2.6s-2.5,1.7-2.5,2.6h4.9Z"/>
          <path class="cls-1" d="M514.3,519.7h3.1v2.7h0c.7-1.4,1.6-3.1,4.3-3.1v3.6c-3.2,0-4.4,1.5-4.4,5.1v6.5h-3.1v-14.8Z"/>
          <path class="cls-1" d="M531.2,522.8c-.3-.2-1.6-1-3-1s-2.1.5-2.1,1.4c0,2,5.9,3,5.9,7.2s-2.1,4.4-5.1,4.4-2.9-.4-3.6-.6v-3c.9.4,2.1.9,3.4.9s2.3-.2,2.3-1.3c0-1.8-5.8-3.2-5.8-7.1s1.9-4.4,4.8-4.4,2.4.4,3.1.6v2.9Z"/>
          <path class="cls-1" d="M534.9,513h3.1v3.4h-3.1v-3.4ZM534.9,519.7h3.1v14.8h-3.1v-14.8Z"/>
          <path class="cls-1" d="M550,534.6c-.9.2-1.7.2-2.6.2-3.6,0-4.1-1.9-4.1-4.1v-8.7h-2.6v-2.4h2.6v-3.5l3.1-2.1v5.6h4v2.4h-4v7c0,1.8.2,3.3,2.1,3.3s1-.1,1.4-.2v2.4Z"/>
          <polygon class="cls-1" points="555.5 534.7 550.5 519.7 553.8 519.7 556.9 529.6 557 529.6 559.9 519.7 563.2 519.7 556.5 541.1 553.6 541.1 555.5 534.7"/>
          <path class="cls-1" d="M572.6,527.1c0-4.8,2.1-7.7,5.9-7.7s5.9,2.9,5.9,7.7-2.1,7.7-5.9,7.7-5.9-2.9-5.9-7.7M578.5,532.4c2.3,0,2.6-2.6,2.6-5.3s-.3-5.3-2.6-5.3-2.6,2.6-2.6,5.3.3,5.3,2.6,5.3"/>
          <path class="cls-1" d="M588.7,522.1h-2.5v-2.4h2.5v-2c0-3.1,1.8-5,5.5-5s2.4.1,3.1.3v2.6c-.6-.2-1.6-.5-2.5-.5-2.6,0-3.1,1.8-3.1,3.6v1h4v2.4h-4v12.4h-3.1v-12.4Z"/>
          <path class="cls-1" d="M606.5,513h5c3,0,6.8.5,6.8,6.2s-4.1,6.1-6.8,6.1h-1.7v9.2h-3.3v-21.5ZM609.8,522.7h1.7c2,0,3.5-1.1,3.5-3.5s-1.3-3.6-3.5-3.6h-1.7v7.2Z"/>
          <path class="cls-1" d="M629.2,534.2c-1.1.4-2.3.6-3.8.6-4.3,0-6.8-3.1-6.8-8.5s1.7-7,5.8-7,5.1,2.4,5.1,6v.8h-8c0,2,1.3,6.2,5.1,6.2s2-.3,2.6-.6v2.4ZM626.6,524.1c0-.9-.4-2.6-2.4-2.6s-2.5,1.7-2.5,2.6h4.9Z"/>
          <path class="cls-1" d="M640.5,534.6c-.9.2-1.7.2-2.6.2-3.6,0-4.1-1.9-4.1-4.1v-8.7h-2.6v-2.4h2.6v-3.5l3.1-2.1v5.6h4v2.4h-4v7c0,1.8.2,3.3,2.1,3.3s1-.1,1.4-.2v2.4Z"/>
          <path class="cls-1" d="M643,519.7h3.1v2.7h0c.7-1.4,1.6-3.1,4.3-3.1v3.6c-3.2,0-4.4,1.5-4.4,5.1v6.5h-3.1v-14.8Z"/>
          <path class="cls-1" d="M652.1,527.1c0-4.8,2.1-7.7,5.9-7.7s5.9,2.9,5.9,7.7-2.1,7.7-5.9,7.7-5.9-2.9-5.9-7.7M658.1,532.4c2.3,0,2.6-2.6,2.6-5.3s-.3-5.3-2.6-5.3-2.6,2.6-2.6,5.3.3,5.3,2.6,5.3"/>
          <rect class="cls-1" x="667.2" y="513" width="3.1" height="21.5"/>
          <path class="cls-1" d="M684.1,534.2c-1.1.4-2.3.6-3.8.6-4.3,0-6.8-3.1-6.8-8.5s1.7-7,5.8-7,5.1,2.4,5.1,6v.8h-8c0,2,1.3,6.2,5.1,6.2s2-.3,2.6-.6v2.4ZM681.5,524.1c0-.9-.4-2.6-2.4-2.6s-2.5,1.7-2.5,2.6h4.9Z"/>
          <path class="cls-1" d="M695.2,531.7h0c-.4,1.1-1.5,3.1-4,3.1s-3.6-1.5-3.6-4.9v-10.3h3.1v8.5c0,3,.3,3.5,1.4,3.5,2.1,0,3.2-3.1,3.2-5.5v-6.4h3.1v14.8h-3.1v-2.8Z"/>
          <path class="cls-1" d="M702.2,519.7h3.1v2.3h0c.4-.9,1.3-2.6,3.5-2.6s3,.9,3.4,3h0c.4-1.1,1.6-3,3.8-3s3.6,1.5,3.6,4.9v10.3h-3.1v-8.5c0-3-.3-3.5-1.4-3.5-1.8,0-2.7,3.2-2.7,5.5v6.4h-3.1v-8.5c0-3-.3-3.5-1.4-3.5-1.8,0-2.7,3.2-2.7,5.5v6.4h-3.1v-14.8Z"/>
          <path class="cls-1" d="M740.9,534.3c-1.1.3-2.2.5-3.3.5-3.4,0-6.3-1.4-6.3-5.8s2.3-5,4.1-5.3h0c-1.4-.5-3.7-1.1-3.7-4.7s3-5.3,5.8-5.3,2.2.2,3.2.6v2.5c-.5-.3-1.5-.8-2.8-.8-1.9,0-2.6,1.5-2.6,3.3,0,2.9,1.6,3.3,3.7,3.3h3.9v-6.5l3.1-2v8.6h3.6v2.2h-3.6v4.9c0,1.9.7,2.9,2,2.9s1-.2,1.5-.4v2.4c-.7.2-1.5.3-2.3.3-2.8,0-4.4-.9-4.4-4v-6.1h-3.8c-2.2,0-4.1.2-4.1,4.2s1.5,3.6,3.3,3.6,2.1-.4,2.8-.7v2.5Z"/>
          <polygon class="cls-1" points="759.8 513 764.3 513 769.8 530.1 769.8 530.1 775.3 513 779.8 513 779.8 534.5 776.7 534.5 776.7 517.6 776.7 517.6 771.3 534.5 768.3 534.5 762.9 517.6 762.9 517.6 762.9 534.5 759.8 534.5 759.8 513"/>
          <path class="cls-1" d="M783.9,513h3.1v3.4h-3.1v-3.4ZM783.9,519.7h3.1v14.8h-3.1v-14.8Z"/>
          <path class="cls-1" d="M791.1,519.7h3.1v2.8h0c.4-1.1,1.5-3.1,4-3.1s3.6,1.5,3.6,4.9v10.3h-3.1v-8.5c0-3-.3-3.5-1.4-3.5-2.1,0-3.2,3.2-3.2,5.5v6.4h-3.1v-14.8Z"/>
          <path class="cls-1" d="M815.5,534.2c-1.1.4-2.3.6-3.8.6-4.3,0-6.8-3.1-6.8-8.5s1.7-7,5.8-7,5.1,2.4,5.1,6v.8h-8c0,2,1.3,6.2,5.1,6.2s2-.3,2.6-.6v2.4ZM812.9,524.1c0-.9-.4-2.6-2.4-2.6s-2.5,1.7-2.5,2.6h4.9Z"/>
          <path class="cls-1" d="M818.8,519.7h3.1v2.7h0c.7-1.4,1.6-3.1,4.3-3.1v3.6c-3.2,0-4.4,1.5-4.4,5.1v6.5h-3.1v-14.8Z"/>
          <path class="cls-1" d="M835.6,532.8h0c-.4,1-1.4,2-3.5,2s-4-1.5-4-3.9c0-4.9,5.6-4.9,7.5-5v-1.5c0-1.5-.3-2.7-1.9-2.7s-2.1,1.3-2.1,2.3h-3.1c0-2.8,1.7-4.7,5.1-4.7s4.9,1.6,4.9,4.6v10.6h-3v-1.7ZM832.9,532.4c2,0,2.8-2.4,2.8-4.4-2,0-4.5.7-4.5,2.7s.6,1.8,1.7,1.8"/>
          <rect class="cls-1" x="842.6" y="513" width="3.1" height="21.5"/>
          <path class="cls-1" d="M856.7,522.8c-.3-.2-1.6-1-3-1s-2.1.5-2.1,1.4c0,2,5.9,3,5.9,7.2s-2.1,4.4-5.1,4.4-2.9-.4-3.6-.6v-3c.9.4,2.1.9,3.4.9s2.3-.2,2.3-1.3c0-1.8-5.8-3.2-5.8-7.1s1.9-4.4,4.8-4.4,2.4.4,3.1.6v2.9Z"/>
          <path class="cls-1" d="M547.3,496.9c0,1.2-1,2.3-2.3,2.3s-2.2-1-2.2-2.3,1-2.2,2.2-2.2,2.3,1,2.3,2.2"/>
          <path class="cls-1" d="M538.3,467.7c0,1.2-1,2.2-2.3,2.2s-2.2-1-2.2-2.2,1-2.3,2.2-2.3,2.3,1,2.3,2.3"/>
          <path class="cls-1" d="M538.3,460.9c0,1.2-1,2.3-2.3,2.3s-2.2-1-2.2-2.3,1-2.2,2.2-2.2,2.3,1,2.3,2.2"/>
          <path class="cls-1" d="M518.1,489.6v-15.1s-1.3,2.2-4.5,2.2h-2.3c-3.7,0-6.7,3-6.7,6.7v6.7h9v1.7c.3,8.7-6.5,4.7-6.5,4.7,2.2,3,5.5,2.6,5.5,2.6,3.8-.3,5.2-3.3,5.5-6.1.1-1.8.1-3.4.1-3.4M509.1,483.4c0-1.2,1-2.2,2.2-2.2h2.3v4.5h-4.5v-2.3Z"/>
          <path class="cls-1" d="M567.5,465.4c-1.4-.7-2.9-1.8-4.2-3.2-1-1.1-1.9-2.3-2.5-3.5v33.7c0,1.2-1,2.3-2.3,2.3s-2.3-1-2.3-2.3v-33.7c-.6,1.2-1.5,2.4-2.5,3.5-1.3,1.4-2.8,2.5-4.2,3.2,1.2,0,2.2,1,2.2,2.2v18h-4.5v-16.2c-.6,1.2-1.4,2.3-2.5,3.5-1.3,1.4-2.8,2.5-4.2,3.2,1.2,0,2.2,1,2.2,2.3h0v7.3h-4.4v-11.3c-.6,1.2-1.5,2.3-2.5,3.4-1.3,1.4-2.8,2.5-4.2,3.2,1.2,0,2.2,1,2.2,2.3h0s0,2.3,0,2.3h-4.5v-11.2l-6.7,6.7c1.2,0,2.2,1,2.2,2.3h0s0,9,0,9c0,8-6.5,4.2-6.5,4.2,2.2,3,5.5,2.6,5.5,2.6,3.8-.3,5.2-3.3,5.5-6.1,0-.2,0-2.6,0-2.9h22.5v2.2c0,3.1,2.2,5.8,5.1,6.5.9.2,1.6,1,1.7,1.9,0,0,0,0,0,0,.1-.9.8-1.6,1.6-1.9,3-.7,5.1-3.4,5.1-6.5v-2.3h0v-22.5c0-1.2,1-2.2,2.2-2.2"/>
          <path class="cls-1" d="M502.3,465.4c-1.4-.7-2.9-1.8-4.2-3.2-1-1.1-1.9-2.3-2.5-3.5v27h-11.4c2-3.2,1.3-11.3,1.3-11.3,0,0-2.8,12.7-10.1,15.8h24.7v-4.5h0v-18c0-1.2,1-2.2,2.2-2.2"/>
          <path class="cls-1" d="M747.3,465.4c-1.4-.7-2.9-1.8-4.2-3.2-1-1.1-1.9-2.3-2.5-3.5v31.4h4.5v-22.5c0-1.2,1-2.2,2.2-2.2"/>
          <path class="cls-1" d="M733.6,462.2c-1.3,1.4-2.8,2.5-4.2,3.2,1.2,0,2.2,1,2.2,2.3v18h-4.9c-.7-2.1-2.5-3.8-4.7-4.3h0c-.9-.2-1.6-1-1.7-1.9,0,0,0,0,0,0,0,.9-.7,1.7-1.6,1.9h0c-2.2.6-4,2.2-4.7,4.3h-4.9v-26.9c-.6,1.2-1.5,2.4-2.5,3.5-1.3,1.4-2.8,2.5-4.2,3.2,1.2,0,2.2,1,2.2,2.3v24c0,1.3-1,2.3-2.3,2.3s-2.2-1-2.2-2.3v-8.2c0-3.7-3-6.7-6.7-6.7h-24.9l19.3-9.6c1.1-.6,2.4-.3,3.1.8,0-1.3,0-2.8.4-4.3.4-1.9,1.2-3.6,2-4.9l-31.4,16.5h0v5.9h31.5c1.2,0,2.2,1,2.2,2.2v2.2h-36c-1.2,0-2.2-1-2.2-2.2h0c-.6,1.2-1.5,2.4-2.5,3.5-1.3,1.4-2.8,2.5-4.2,3.2h44.9v1.5c0,3.1,2.2,5.8,5.1,6.5.9.2,1.6,1,1.7,1.9,0,0,0,0,0,0,0-.9.7-1.7,1.6-1.9h0c3-.7,5.1-3.4,5.1-6.6v-1.5h4.9c.9,2.6,3.4,4.5,6.4,4.5s5.4-1.9,6.4-4.5h9.4v-31.4c-.6,1.2-1.5,2.4-2.5,3.5M720.4,490.1c-1.2,0-2.3-1-2.3-2.2s1-2.2,2.3-2.2,2.2,1,2.2,2.2-1,2.2-2.2,2.2"/>
          <path class="cls-1" d="M639.5,460.9c0,1.2-1,2.3-2.2,2.3s-2.3-1-2.3-2.3,1-2.2,2.3-2.2,2.2,1,2.2,2.2"/>
          <path class="cls-1" d="M639.5,467.7h-2.2c-3.7,0-6.7,3-6.7,6.7v6.7h9v11.2c0,1.3-1,2.3-2.2,2.3s-2.3-1-2.3-2.3v-6.7h-9v-2.3c0-3.7-3-6.7-6.8-6.7h-2.2v-11.2h0c-.6,1.2-1.5,2.4-2.5,3.5-1.3,1.4-2.8,2.5-4.2,3.2,1.2,0,2.2,1,2.2,2.2v2.3h-2.2c-3.7,0-6.7,3-6.7,6.7v2.3h-4.4v-2.3c0-3.7-3-6.7-6.7-6.7h-11.3c-1.2,0-2.2-1-2.2-2.2-.6,1.2-1.5,2.4-2.5,3.5-1.3,1.4-2.8,2.5-4.2,3.2h20.2c1.3,0,2.2,1,2.2,2.2v2.3h-22.5v4.5h31.4v2.2c0,3.1,2.2,5.8,5.1,6.5.9.2,1.6,1,1.7,1.9,0,0,0,0,0,0,.1-.9.7-1.7,1.6-1.9,3-.7,5.1-3.4,5.1-6.5v-2.2h13.5v2.2c0,3.1,2.1,5.8,5.1,6.5.9.2,1.6,1,1.7,1.9,0,0,0,0,0,0,0-.9.7-1.7,1.6-1.9,2.9-.7,5.1-3.4,5.1-6.5v-27s-1.3,2.2-4.5,2.3M639.5,476.7h-4.5v-2.2c0-1.2,1-2.2,2.3-2.2h2.2v4.5ZM608,483.4c0-1.2,1-2.2,2.2-2.2h2.2v4.5h-4.5v-2.3ZM612.5,492.4c0,1.3-1,2.3-2.3,2.3s-2.2-1-2.2-2.3v-2.2h4.5v2.2ZM621.5,485.7h-4.5v-4.5h2.2c1.3,0,2.3,1,2.3,2.2v2.3Z"/>
          <path class="cls-1" d="M340.2,476.7c-.3,1.3-.8,2.7-1.5,4-.7,1.3-1.6,2.5-2.5,3.4h.3c1.7,0,3.6,1.2,3.7,3.5.2,1-.2,3.2-1.3,4.5-1.4,1.9-2.8,2.6-5.4,2.6-1.7,0-3.6-.8-5.2-3-1.1-1.8-1.4-4-.7-6.2,2-8.7,15.6-13.9,12.4-23.5-1-2.5-3.7-4.2-5.6-1.9-1,1.3-.3,2.7.9,3.4,1.5.8,3-.3,3.6-1.6.7,1.1.8,2.7.6,3.8-.6,5.6-12,13.3-14.2,19.9-1.6,3.6-.7,8.1,1.5,10.3,2.5,2.8,7.2,3.8,10.6,2.7,4.2-1.4,7.3-5,7.7-9.4.5-4.7-.6-8.9-4.8-12.5"/>
          <path class="cls-1" d="M468.6,489.6v-15.1s-1.3,2.2-4.5,2.2h-2.2c-3.7,0-6.7,3-6.7,6.7v6.7h9v1.7c.3,8.7-6.5,4.7-6.5,4.7,2.2,3,5.5,2.6,5.5,2.6,3.8-.3,5.3-3.3,5.5-6.1.1-1.8.1-3.4.1-3.4M459.6,483.4c0-1.2,1-2.2,2.2-2.2h2.2v4.5h-4.5v-2.3Z"/>
          <path class="cls-1" d="M452.9,465.4c-1.4-.7-2.9-1.8-4.2-3.2-1-1.1-1.9-2.3-2.5-3.5v31.4h4.5v-22.5c0-1.2,1-2.2,2.2-2.2"/>
          <path class="cls-1" d="M441.6,485.7v-27c-.6,1.2-1.4,2.4-2.5,3.5-1.3,1.4-2.8,2.5-4.2,3.2,1.2,0,2.2,1,2.2,2.2v18h-4.9c-.7-2.1-2.5-3.7-4.7-4.3-.9-.2-1.6-1-1.7-1.9,0,0,0,0,0,0,0,.9-.7,1.7-1.6,1.9-2.2.6-4,2.2-4.7,4.3h-11.1c-.5-.5-1-1-1.5-1.4,2.7-1.9,6-3.5,9.3-3.5,0,0-3.6-5.4-7.6-6.4,0,0-.2-2.3-3.6-3.3,0,0-1.2-.5-1.6-1.9,0,0,0,0,0,0-.4,1.4-1.6,1.9-1.6,1.9-3.5,1-3.7,3.3-3.7,3.3-4.1,1-7.6,6.4-7.6,6.4,3.2,0,6.5,1.6,9.3,3.5-.5.4-1,.9-1.5,1.4h-12.8v-27l-6.7,6.7c1.3,0,2.2,1,2.2,2.2v22.6h19.3s1.2-1.4,3.1-3c1.9,1.7,3.1,3,3.1,3h13.2c.9,2.6,3.4,4.5,6.4,4.5s5.4-1.9,6.4-4.5h9.4v-4.5h0ZM403.3,481.4c-3-2.1-5.1-2.8-5.1-2.8,1.9-1.4,3.5-.7,3.5-.7-1.1-1.9,1-3.1,1-3.1.5-.3.6-.4.7-.4,0,0,.1.1.7.4,0,0,2,1.2,1,3.1,0,0,1.6-.7,3.5.7,0,0-2.1.7-5.1,2.8M425.9,490.2c-1.2,0-2.3-1-2.3-2.3s1-2.2,2.3-2.2,2.2,1,2.2,2.2-1,2.3-2.2,2.3"/>
          <path class="cls-1" d="M376.3,487.2c0-.2,0-.3,0-.3v-3.6c0-3.7-3-6.7-6.7-6.7h-11.3c-1.2,0-2.2-1-2.2-2.2-.6,1.2-1.5,2.4-2.5,3.5-1.3,1.4-2.8,2.5-4.2,3.2h20.2c1.2,0,2.2,1,2.2,2.3v2.3h-22.5v4.5h27v-2.8Z"/>
          <path class="cls-1" d="M844,496.9c0,1.2-1,2.3-2.3,2.3s-2.2-1-2.2-2.3,1-2.2,2.2-2.2,2.3,1,2.3,2.2"/>
          <path class="cls-1" d="M756.3,467.3c0,1.2-1,2.2-2.3,2.2s-2.2-1-2.2-2.2,1-2.3,2.2-2.3,2.3,1,2.3,2.3"/>
          <path class="cls-1" d="M756.3,460.8c0,1.2-1,2.2-2.3,2.2s-2.2-1-2.2-2.2,1-2.2,2.2-2.2,2.3,1,2.3,2.2"/>
          <path class="cls-1" d="M855.3,487v-3.6c0-3.7-3-6.7-6.7-6.7h-11.3c-1.2,0-2.2-1-2.2-2.2-.6,1.2-1.5,2.4-2.5,3.5-1.3,1.4-2.8,2.5-4.2,3.2h20.2c1.2,0,2.2,1,2.2,2.3v2.3h-27v-27c-.6,1.2-1.5,2.4-2.5,3.5-1.3,1.4-2.7,2.5-4.1,3.2,1.2,0,2.2,1,2.2,2.2v22.5h38.3c-2.4-.9-2.2-3.1-2.2-3.1"/>
          <path class="cls-1" d="M814.8,485.7v-11.2s-1.3,2.2-4.5,2.2h-2.2c-3.7,0-6.7,3-6.7,6.7v2.3h-12.9c-.5-.5-1-1-1.5-1.4,2.7-1.9,6-3.5,9.3-3.5,0,0-3.6-5.4-7.6-6.4,0,0-.2-2.3-3.7-3.3,0,0-1.2-.5-1.6-1.9,0,0,0,0,0,0-.4,1.4-1.6,1.9-1.6,1.9-3.5,1-3.6,3.3-3.6,3.3-4.1,1-7.6,6.4-7.6,6.4,3.3,0,6.6,1.6,9.3,3.5-.5.4-1,.9-1.5,1.4h-12.8v-20.2c-.6,1.2-1.4,2.3-2.5,3.4-1.3,1.4-2.8,2.5-4.3,3.2,1.2,0,2.2,1,2.2,2.2v2.3h-2.2c-3.7,0-6.7,3-6.7,6.7v6.8h28.4s1.2-1.4,3.1-3c1.9,1.7,3.1,3,3.1,3h28.4v-4.5ZM756.3,485.7v-2.3c0-1.2,1-2.2,2.2-2.2h2.2v4.5s-4.5,0-4.5,0ZM783.3,481.4c-3-2.1-5.1-2.8-5.1-2.8,1.9-1.4,3.5-.7,3.5-.7-1.1-1.9,1-3.1,1-3.1.5-.3.6-.4.7-.4,0,0,.1.1.7.4,0,0,2,1.2,1,3.1,0,0,1.6-.7,3.5.7,0,0-2.1.7-5.1,2.8M810.3,485.7h-4.5v-2.3c0-1.2,1-2.2,2.2-2.2h2.2v4.5Z"/>
          <polygon class="cls-1" points="280.1 530 266.9 523.5 266.5 524.4 279.5 531.3 280.1 530"/>
          <path class="cls-1" d="M252.5,422.2h-64.4l-45.5,45.5v64.4l45.5,45.5h64.4l45.5-45.5v-64.4l-45.5-45.5ZM292.9,529.8l-43.2,43.2h-59.6l-42.5-42.6v-60.4s42.6-42.9,42.6-42.9h60.4l42.2,42.2v60.5Z"/>
          <path class="cls-1" d="M214.8,461.5c1.8-.2,2.8-.5,4.9-.5v-1.1c0-1.3-.6-2-2.3-1.9,0,0-1.1.3-1.4-.2,0,0,0,.4-.4.9-.3.4-.9.7-.9.7,0,0,1.5-.3,1.8-.3.7,0,2.1-.5,2,.9h0c-.6,0-1.8,0-3.9.4l.2,1Z"/>
          <path class="cls-1" d="M221.9,457.7h-.3v4.8s0,0,0,0c0,1.6-1.6.9-1.7.8.8,1,2.7.9,2.7-.9l.2-5.4s-.3.7-1,.7"/>
          <path class="cls-1" d="M222.3,455.4c.4,0,.7-.3.7-.7,0-.4-.2-.7-.6-.7-.4,0-.7.3-.7.7,0,.4.3.7.6.7"/>
          <path class="cls-1" d="M235.3,460.4c0,0-.2,0-.3,0l-1.7,4.5h0c-.6,1.5-1.8.2-1.9.2.3,1.3,2.1,1.8,2.9.1l2.1-5s-.5.5-1.2.2"/>
          <path class="cls-1" d="M229.1,464.1c.4,0,.7-.2.7-.7,0-.4-.3-.7-.6-.7-.4,0-.7.2-.7.6,0,.4.3.7.7.7"/>
          <path class="cls-1" d="M234.5,458.3s-.5.8-1.8.4c0,0,.3.5.2.9,0,.1-.4,1-.7,2-1.6-.5-4.2-1-5.6-1.3,0,0,.6-.6.9-1.2.5-1,.3-2.2.3-2.2,0,.6-.3,2.8-3.7,4.2,0,0,2.2-.2,8.9,1.9l1.6-4.8Z"/>
          <path class="cls-1" d="M251.4,471.2l-2-2.2c-.6-.5-.8-.2-1.5.5l-1.1,1.3,1.8,1.6-1,1h0c-1.1,1-1.7-.5-1.7-.6-.2,1.2,1.2,2.4,2.5,1.3l3.2-2.9ZM248.2,470.7l.3-.3c.3-.3.5-.3.8,0l.6.7-.7.7-1-1Z"/>
          <path class="cls-1" d="M246.9,463.5c.4,0,.7-.3.7-.7,0-.4-.3-.7-.7-.7-.4,0-.7.3-.7.7,0,.4.3.7.7.7"/>
          <path class="cls-1" d="M249,465c.4,0,.7-.3.7-.7s-.3-.7-.7-.7-.7.3-.7.7.3.7.7.7"/>
          <path class="cls-1" d="M246.3,464.2c-.7-.4-1-.4-1.5.5l-.9,1.4,1.9,1.4-.5.7c-.7-.5-3.1-2.1-4.2-2.7l2.8-5.1s-.9.5-2.1.3c0,0,.4.1.2.5,0,0-2.6,5.1-2.7,5.2-.6,1.1-1.5.9-1.9.7-.9-.5-1-1.3-.9-1.8.1-.5.3-1.4,1.8-2.1,0,0,.2.4.7,0,.4-.3.6-1,.6-1-.6.4-2.8,1.4-3.3,2.7-.5,1.3.2,2.5,1.1,2.8.5.2,2,.7,2.9-.8l.3-.5c1.5.8,2.9,1.6,4.9,3.4l3.1-3.9-2.2-1.6ZM245.3,465.8l.2-.4c.2-.3.3-.3.7,0l.7.5-.6.8-1-.8Z"/>
          <path class="cls-1" d="M211.8,456.2c.4,0,.7-.4.6-.7,0-.4-.4-.7-.7-.6-.4,0-.7.4-.6.7s.4.6.7.6"/>
          <path class="cls-1" d="M205,466.7c.4,0,.7-.4.6-.7,0-.4-.4-.7-.7-.7-.4,0-.7.4-.6.7,0,.5.3.7.7.7"/>
          <path class="cls-1" d="M207.1,465.7c.4,0,.6-.4.6-.7,0-.4-.4-.7-.7-.6-.4,0-.7.4-.6.7,0,.4.4.7.7.6"/>
          <path class="cls-1" d="M212.2,460.9c-1.1.2-2.2.5-2.2.5l-2.5-2.6s-.4-.5-1.1-.4c-.5,0-1.2.5-1.6.8-.4.3-.7.8-.3,1.3l1.9,2.2c-1.6.5-3,1.3-4.2,1.9,0,0,.1-.8,0-1.4-.2-1.2-1.1-1.9-1.1-1.9.3.5,1.4,2.3-.4,5.6,0,0,1.9-1.6,7.7-3.7l-2.8-3c.2-.2.6-.5,1-.5l2.9,3.1c1-.2,2.6-.6,3.9-.8l-.7-4.4s-.2.7-.6,1c-.5.2-1,.4-1,.4,0,0,.6-.3.8.7l.3,1.3Z"/>
          <path class="cls-1" d="M199.4,467.4h-.9c-.8,0-.9-.5-.9-.5,0,.5-.7.8-1.4.7-.5,0-1-.7-1-1.4,0-.9.8-1.5,1.4-1.2,0,.3.1.6.3.6.2,0,.6,0,.6-.4,0-.4-.4-.5-.4-.5-1.3-.3-2.4.6-2.5,1.6,0,1,.6,1.9,1.5,1.9-.5.4-1,.7-1.3,1.1l-4.1-4.6s.2.8-.4,1.7c0,0,.2-.2.5,0,.2.2,2.1,2.3,3.2,3.5-.4.4-.7.7-.9.9-.2,0-.4-.1-.7-.1-1,0-1.8.7-1.9,1.6,0,.4,0,.7.2,1-.2.3-.5.7-.7.9l-4.9-3.7s.3.8,0,1.8c0,0,.2-.3.5,0,.3.3,4.7,3.5,4.7,3.5l.2-.3c0,0,.1,0,.1,0,.1-.1.6-.7,1-1.3.2,0,.4.1.6.1,1,0,1.8-.7,1.9-1.6,0-.3,0-.6-.2-.9,2-2,4.4-3.6,5.6-4.4M192.2,473.2c-.4,0-.6-.4-.6-.7,0-.4.3-.6.7-.6s.6.3.6.7c0,.4-.3.6-.6.6"/>
          <path class="cls-1" d="M186,469.9s1.7-1.1,2.1-2.6h.3s0,.7-.7,1.6c-.8.9-1.7,1-1.7,1"/>
          <path class="cls-1" d="M186.8,470.6s1.7-1.2,2.1-2.7h.3s0,.8-.7,1.6c-.8.9-1.7,1-1.7,1"/>
          <path class="cls-1" d="M213.2,435.3c0-.6.4-.6.4-.6-1.6-.2-2.3-1.3-2.3-1.3l1.5,10.6c0,.4-.2.7-.5.7-.4,0-.7-.2-.7-.5l-1.8-10.5s-.5,1.2-1.8,1.9c0,0,.5-.2.6.4,0,.2.5,2.8,1,5.1-.8.2-1.7.4-2.4.6l-.7-3.4s-.4,1.3-1.7,2.1c0,0,.4-.2.6.4,0,.2.2.8.3,1.3-.6.2-1.3.4-1.9.5l-.9-3.2s-.3,1.2-1.6,2.1c0,0,.4-.2.6.4,0,.2.5,1.3.5,1.3-.6.2-1.2.3-1.7.5l-1.1-3.1s-.2,1.2-1.5,2.2c0,0,.5-.2.6.3,0,.1,2,5.3,2,5.3.2.6,0,1.4-1.1,1.6-.2,0-.3,0-.5-.2.3.2.6.3,1,.3,1.1,0,2.4-.9,2-2.4l-.8-2.4c2.6-1,5.7-1.9,8.9-2.5.2,1,.4,1.6.4,1.6.1.9.9,1.6,1.8,1.7.5,0,.7.7.7.7,0-.4.2-.7.3-.9.9-.3,1.4-1.1,1.3-2h0c0,0-.9-8.3-.9-8.6"/>
          <path class="cls-1" d="M234,435c.5,0,.9-.5.9-1s-.4-.9-.9-.9-.9.4-.9.9.4,1,.9,1"/>
          <path class="cls-1" d="M265.4,462.6l-.9-1.2,6.6-5.8s-.4,1.2.2,2.7c0,0-.2-.4-.7,0-.4.4-5.2,4.4-5.2,4.4"/>
          <path class="cls-1" d="M177.5,460.9l-1,1.2-6.7-5.8s1.2.2,2.6-.6c0,0-.4.3,0,.7l5,4.5Z"/>
          <path class="cls-1" d="M200.6,437.4c.5,0,.9-.5.9-1s-.4-.9-.9-.9-.9.4-.9.9.4,1,.9,1"/>
          <path class="cls-1" d="M201.3,439.7c.5,0,.9-.4.9-.9s-.4-1-.9-1-.9.5-.9,1,.4.9.9.9"/>
          <path class="cls-1" d="M207.4,447.8c.5,0,.9-.4.9-.9s-.4-1-.9-1-.9.5-.9,1,.4.9.9.9"/>
          <path class="cls-1" d="M163.4,489.8c.4-2.7.7-3.9,1.6-6.9l-1.6-.5c-1.3-.3-3.5.2-4,2.2,0,0-.2,1.9-1,2,0,0,.5.1,1,1,.4.5.6,1.6.6,1.6,0,0,.4-2.2.6-2.7.3-1,.3-3.3,2.3-2.5-.2.9-.7,2.2-1.3,5.4l1.7.3Z"/>
          <path class="cls-1" d="M194.7,441.7s-.1,1-1,1.5c-2,1-2.2,2.5-1.6,3.6l.9,1.9,2.5-1.3.8,1.8h0c.9,2-1.5,2.1-1.6,2,1.6.8,3.8-.5,2.8-2.7l-2.9-6.8ZM193.6,446.6c-.3-.5-.4-.8-.2-1.2.1-.3.9-.7.9-.7l.6,1.3-1.3.6Z"/>
          <path class="cls-1" d="M178.5,452.2s.2,1-.5,1.7c-1.6,1.6-1.4,3-.5,4l1.5,1.5,2-2.1,1.3,1.5h0c1.4,1.6-.8,2.4-.9,2.4,1.8.2,3.5-1.6,1.9-3.5l-4.8-5.6ZM178.9,457.2c-.4-.4-.6-.7-.6-1,0-.4.6-1,.6-1l1,1-1,1Z"/>
          <path class="cls-1" d="M187.6,444c-.3-.5.2-.7.2-.7-1.5.4-2.6-.2-2.6-.2l3.7,6.2c-1,.6-2.5,1.7-3.9,2.8,0,0-.2-1.3-.6-1.9-.6-.9-1.6-1.2-1.6-1.2.6.6,2.2,2.5.7,6.3,0,0,1.5-1.6,7.6-5.5,0,0-3-5.3-3.3-5.9"/>
          <path class="cls-1" d="M240.2,435.8s-.7.7-1.6.5c-2.2-.5-3.3.5-3.6,1.8l-.4,2,2.7.7-1.1,3.8s-.2,1.4-.9,1.3c-.7-.2-.3-1.5-.3-1.5l.5-2.3s-3-.7-3.4-.7c0,0,.5-1.9-.6-3.1-.9-1.3-1.8-1.3-1.8-1.3l.5-3.4s-.7,1.6-2.6,1.6h0s0,0,0,0c.3,0,.8.2.7,1v.7c0,0-1.3-.2-2.4.9-1,1-1.1,2.7-1.1,2.7,0,0-.9,0-1.1,0v-1.3c0-1-1-2.2-2.9-2.3,0,0-2.1.2-2.6-.5,0,0,0,.7-.5,1.1-.5.5-1.2.8-1.2.8,0,0,2.1-.1,2.6,0,1.8.2,3.2-.4,3.2,2.1,0,0-5.7.2-5.7.2v1.6c0,0,5.4-.4,8.1,0v2.1s0,1.9,1.8,2.1c1.9.2,2.2-1.7,2.2-1.7l.3-2c1,.2,3.2.6,4.8,1l-.2,1.4s-.4,1.7,1.1,2.4c.2.2.1.5,0,.7,0,0,.2-.4.5-.5,1.2.2,1.6-.5,2-1.6,0,0,2.9-9.3,3-9.8M227.3,444.2s0,.5-.7.5-.7-.7-.7-.7v-2.1c0,0,1.6.1,1.6.1l-.2,2.1ZM227.7,440.5l-1.5-.2c0-1.1.7-2.2,1.8-2.2l-.3,2.3ZM230.7,441l-1.6-.3.3-2.4c.6.2,1.1.7,1.3,1.1.2.6,0,1.6,0,1.6M236.3,438.7c.1-.5.3-.8.6-1,.5-.2,1.3,0,1.3,0l-.4,1.4-1.4-.5Z"/>
          <path class="cls-1" d="M156.9,493c1.1.5,1.5,1,1.5,1,1.2-1,3-.4,3.1,1,0,1.8-1.4,1.9-1.8,1.9s-1.3,0-3-1.7c-1.9-1.9-2.7-1.3-3.1-.9h0c-.1.1-.2.3-.2.5,0,.5.4.8.9.8.4,0,.8-.5.8-.9,0-.1,0-.2-.1-.4.4,0,.6.2,1.4,1.1,1.7,1.8,2.8,2.2,3.6,2.1,1.2,0,2.8-1.1,2.7-3,0-2.2-2.2-3-3.1-2.9-1.8,0-2.7,1.2-2.7,1.2"/>
          <path class="cls-1" d="M266.5,452.8s.4.3,0,.7c-.6.6-3.6,3.7-3.6,3.7-.3-.2-.8-.7-1.4-1.3,0-.2.1-.5.1-.7,0-.5-.4-1.4-.4-1.4-.3-.4,0-.9,0-.9,0,0-.4.4-1,.2-.3-.2-.6-.2-1-.3-.5,0-.9.1-1.2.4-.4-.3-1.9-1.4-1.9-1.4l4.3-6s-1.2.5-2.6,0c0,0,.4.2.1.7-.3.4-4.5,6.7-4.5,6.7-.2.3-.6.4-.9.2-.3-.2-.4-.6-.2-.9l2.2-3.5c.5-.7.6-2.2-.9-3.1-1.2-.7-6.7-3.5-9.7-4.6l8,1.7c1,.3,1.2.7,1.3.8,0,0,.4-1.3,2.6-1.2l-13-2.8-.8,2.3c2.4.8,6.7,2.8,9.3,4.2,1.1.7,2.5,1.1,1.3,3,0,0-5.2-3.3-10.4-5.3,0,0-1.1-.3-1.2-.9,0,0-.2,1.5-2.4,1.3,0,0,6.3,1.7,13.2,6.2l-.6,1c-.5.8-.4,1.8.2,2.5.3.3,0,.9,0,.9.2-.3.6-.4.8-.4.8.4,1.7.1,2.2-.6l.9-1.2s.3.3.8.7c.2.2.5.4.9.7-.1.3-.2.6-.2.9,0,1.3,1.1,2.4,2.4,2.4s.8,0,1.2-.3c.5.4.8.7.9.7l1.4,1.5,6.4-6.2s-1.2.3-2.6-.5M259.2,456.2c-.5,0-1-.5-1-1s.5-1,1-1,1,.5,1,1c0,.5-.4,1-1,1"/>
          <path class="cls-1" d="M275.8,494.4c.5,0,.9-.5.9-1s-.4-.9-.9-.9-.9.4-.9.9.4,1,.9,1"/>
          <path class="cls-1" d="M282.6,491.1c-.5-.4-1.2-1.2-1.2-1.2,0,0,.4,2,.4,2.5,0,1.1.8,3.2-1.3,3.2h0c-.3-3.9-1.3-8.9-1.3-8.9,0,0,6.9-1.8,6.9-1.8,0,0-1.2-.5-2-1.8,0,0,0,.5-.5.7l-6.4,1.6c.1.5.2.9.4,1.5.5,2.2,1.1,5.5,1.4,10.4h1.6c1.4-.2,3.2-1.3,3-3.4,0,0-.5-1.5.3-2.4,0,0-.5,0-1.3-.5"/>
          <path class="cls-1" d="M273.6,461.1c.5,0,.9-.4.9-.9s-.4-1-.9-1-.9.4-.9.9c0,.5.4,1,.9,1"/>
          <path class="cls-1" d="M275.7,464.1c.5,0,.9-.4.9-.9,0-.5-.4-1-.9-1s-.9.4-.9.9c0,.5.4,1,.9,1"/>
          <path class="cls-1" d="M280.8,480.9c-.5-1.4-1.9-3.1-4-2.2-.2-.6-1.7-3.7-2-4.5.9,0,2.2,1.3,2.2,1.3,0,0,1-.9.7-2.2,0,0,.3-.4.3-.8-.2-1,.3-1.2.3-1.2,0,0-.6.2-1.2-.5-.2-.2-.7-.3-.7-.3-1.4-1.3-2.6-.6-2.6-.6.3,1-.2,2.2-.2,2.2-1.6-2.8-2.6-4.3-2.6-4.3l1.8-1.2,2.9-1.9s-1.3,0-2.4-1c0,0,.2.5-.3.8,0,0-.3.1-.5.3-1.4-1.8-3-2.6-5.7-.4,1.7,2.2,4.2,6.4,5.7,9.1l.9.4-.2.9c2.1,4.3,3.5,8.9,3.5,8.9l5.3-1.6s-.9-.1-1.3-1M275.1,471.1s.9,0,1.4,1.1c.4,1,0,1.7,0,1.7,0,0-.4-.5-1.6-.8,0,0,.3-.7.2-2M269.1,464.9c1-.6,1.7,0,2.2.7l-1.1.8-1.1-1.6ZM277.8,481.7l-.5-1.5c.5-.3.9-.4,1.5,0,.6.3.8,1,.8,1l-1.7.5Z"/>
          <path class="cls-1" d="M175.3,463.5l-6.7-5.7s.4,1.2-.2,2.7c0,0,.2-.4.7,0l4,3.3-1.3,1.6h0c-.2,0-.4,0-.6,0-.7,0-1.2.3-1.6.7-.3.2-.7,0-.7,0,0,0,.3.4.2.7-.1.3-.2.6-.2,1s.2,1,.5,1.4c-.4.7-1.7,2.9-1.7,2.8,0-.6,0-2,0-2-.8-.5-1.9-.2-2.7.5-.4,0-.8.2-1.1.7-.3.2-.8,0-.8,0,0,0,.4.4.3.7-.1.5-.1.8,0,1.1-.1,1.1.2,2.2,1.1,2.6,0,0,.8-.7,1.7-1.1,0,0-1,2.2-1.5,3.6l-6.7-2.5s.8,1,.7,2.5c0,0,0-.4.6-.3.5.2,6.4,2.2,6.4,2.2,0,0,1.6-4.1,2.2-5.4l-.3-1,1-.3c.6-1.3,1.3-2.4,1.8-3.3v-.2c.3,0,.4,0,.6,0,1.3,0,2.3-1,2.4-2.3,0-.5-.2-1-.4-1.3l2-2.8ZM166,473.2c-.5.2-.9.7-.9.7-.3-.7-.2-1.4,0-1.9.2-.4.9-1,1.5-1.1,0,0,0,.6,0,1.1,0,.4.1.9.1.9,0,0-.4.2-.7.3M171.4,468.5c-.5,0-1-.5-1-1s.4-1,1-1,1,.5,1,1c0,.5-.5,1-1,1"/>
          <path class="cls-1" d="M273.6,540.6l-5.3-3.9.4-.5-.9-.7-.4.5-2-1.6-.7.8,2,1.6-.7,1c-.3.4-.9-.2-.9-.2l-3.3-2.7c-.5-.4-.3-.8-.3-.8l1.3-1.7-.9-.7s-1.5,1.9-1.6,2c-.7.8.2,1.5.2,1.5l4.1,3.6c.6.5.9.4,1.2.2-.5.7.3,1.1.3,1.1l3.9,3.5s.8.6,1.5-.3l2.1-2.7ZM271.8,541.4c0,0-.5.7-.5.7-.5.5-1,.2-1,.2l-3-2.6c-.5-.5-.6-.6-.5-.8l.8-1.1,3.7,3c.2.2.7.4.4.7"/>
          <path class="cls-1" d="M276.9,501.6l-3.3-.2c-.6,0-1.1.3-1.1,1.9-.2,1.6.2,1.8,1,1.9l4.6.4s.5.1,1.2-.9l1.2-1.6c.3-.4.8-.3,1.8-.2h2.9c.3.2.7.3.7.7v1c-.1.5-.4.6-.9.5l-3.1-.3v1.2c0,0,4,.4,4,.4.9,0,1.3-.7,1.3-1.3v-2c.2-.9-.4-1.3-1.3-1.3h-4.5c-.7-.1-1.2-.1-1.4.2l-1.3,1.8c-.6.9-1,.6-1,.6h-3.1c-.7-.1-.9-.4-.8-1.1,0-.7.1-.9,1-.8h2.2c0,.1,0-.9,0-.9Z"/>
          <polygon class="cls-1" points="283.8 520.9 282.6 520.5 282.1 521.9 277.2 520.1 277.5 519 276.4 518.7 276 519.6 270.6 517.7 270.9 516.7 269.9 516.3 269.2 518.3 282.9 523.5 283.8 520.9"/>
          <polygon class="cls-1" points="286.8 507.1 285.7 507 285.6 508.6 272.2 506.8 272 507.8 286.4 509.9 286.8 507.1"/>
          <polygon class="cls-1" points="278.9 532.5 266 525.4 265.6 526.3 271.4 531.1 264.4 528.3 263.8 529.2 276 537.3 276.7 536.3 269 531.3 277.5 534.8 270.2 529 278.3 533.5 278.9 532.5"/>
          <path class="cls-1" d="M279.4,515.4l5.6,1.5.3-1.3-6-1.5s-.8,0-1,.4c0-.3-.1-.9-.9-.9l-5.1-1.2s-1.2-.5-1.4.5l-.8,2.7,14,4.5.4-1.3-6.3-1.9.4-1.3c.1-.5.5-.4.8-.3M277,516.7l-5.4-1.6.3-1.1s0-.6.6-.4c.7.2,4.3,1.1,4.3,1.1,0,0,.7.2.6.7l-.4,1.3Z"/>
          <polygon class="cls-1" points="267.4 522.4 280.7 528.8 281.2 527.6 271.3 523.2 281.9 525.9 282.4 524.7 268.8 519.2 268.4 520.1 275.9 523.3 267.8 521.5 267.4 522.4"/>
          <path class="cls-1" d="M286,511.7l.2-1.1-14.7-1.2-.2,1.1,14,4.5.3-1.3-3.3-.9.3-1.4,3.4.3ZM281.4,512.6l-7.3-2.1,7.6.8-.2,1.3Z"/>
          <polygon class="cls-1" points="168.8 506 168.9 507 154.4 508.9 154.3 507.5 168.8 506"/>
          <polygon class="cls-1" points="169.1 507.7 154.6 509.9 154.8 511.1 165 509.4 155.1 513.2 155.3 514.4 169.7 511.2 169.6 510.3 160.5 512.1 169.3 508.7 169.1 507.7"/>
          <polygon class="cls-1" points="154.2 507 161.2 503.6 168.7 505.5 168.6 504.5 162.8 503.1 168.6 502.8 168.5 501.9 153.9 502.3 153.9 503.6 159.6 503.2 154.1 505.7 154.2 507"/>
          <path class="cls-1" d="M162.5,518.4l-.6-2-1.1.3.3.9-2.7.9c-.4,0-.9-.2-1-.6l-.2-.9c-.2-.5.3-.7.8-.7l10.2-2.7c.7-.1,1-.1,1.2.8.2.7-.2,1-.8,1l-3,.9.3,1,3.9-1.2c.8-.2,1.2-.5.7-2.2-.4-1.6-.7-1.8-1.7-1.6l-11.7,2.8c-1,.3-1.4.7-1.2,1.8,0,0,.3,1.8,1.4,1.7l-.8.2.4,1.3,5.6-1.8Z"/>
          <path class="cls-1" d="M253.1,540.8l7.7,9.7c.4.6.5.9.2,1.2l-.7.6c-.5.3-.8,0-1.2-.5l-7.4-10-.8.6,7.8,11c.4.7,1.1.7,1.6.4l1.9-1.5c.5-.5.9-.8.4-1.6l-8.7-10.5-.7.6Z"/>
          <path class="cls-1" d="M219.9,553.3c0-.7-.1-1.3-1.8-1.3-1.6-.1-2,.3-2,1.1l-1.2,12.2c0,.9.7,1.3,1.6,1.3h1.8c.9.1,1.4-.2,1.4-1.1l.2-12.1ZM217.7,565.6h-.9c-.5,0-.6-.6-.6-1l.8-10.5c0-.7.2-1,1.1-.9.8,0,.9.3.8,1l-.4,10.7c0,.5-.4.7-.9.7"/>
          <path class="cls-1" d="M246.2,546.9c-.4-.7-.8-1-2.3-.3-1.5.7-1.6,1.3-1.2,2l5,11.2c.4.8,1.2.7,2,.4l1.6-.8c.8-.5,1-.9.6-1.7l-5.7-10.7ZM250.2,558.6l-.9.4c-.4.2-.7-.2-.9-.6l-4.6-9.5c-.3-.7-.3-.9.5-1.3.7-.3.9-.2,1.2.5l4.8,9.5c.2.4.2.9-.2,1.1"/>
          <polygon class="cls-1" points="223.1 560.2 223.1 558.9 222.1 559 222 553.3 223.2 553.3 223.2 552.1 221 552.2 221 566.8 222.2 566.8 222.1 560.3 223.1 560.2"/>
          <path class="cls-1" d="M232.1,557.7l-1.1-5.6s-.2-1-1.1-.8l-2.8.5,1.7,14.4,1.4-.2-.9-6.5,2.2-.5s1,0,.7-1.4M230.4,558l-1.4.3-.7-5.7h.9c.5-.3.8-.1.8.1l.8,4.5s.1.7-.4.7"/>
          <polygon class="cls-1" points="237.4 564.6 237.1 563.5 235.6 563.9 234.4 558.6 235.4 558.3 235.1 557.2 234.1 557.4 232.8 551.8 234 551.5 233.7 550.4 231.6 551 234.6 565.3 237.4 564.6"/>
          <polygon class="cls-1" points="258.7 554.8 258.1 553.9 256.8 554.8 253.7 550.3 254.6 549.6 254 548.7 253.1 549.3 249.8 544.4 251 543.6 250.4 542.7 248.4 544.1 256.3 556.6 258.7 554.8"/>
          <polygon class="cls-1" points="255.9 556.8 255.3 555.7 253.9 556.6 247.1 544.9 246.3 545.4 253.4 558.2 255.9 556.8"/>
          <polygon class="cls-1" points="240.8 563.6 236.7 550.7 237.7 550.4 237.4 549.4 234.3 550.3 234.6 551.4 235.7 551 239.5 564 240.8 563.6"/>
          <polygon class="cls-1" points="268.2 546.7 257.8 536.4 257 537.1 261.3 543.5 255.4 538.8 254.6 539.6 264.1 550.7 265.1 549.8 259 542.9 266.2 548.8 260.8 541 267.3 547.6 268.2 546.7"/>
          <path class="cls-1" d="M243.7,556.4l2.2,5.4,1.2-.5-2.6-6s-.4-.3-.8-.2c.2-.2.6-.6.2-1.3l-2-4.8s-.4-1.3-1.3-.8l-2.7,1,4.8,13.9,1.3-.5-2.3-6.3,1.3-.4c.4-.2.6,0,.7.4M241.3,555.3l-2-5.3,1-.5s.5-.4.7.3c.2.6,1.7,4.2,1.7,4.2,0,0,.3.6-.2.7l-1.2.5Z"/>
          <path class="cls-1" d="M200,552.6l1.3-3c.2-.6.1-1.1-1.4-1.7-1.4-.7-1.7-.4-2.1.4l-2,4.1s-.3.5.4,1.5l1.1,1.6c.3.6,0,.8-.1,1.3l-1.4,3.3c-.1.3-.4.6-.8.4l-.9-.5c-.4-.1-.3-.4-.1-1l1.3-2.7-1.1-.5-1.8,3.7c-.3.8.2,1.4.7,1.6l1.8.8c.8.4,1.5,0,1.8-.7l1.7-4.3c.3-.7.4-1.1,0-1.7l-1.1-1.6c-.7-1-.3-1.2-.3-1.2l1.2-2.8c.3-.7.6-.7,1.2-.5.7.3.8.5.5,1.3l-.9,2,.9.4Z"/>
          <path class="cls-1" d="M182.5,535.5l-9.3,8.6c-.5.5-.8.6-1.1.3l-.7-.9c-.3-.3-.2-.6.2-1l9.6-8.3-.6-.7-10.4,8.6c-.6.5-.6,1.1-.1,1.6l1.3,1.5c.6.7,1.1.9,1.8.3l9.8-9.3-.6-.7Z"/>
          <polygon class="cls-1" points="185.7 557.1 186.2 556.1 184.8 555.2 187.9 550.7 188.7 551.2 189.4 550.2 188.6 549.6 191.8 544.9 192.9 545.6 193.5 544.6 191.6 543.4 183.2 555.4 185.7 557.1"/>
          <polygon class="cls-1" points="202.6 564.4 206.3 551.3 207.6 551.6 207.9 550.6 204.4 549.6 204.1 550.7 205.3 551.1 201.4 564.1 202.6 564.4"/>
          <path class="cls-1" d="M192.1,554.4l-2.5,4.8,1.2.6,2.7-5.3c.5-.9,0-1.2-.2-1.3.3,0,.8.1,1.1-.5.7-1.2,2.5-4.8,2.5-4.8,0,0,.6-1-.3-1.5l-2.4-1.3-7.5,12.6,1.1.7,3.3-5.7.8.5c.7.4.4,1,.2,1.3M191.7,551.5l2.8-4.9,1,.5c.5.3.1.7,0,1l-2,3.8s-.2.5-.7.3l-1.1-.7Z"/>
          <polygon class="cls-1" points="202.9 549 203.7 549.3 199.1 563.3 197.8 562.9 202.9 549"/>
          <polygon class="cls-1" points="187.1 540 187.8 540.6 178.6 551.9 177.7 551.2 187.1 540"/>
          <polygon class="cls-1" points="183.8 536.9 173.4 547.2 174.3 548.1 181.3 540.8 175.7 549.3 176.6 550.2 186.2 539.3 185.5 538.5 180 544.6 184.4 537.6 183.8 536.9"/>
          <polygon class="cls-1" points="212.1 551.4 211 551.3 209.3 556.8 209.6 551 208.4 550.7 208.2 559 206.8 565.4 208.1 565.6 209.3 559.2 212.1 551.4"/>
          <polygon class="cls-1" points="188.2 540.9 180.5 553.4 181.3 554.1 191.1 543.1 190.3 542.4 183.4 550.4 189.1 541.6 188.2 540.9"/>
          <path class="cls-1" d="M160.6,529.2l.5,1,12.5-7.7-.5-1-13.9,4.6.5,1.2,3.2-1.3.6,1.3-3,1.8ZM163.8,525.7l7.2-2.6-6.6,3.7-.5-1.1Z"/>
          <polygon class="cls-1" points="163 533.8 163.6 534.8 176.2 527.2 175.6 526.4 169.5 530 168.7 528.4 174.9 525.1 174.5 524.3 161.4 530.9 162 532.1 167.7 528.9 168.6 530.5 163 533.8"/>
          <path class="cls-1" d="M177.7,531.8s1.1-.5.3-1.6c-.8-1.3-1.3-2-1.3-2l-12.4,7.9,1.9,2.8s.7,1,1.7.2c1-.8,9.8-7.2,9.8-7.2M166.6,537.2l-.6-.8,10.6-7.1s.4.7.7,1c.3.5-.4.7-.6.9-.1.2-8,5.6-9,6.3-.5.3-.7.2-1.1-.4"/>
          <polygon class="cls-1" points="164.8 522.5 165.2 523.5 166.3 523.1 165.9 522 171.1 519.9 171.8 521.4 172.8 520.9 171.9 518.6 158.2 523.7 158.6 524.9 164.8 522.5"/>
          <polygon class="cls-1" points="217.3 474.8 215.6 475.7 216.2 479.6 217.7 479.2 217.3 474.8"/>
          <polygon class="cls-1" points="217.8 479.9 216.3 480.4 216.6 483.8 217.9 483.6 217.8 479.9"/>
          <polygon class="cls-1" points="217.9 473.7 217.2 467.9 220.6 467.4 220.6 473.6 217.9 473.7"/>
          <polygon class="cls-1" points="214.3 469.6 215.5 474.9 217.3 474 216.5 468.2 214.3 469.6"/>
          <polygon class="cls-1" points="218 474.4 218.4 478.9 220.6 478.9 220.6 474.3 218 474.4"/>
          <polygon class="cls-1" points="218.5 479.7 218.6 483.6 220.6 483.6 220.6 479.7 218.5 479.7"/>
          <polygon class="cls-1" points="224.5 474.8 226.2 475.7 225.6 479.6 224.1 479.2 224.5 474.8"/>
          <polygon class="cls-1" points="224.1 479.9 225.6 480.4 225.2 483.8 223.9 483.6 224.1 479.9"/>
          <polygon class="cls-1" points="223.9 473.7 224.7 467.9 221.2 467.4 221.2 473.6 223.9 473.7"/>
          <polygon class="cls-1" points="227.5 469.6 226.3 474.9 224.5 474 225.3 468.2 227.5 469.6"/>
          <polygon class="cls-1" points="223.8 474.4 223.5 478.9 221.3 478.9 221.3 474.3 223.8 474.4"/>
          <polygon class="cls-1" points="223.4 479.7 223.3 483.6 221.2 483.6 221.2 479.7 223.4 479.7"/>
          <path class="cls-1" d="M217.4,520.8l-1.2,1.1h9.4l-1.2-1.1h0v-.3c0-1.7.5-2.3.8-2.6v-33.5h-1.3c0,0,0,36.4,0,36.4h-1.3v-.6c0-1.3.3-2.1.7-2.4v-33.5h-2v33.4c.4.4.8,1.1.8,2.6v.5h-2.2v-.5c0-1.5.4-2.2.8-2.6v-33.4h-2v33.5c.3.4.7,1.1.7,2.4v.6h-1.4v-36.5h-1.2v33.6c.3.3.7.9.7,2.6v.3h0Z"/>
          <path class="cls-1" d="M230.1,515.8s-.2.2-.6.9c0,0,1.9,1.4,1.8,4.8,0,0,.9-3.6-1.2-5.7"/>
          <path class="cls-1" d="M236.8,515.8c0,.2,0,.6-.8.6s-.8-.7-.8-.7c-.2.5-.5.7-1,.7-.5,0-.7-.5-.9-.6l-.2.2c0,.1-.2.2-.4.6,0,0,1.8,1.5,1.8,4.9,0,0,.6-2.3-.2-4.3.9,0,.9-.7.9-.7,0,0,0,.6.9.6s.7-1,.7-1.3"/>
          <path class="cls-1" d="M245.7,515.8c0,.2-.1.6-.8.6s-.8-.7-.8-.7c-.2.5-.5.7-.9.7s-.7-.5-.9-.7l-.2.3c-.1.1-.2.2-.4.6,0,0,1.8,1.4,1.8,4.8,0,0,.6-2.2-.2-4.2.9,0,.9-.7.9-.7,0,0,0,.6.9.6s.7-.9.7-1.3"/>
          <path class="cls-1" d="M245.7,515.8s0,0,0,0c0,0,0,0,0,0"/>
          <path class="cls-1" d="M239.3,515.8s-.1,2.5-1.9,4.7l.5,1s1.5-1.8,1.5-4.2c0,0,.3,2.8,1.9,4.2l.3-1c-1.8-1.9-2.2-4.7-2.2-4.7"/>
          <path class="cls-1" d="M199.8,518.4c-.1-.2-.2-.4-.2-.7,0-.4.1-.7.3-.9.1-.2.3-.2.5-.2.3,0,.5,0,.6.3.2.2.2.5.2.7s-.1.7-.4.9c-.2,0-.3,0-.5,0-.3,0-.5,0-.7-.2M199,519.1c.4.4.8.5,1.2.5s.6,0,.8-.2c.1,0,.2-.2.3-.3,0,.5,0,.8-.2,1-.1.4-.4.6-.8.6s-.3,0-.5-.2c-.1,0-.2-.2-.2-.4h-1.1c0,.5.2.9.6,1.1.4.3.7.5,1.2.5.9,0,1.5-.5,1.9-1.3.2-.5.3-1,.3-1.8s0-1.3-.3-1.7c-.3-.8-.9-1.2-1.8-1.2s-1,.2-1.4.6c-.4.4-.5.9-.5,1.5s.2,1,.5,1.3"/>
          <path class="cls-1" d="M208.3,519.7h1.1c0,.2,0,.5.1.6.1.2.4.4.8.4s.4,0,.6-.2c.2-.2.3-.4.3-.7s-.2-.6-.5-.7c-.2,0-.5,0-.8,0v-.8c.4,0,.6,0,.8-.2.3,0,.4-.3.4-.7s0-.4-.2-.5c-.1-.2-.3-.2-.6-.2s-.5,0-.6.2c-.1.2-.2.4-.2.7h-1.1c0-.3,0-.6.1-.8,0-.2.2-.5.4-.7.1-.2.3-.2.5-.3s.4,0,.7,0c.5,0,1,0,1.3.4.3.3.5.7.5,1.2s-.1.6-.3.8c-.1.1-.3.3-.4.3,0,0,.2.1.5.3.3.3.4.7.4,1.1s-.2.9-.5,1.3c-.3.4-.8.6-1.5.6s-1.4-.3-1.7-.8c-.2-.3-.3-.7-.3-1.1"/>
          <path class="cls-1" d="M204.9,518.8c.1-.2.3-.2.5-.2.3,0,.5.2.6.3.2.2.2.5.2.7s0,.6-.2.7c-.2.2-.3.3-.6.3s-.5,0-.6-.3c-.2-.1-.3-.4-.3-.7s.1-.7.3-.8M206.7,516.1c-.3-.3-.8-.5-1.3-.5s-.7,0-1,.2c-.3.2-.5.5-.7.7s-.3.7-.4,1.2c0,.3,0,.7,0,1.1,0,.7.1,1.3.4,1.8.3.7.9,1,1.6,1s1.2-.2,1.5-.7c.3-.4.5-.9.5-1.4s-.2-1-.5-1.3c-.3-.4-.8-.5-1.3-.5s-.5,0-.7.1c-.2,0-.3.1-.5.4,0-.4,0-.8.2-1,.2-.5.4-.6.8-.6s.4,0,.6.2c0,.1.1.2.1.3h1.1c0-.4-.2-.8-.5-1"/>
          <path class="cls-1" d="M197.8,520.6h-.7v-4.8h-.9c0,0,0,.2,0,.2,0,.2-.1.3-.2.4-.1.2-.3.2-.6.3h-.2v.8h.9v3h-.8v1h2.7v-1Z"/>
          <path class="cls-1" d="M240.9,537.1l-6.4-1.6,5.4-.4-4.3-8.9c-4.8,1.4-8.9-1.5-10.4-1.7-1.9-.3-2.9.5-4.4,1.6-1.3-1.4-3.1-2.2-4.9-1.6-3.3.7-5.3,2.7-10.1,1.6l-4.2,8.7,5.5.9-6.5,1-1.5,3.1,19.2-2.5c.5.7,1.4,1.5,2.4,1.4.8-.2,1.6-.6,2-1.4l19.7,2.6-1.6-2.7ZM220.6,537.1c-.8,0-1.1-.9-1.1-1,0-.8.9-3.3,1.1-4.5.2,1.2,1.2,3.7,1,4.5,0,0-.3.9-1,1"/>
        </g>
      </g>
    </g>
  </g>
</svg>