<svg width="44" height="42" viewBox="0 0 44 42" fill="none" xmlns="http://www.w3.org/2000/svg">
<path d="M42.3157 19.7669C40.8132 19.3646 39.2982 20.1504 38.7911 21.592L37.075 26.4619L35.0738 27.7297L35.2183 27.5138C35.8156 26.6128 35.5872 25.454 34.6882 24.8191C33.9569 24.3015 32.7415 24.1716 31.5303 25.3534L26.7967 29.9718C26.7799 29.9886 26.7632 30.0054 26.7485 30.0242C25.9019 31.0678 25.4137 32.1972 25.1161 33.7982L24.8416 35.2755L24.8165 35.2692C24.3177 35.1309 23.8002 35.4243 23.6598 35.9314L23.0228 38.3118C22.9557 38.5549 22.9892 38.8085 23.115 39.0285C23.2407 39.2464 23.444 39.4035 23.6849 39.4664L32.1843 41.7442C32.266 41.7672 32.3498 41.7777 32.4315 41.7777C32.5929 41.7777 32.7542 41.7358 32.8988 41.652C33.1147 41.5284 33.2697 41.3272 33.3368 41.082L33.9738 38.7016C34.0409 38.4585 34.0073 38.2049 33.8816 37.9849C33.7559 37.767 33.5526 37.6098 33.3116 37.547L33.1566 37.5051L33.1817 37.2997C33.5882 36.9477 33.9738 36.6145 34.3489 36.2918C36.8781 34.1188 38.7033 32.5472 40.8366 29.5568C40.8785 29.4981 40.91 29.4311 40.9288 29.3619L43.1374 21.1185C43.2925 20.5359 42.9237 19.9324 42.316 19.769L42.3157 19.7669ZM32.2387 40.5014L24.2613 38.364L24.7579 36.5053L32.7353 38.6427L32.2387 40.5014ZM39.7864 28.9384C37.7664 31.7526 35.9978 33.2739 33.5589 35.3693C33.1272 35.7402 32.683 36.1236 32.2094 36.5364C32.0962 36.6349 32.0229 36.7732 32.0061 36.922L31.9747 37.1839L26.0154 35.5872L26.3088 34.0177C26.5644 32.6409 26.973 31.6791 27.6708 30.8116L32.3772 26.2183C32.964 25.6462 33.5507 25.4953 33.9907 25.8055C34.2883 26.015 34.4832 26.43 34.2108 26.8407L31.5369 30.8598C31.3525 31.1385 31.428 31.5136 31.7067 31.7001C31.9854 31.8845 32.3605 31.809 32.5469 31.5303L33.4312 30.2018L37.905 27.3708C38.0203 27.2975 38.1083 27.1885 38.1523 27.0607L39.9376 21.9918C40.2247 21.1746 41.0775 20.7219 41.9409 20.9168L39.7909 28.936L39.7864 28.9384ZM4.64101 21.5919C4.13391 20.1502 2.6189 19.3644 1.11853 19.7667C0.510853 19.9302 0.142051 20.5337 0.297136 21.1162L2.50367 29.3575C2.52253 29.4267 2.55396 29.4937 2.59588 29.5524C4.7249 32.5384 6.54793 34.1059 9.0707 36.2745C9.44998 36.6014 9.84183 36.9367 10.2525 37.295L10.2777 37.5004L10.1289 37.5402C9.88373 37.603 9.68047 37.7602 9.55475 37.9781C9.42902 38.194 9.39549 38.4454 9.46045 38.6927L10.0996 41.0731C10.1645 41.3162 10.3196 41.5194 10.5375 41.6452C10.6821 41.729 10.8414 41.7709 11.0048 41.7709C11.0865 41.7709 11.1704 41.7604 11.2521 41.7374L19.7471 39.4617C19.9923 39.3988 20.1956 39.2417 20.3213 39.0237C20.447 38.8079 20.4805 38.5564 20.4156 38.3092L19.7765 35.9287C19.7115 35.6857 19.5564 35.4824 19.3385 35.3567C19.1206 35.231 18.8649 35.1974 18.6261 35.2645L18.5967 35.2729L18.3222 33.7956C18.0226 32.1883 17.5343 31.0589 16.6877 30.0195C16.6731 30.0007 16.6563 29.9839 16.6416 29.9671L11.908 25.3487C10.6947 24.1648 9.48146 24.2968 8.75223 24.8144C7.84908 25.4493 7.62066 26.6081 8.21998 27.5112L8.36247 27.727L6.36128 26.4593L4.64301 21.5894L4.64101 21.5919ZM19.1732 38.362L11.1958 40.4994L10.697 38.6408L18.6744 36.5034L19.1732 38.362ZM10.0033 30.2023L10.8875 31.5329C11.0719 31.8116 11.4491 31.887 11.7278 31.7026C12.0065 31.5182 12.0819 31.141 11.8975 30.8624L10.9609 29.4521C10.9504 29.4333 10.9378 29.4165 10.9252 29.3976L9.22789 26.8412C8.95338 26.4284 9.14826 26.0155 9.44792 25.8039C9.88587 25.4938 10.4726 25.6447 11.0593 26.2167L15.7657 30.81C16.4719 31.6859 16.8659 32.6184 17.1257 34.0161L17.4191 35.5856L11.4598 37.1824L11.4283 36.9183C11.4116 36.7695 11.3382 36.6312 11.2251 36.5328C10.7473 36.1158 10.2968 35.7281 9.86091 35.353C7.42805 33.2618 5.6637 31.7425 3.64572 28.9345L1.49787 20.9153C2.35912 20.7204 3.20986 21.1709 3.49906 21.9903L5.28647 27.0592C5.33257 27.187 5.41849 27.296 5.53374 27.3693L10.0034 30.1982L10.0033 30.2023ZM34.1892 0.890673H23.911C23.0225 0.890673 22.2283 1.30767 21.7149 1.95518C21.2015 1.3077 20.4073 0.890673 19.5188 0.890673H9.24066C8.90538 0.890673 8.63507 1.16099 8.63507 1.49626V2.93794H7.04463C6.70936 2.93794 6.43905 3.20826 6.43905 3.54353V22.1113C6.43905 22.4466 6.70936 22.7169 7.04463 22.7169H15.8771L15.9274 22.8405L15.4643 24.0915C15.3826 24.3136 15.4371 24.563 15.6047 24.7306L16.8997 26.0235C17.0674 26.1912 17.3146 26.2436 17.5367 26.1639L18.7877 25.7029L19.6867 26.0759L20.2462 27.2871C20.3447 27.5008 20.5605 27.6391 20.7952 27.6391H22.6246C22.8613 27.6391 23.0751 27.5008 23.1735 27.2871L23.731 26.078L24.6299 25.705L25.8851 26.166C26.1051 26.2478 26.3545 26.1933 26.5221 26.0256L27.815 24.7327C27.9827 24.5651 28.0372 24.3178 27.9554 24.0957L27.4944 22.8426L27.5447 22.719H36.3772C36.7125 22.719 36.9828 22.4487 36.9828 22.1134L36.9891 3.54348C36.9891 3.2103 36.7188 2.93789 36.3835 2.93789H34.793V1.49621C34.793 1.16303 34.5227 0.890625 34.1875 0.890625L34.1892 0.890673ZM29.0846 18.4526L28.8101 18.3248H33.5836V19.3118H29.4366V19.0037C29.4366 18.7669 29.2983 18.5532 29.0846 18.4547L29.0846 18.4526ZM23.9109 2.10195H33.5835V17.1158H27.5528L27.5025 16.9943L27.9635 15.7412C28.0453 15.5191 27.9908 15.2718 27.8231 15.1042L26.5302 13.8092C26.3626 13.6415 26.1132 13.5871 25.8911 13.6688L24.638 14.1319L23.7391 13.7589L23.1817 12.5477C23.0832 12.334 22.8673 12.1957 22.6327 12.1957H22.3246V3.69043C22.3246 2.81453 23.0371 2.09999 23.9151 2.09999L23.9109 2.10195ZM19.5188 2.10195C20.3968 2.10195 21.1114 2.8144 21.1114 3.69239V12.1976H20.8034C20.5666 12.1976 20.3529 12.3359 20.2544 12.5497L19.6928 13.7629L18.7938 14.1359L17.5429 13.6728C17.3207 13.5911 17.0714 13.6456 16.9058 13.8132L15.6108 15.1083C15.4432 15.2759 15.3887 15.5252 15.4704 15.7453L15.9335 16.9963L15.8832 17.1178H9.85042L9.84833 2.10177H19.5209L19.5188 2.10195ZM14.3472 18.4526C14.1335 18.5511 13.9952 18.767 13.9952 19.0016V19.3097H9.84826V18.3227H14.6217L14.3472 18.4505L14.3472 18.4526ZM7.65247 4.14901H8.63732V19.9176C8.63732 20.2529 8.90764 20.5232 9.24291 20.5232H13.9954V20.8313C13.9954 21.0681 14.1337 21.2818 14.3475 21.3803L14.6178 21.506H7.65481L7.65247 4.14901ZM26.8447 21.2604L26.2936 22.5973C26.2349 22.7377 26.2328 22.8948 26.2852 23.0373L26.6938 24.1479L25.9479 24.8939L24.8352 24.4853C24.6927 24.4329 24.5355 24.435 24.3951 24.4936L23.0582 25.0468C22.9178 25.1055 22.8047 25.2145 22.7397 25.3528L22.2452 26.4256H21.1912L20.6945 25.3528C20.6317 25.2145 20.5185 25.1055 20.376 25.0468L19.0391 24.4936C18.8987 24.435 18.7416 24.4329 18.5991 24.4853L17.4885 24.8939L16.7425 24.1479L17.1532 23.0373C17.2056 22.8948 17.2035 22.7356 17.1448 22.5952L16.5917 21.2583C16.533 21.1179 16.424 21.0047 16.2857 20.9397L15.2108 20.4431V19.387L16.2857 18.8904C16.424 18.8275 16.533 18.7143 16.5917 18.5718L17.1448 17.2349C17.2035 17.0945 17.2056 16.9353 17.1532 16.7928L16.7425 15.6822L17.4885 14.9362L18.5991 15.3469C18.7416 15.3993 18.9008 15.3972 19.0412 15.3385L20.3781 14.7854C20.5185 14.7267 20.6317 14.6177 20.6966 14.4794L21.1933 13.4045H22.2473L22.7418 14.4794C22.8047 14.6177 22.9199 14.7267 23.0603 14.7854L24.3972 15.3385C24.5376 15.3972 24.6969 15.3993 24.8394 15.3469L25.952 14.9362L26.698 15.6822L26.2894 16.7928C26.237 16.9353 26.2391 17.0924 26.2978 17.2328L26.8489 18.5697C26.9075 18.7101 27.0165 18.8254 27.1548 18.8883L28.2298 19.3849V20.441L27.1548 20.9377C27.0165 21.0005 26.9075 21.1158 26.8489 21.2562L26.8447 21.2604ZM35.7796 4.14901V21.5055H28.8166L29.0869 21.3798C29.3007 21.2813 29.439 21.0655 29.439 20.8308V20.5228H34.1915C34.5268 20.5228 34.7971 20.2524 34.7971 19.9172V4.14852H35.782L35.7796 4.14901ZM11.5202 7.49339C11.5202 7.16021 11.7905 6.8878 12.1258 6.8878H18.5963C18.9316 6.8878 19.2019 7.15812 19.2019 7.49339C19.2019 7.82865 18.9316 8.09897 18.5963 8.09897H12.1258C11.7905 8.09897 11.5202 7.82865 11.5202 7.49339ZM11.5202 9.88639C11.5202 9.55321 11.7905 9.2808 12.1258 9.2808H18.5963C18.9316 9.2808 19.2019 9.55112 19.2019 9.88639C19.2019 10.2217 18.9316 10.492 18.5963 10.492H12.1258C11.7905 10.492 11.5202 10.2217 11.5202 9.88639ZM11.5202 12.2815C11.5202 11.9483 11.7905 11.6759 12.1258 11.6759H18.5963C18.9316 11.6759 19.2019 11.9462 19.2019 12.2815C19.2019 12.6168 18.9316 12.8871 18.5963 12.8871H12.1258C11.7905 12.8871 11.5202 12.6168 11.5202 12.2815ZM11.5202 14.6745C11.5202 14.3392 11.7905 14.0689 12.1258 14.0689H14.2317C14.567 14.0689 14.8373 14.3392 14.8373 14.6745C14.8373 15.0098 14.567 15.2801 14.2317 15.2801H12.1258C11.7905 15.2801 11.5202 15.0098 11.5202 14.6745ZM24.1099 12.2815C24.1099 11.9483 24.3802 11.6759 24.7155 11.6759H31.186C31.5213 11.6759 31.7916 11.9462 31.7916 12.2815C31.7916 12.6168 31.5213 12.8871 31.186 12.8871H24.7155C24.3802 12.8871 24.1099 12.6168 24.1099 12.2815ZM24.1099 7.49333C24.1099 7.16015 24.3802 6.88775 24.7155 6.88775H31.186C31.5213 6.88775 31.7916 7.15806 31.7916 7.49333C31.7916 7.8286 31.5213 8.09892 31.186 8.09892H24.7155C24.3802 8.09892 24.1099 7.8286 24.1099 7.49333ZM24.1099 9.88634C24.1099 9.55316 24.3802 9.28075 24.7155 9.28075H31.186C31.5213 9.28075 31.7916 9.55107 31.7916 9.88634C31.7916 10.2216 31.5213 10.4919 31.186 10.4919H24.7155C24.3802 10.4919 24.1099 10.2216 24.1099 9.88634ZM11.5202 5.10028C11.5202 4.7671 11.7905 4.49469 12.1258 4.49469H18.5963C18.9316 4.49469 19.2019 4.76501 19.2019 5.10028C19.2019 5.43554 18.9316 5.70586 18.5963 5.70586H12.1258C11.7905 5.70586 11.5202 5.43554 11.5202 5.10028ZM24.1099 5.10028C24.1099 4.7671 24.3802 4.49469 24.7155 4.49469H31.186C31.5213 4.49469 31.7916 4.76501 31.7916 5.10028C31.7916 5.43554 31.5213 5.70586 31.186 5.70586H24.7155C24.3802 5.70586 24.1099 5.43554 24.1099 5.10028ZM21.7169 16.4202C19.787 16.4202 18.2175 17.9897 18.2175 19.9175C18.2175 21.8453 19.787 23.4149 21.7169 23.4149C23.6468 23.4149 25.2142 21.8453 25.2142 19.9175C25.2142 17.9897 23.6447 16.4202 21.7169 16.4202ZM21.7169 22.2014C20.4554 22.2014 19.4287 21.1767 19.4287 19.9153C19.4287 18.6539 20.4555 17.6291 21.7169 17.6291C22.9783 17.6291 24.003 18.6539 24.003 19.9153C24.003 21.1767 22.9783 22.2014 21.7169 22.2014ZM31.7939 14.6746C31.7939 15.0099 31.5236 15.2802 31.1883 15.2802H29.0845C28.7492 15.2802 28.4789 15.0099 28.4789 14.6746C28.4789 14.3394 28.7492 14.0691 29.0845 14.0691H31.1883C31.5236 14.0691 31.7939 14.3394 31.7939 14.6746Z" fill="white"/>
</svg>
