<svg width="950" height="550" viewBox="0 0 950 550" fill="none" xmlns="http://www.w3.org/2000/svg">
<mask id="mask0_266_18808" style="mask-type:luminance" maskUnits="userSpaceOnUse" x="-1" y="-411" width="1317" height="1341">
<path d="M-0.0771484 579.468L950.799 -410.745L1315.2 -60.8226L364.321 929.391L-0.0771484 579.468Z" fill="white"/>
</mask>
<g mask="url(#mask0_266_18808)">
<mask id="mask1_266_18808" style="mask-type:luminance" maskUnits="userSpaceOnUse" x="-17" y="-190" width="1376" height="925">
<path d="M1358.58 244.448L161.994 734.943L-16.0774 300.515L1180.51 -189.98L1358.58 244.448Z" fill="white"/>
</mask>
<g mask="url(#mask1_266_18808)">
<mask id="mask2_266_18808" style="mask-type:luminance" maskUnits="userSpaceOnUse" x="-17" y="-190" width="1376" height="925">
<path d="M1358.58 244.448L161.994 734.943L-16.0774 300.515L1180.51 -189.98L1358.58 244.448Z" fill="white"/>
</mask>
<g mask="url(#mask2_266_18808)">
<mask id="mask3_266_18808" style="mask-type:luminance" maskUnits="userSpaceOnUse" x="110" y="-190" width="1106" height="925">
<path d="M1213.98 -103.314L1215.59 -103.296C1219.14 -7.99299 1170.04 96.5896 1084.55 176.25C1018.03 238.353 930.657 286.234 810.01 326.808C761.368 343.107 711.187 357.292 662.571 370.859C611.723 385.098 559.035 399.871 508.141 417.317C449.4 437.299 374.347 466.917 314.117 518.242C249.766 572.847 209.485 647.87 170.362 720.138C167.938 724.769 165.313 729.485 162.698 734.21L161.246 733.431C163.871 728.715 166.285 724.074 168.91 719.358C208.149 646.825 248.43 571.802 312.887 516.922C373.243 465.321 448.571 435.809 507.418 415.552C558.312 398.105 610.99 383.343 661.848 369.094C710.464 355.547 760.655 341.351 809.096 325.138C929.552 284.638 1016.53 236.927 1083.12 175.015C1168.71 95.5445 1217.58 -8.48711 1213.98 -103.314ZM1202.69 -43.1395C1196.48 -22.1586 1188.44 -1.78788 1178.48 17.7722C1149.68 75.8033 1112.33 127.99 1070.48 168.586C1003.7 232.838 912.915 284.621 800.538 322.034C792.51 324.655 784.471 327.265 776.158 329.75C737.773 341.623 698.23 351.233 659.85 360.355C629.171 367.693 597.71 375.349 566.918 384.105C541.638 391.293 519.394 398.125 499.351 404.752C454.104 419.889 418.404 434.974 386.583 452.337C358.24 467.607 331.608 486.484 307.427 508.011C282.497 530.524 258.995 558.136 236.007 592.605C215.496 623.09 196.961 656.184 179.079 688.102C172.235 700.246 165.245 712.667 158.2 724.895L159.652 725.655C166.707 713.436 173.676 701.016 180.54 688.872C216.104 625.121 253.135 559.408 308.562 509.141C332.553 487.688 359.068 469.077 387.422 453.817C419.032 436.529 454.732 421.444 499.798 406.391C520.032 399.69 542.075 392.922 567.366 385.744C598.148 376.999 629.619 369.332 660.298 361.995C698.678 352.873 738.411 343.188 776.796 331.315C784.919 328.905 793.148 326.199 801.186 323.589C913.679 285.91 1004.73 234.243 1071.61 169.716C1113.68 129.025 1151.22 76.7634 1179.93 18.5518C1189.9 -1.01852 1198.05 -21.6645 1204.26 -42.6453C1210.68 -64.1767 1213.66 -86.3361 1213.36 -108.753L1211.75 -108.771C1212.17 -86.6396 1208.99 -64.3952 1202.69 -43.1395ZM1197.08 -49.0436C1189.05 -27.5303 1178.65 -8.47704 1168.47 8.91285C1141.14 56.0822 1103.78 116.006 1057.43 162.327C990.061 229.554 898.052 283.89 791.407 319.175C783.369 321.786 775.341 324.406 767.218 326.816C730.113 337.935 691.37 345.618 653.96 353.213C622.412 359.536 589.805 366.073 558.272 374.672C533.223 381.309 511.095 387.876 490.65 394.652C446.302 409.184 409.703 424.875 378.719 442.585C350.81 458.352 325.005 477.586 301.715 499.651C253.401 545.627 220.028 604.166 187.731 660.882C177.291 679.269 166.23 698.386 155.114 716.816L156.375 717.671C167.681 699.145 178.553 680.123 188.992 661.737C221.374 605.201 254.557 546.757 302.659 500.856C325.749 478.875 351.65 459.832 379.358 444.15C410.342 426.439 446.94 410.749 491.098 396.292C511.532 389.506 533.545 383.224 558.519 376.396C589.862 367.872 622.468 361.335 654.017 355.012C691.427 347.417 730.169 339.734 767.275 328.615C775.388 326.195 783.426 323.585 791.464 320.974C898.5 285.53 990.699 231.119 1058.27 163.807C1104.81 117.411 1142.09 57.2765 1169.43 10.1073C1179.52 -7.463 1189.91 -26.5261 1197.95 -48.0296C1206.82 -71.9267 1210.98 -93.4324 1210.61 -113.774L1209.01 -113.802C1209.88 -93.8954 1205.84 -72.6552 1197.08 -49.0436ZM1191.28 -54.8528C1181.98 -35.3364 1169.96 -17.4339 1158.46 0.0334059C1152.09 9.47754 1145.99 19.0274 1139.19 29.1073C1110.3 73.0412 1080.72 118.628 1044.39 156.068C975.608 227.056 884.936 282.437 782.383 316.041C774.355 318.661 766.232 321.071 758.119 323.491C721.902 334.015 683.462 340.205 646.472 346.042C614.445 351.192 581.55 356.48 549.857 364.688C525.114 370.965 503.017 377.066 482.307 383.726C438.191 397.728 401.667 413.609 371.012 432.091C343.528 448.365 318.348 468.021 295.969 490.625C253.967 533.105 223.587 585.636 194.378 636.535C180.881 660.273 166.772 684.731 151.718 707.965L152.979 708.819C168.033 685.565 182.143 661.127 195.819 637.305C224.848 586.47 255.028 534.044 297.114 491.744C319.494 469.141 344.473 449.57 371.756 433.381C402.506 415.089 438.819 399.283 482.871 385.1C503.39 378.515 525.668 372.329 550.22 366.147C581.722 358.014 614.798 352.641 646.645 347.556C683.56 341.528 721.999 335.338 758.482 324.93C766.595 322.53 774.708 320.11 782.746 317.5C885.69 283.716 976.553 228.261 1045.46 156.997C1081.72 119.366 1111.56 73.8956 1140.36 29.7611C1146.89 19.5754 1153.26 10.1313 1159.64 0.687162C1171.35 -16.8552 1183.35 -34.7676 1192.58 -54.4747C1203.68 -77.9213 1209.05 -99.2493 1208.87 -119.666L1207.27 -119.694C1207.45 -99.2775 1202.27 -78.0241 1191.28 -54.8528ZM1185.4 -60.8729C1176.72 -45.9306 1166.48 -32.6152 1155.6 -18.6095C1153.27 -15.3763 1150.69 -12.2695 1148.17 -8.95173C1134.37 8.99716 1121.18 28.5114 1107.16 49.2864C1083.79 83.9049 1059.49 119.594 1031.36 149.798C962.359 223.613 870.73 281.663 773.243 313.192C765.205 315.802 757.092 318.222 749.094 320.356C713.109 330.33 674.983 335.037 637.885 339.541C606.045 343.483 572.862 347.524 541.517 354.915C516.033 361.035 493.861 366.925 474.039 373.011C430.038 386.727 393.79 402.714 363.285 421.598C336.436 438.284 311.766 458.648 290.298 481.789C253.243 521.347 225.954 569.173 199.625 615.482C183.555 643.47 167.021 672.559 148.472 699.514L149.743 700.358C168.283 673.413 184.891 644.515 200.886 616.337C227.29 570.218 254.579 522.392 291.243 482.993C312.711 459.852 337.266 439.774 363.923 423.163C394.238 404.353 430.275 388.442 474.297 374.725C494.108 368.65 516.195 362.559 541.69 356.429C573.045 349.047 606.017 345.082 638.058 341.054C675.146 336.561 713.281 331.863 749.458 321.815C757.455 319.661 765.768 317.176 773.616 314.64C871.293 283.017 963.219 224.617 1032.42 150.717C1060.56 120.523 1084.86 84.8339 1108.43 50.1305C1122.53 29.5662 1135.7 10.0421 1149.42 -8.10732C1151.95 -11.4151 1154.46 -14.7126 1156.87 -17.7551C1167.73 -31.7708 1177.9 -45.2768 1186.85 -60.0932C1200.27 -82.8991 1206.66 -103.964 1206.53 -124.847L1204.92 -124.865C1205.09 -104.459 1198.7 -83.3932 1185.4 -60.8729ZM1179.99 -66.8418C1171.53 -54.7257 1161.76 -44.1205 1151.65 -32.699C1147.42 -27.9913 1142.88 -22.9535 1138.55 -17.9909C1119.41 4.19269 1102.11 29.7272 1083.56 56.6827C1063.4 86.351 1042.5 116.995 1018.82 143.094C948.795 220.52 858.511 279.604 764.61 309.897C756.963 312.348 749.04 314.693 740.376 316.882C704.823 326.219 666.981 329.434 630.397 332.37C598.269 335.064 564.808 337.846 533.494 344.771C507.373 350.459 485.984 356.051 466.162 362.116C422.277 375.567 386.22 391.479 356.043 411.135C329.63 428.338 305.786 449.039 285.018 472.793C252.393 509.844 227.582 553.706 203.616 596.316C185.734 628.234 167.324 661.053 145.542 690.694L146.804 691.548C168.575 661.898 186.91 628.888 205.068 597.096C228.844 554.56 253.654 510.699 286.164 473.933C306.731 450.244 330.575 429.543 356.872 412.605C386.868 393.033 422.715 377.197 466.41 363.841C486.241 357.765 507.705 352.384 533.751 346.486C565.055 339.57 598.326 336.863 630.454 334.169C667.238 331.148 705.08 327.934 740.824 318.521C749.488 316.333 757.41 313.988 765.057 311.537C859.224 281.36 949.824 221.925 1019.77 144.298C1043.56 117.935 1064.47 87.28 1084.63 57.6117C1102.89 30.5406 1120.41 4.93101 1139.42 -16.9769C1143.88 -22.2152 1148.29 -26.9976 1152.52 -31.685C1162.71 -42.9157 1172.4 -53.7116 1181.05 -65.9226C1196.6 -87.9928 1204.12 -109.061 1204.37 -130.113L1202.76 -130.131C1202.83 -109.449 1195.22 -88.5617 1179.99 -66.8418ZM1174.19 -72.6712C1165.79 -62.6196 1156.54 -54.0477 1146.89 -44.8608C1140.79 -39.1745 1134.59 -33.2131 1128.34 -26.7854C1104.61 -2.48609 1084.52 27.373 1062.97 59.2137C1045.01 85.9246 1026.43 113.346 1005.66 137.1C934.998 217.977 846.135 278.308 755.469 307.048C747.632 309.574 739.434 311.793 731.437 313.948C696.38 322.851 658.576 324.456 622.096 325.984C589.679 327.43 556.321 328.804 525.048 335.253C498.557 340.645 477.093 346.026 457.588 351.761C413.734 364.726 377.846 381.019 348.21 400.917C322.232 418.617 299.099 439.941 279.232 464.243C250.465 499.031 228.081 539.395 206.627 578.687C187.185 613.985 167.144 650.649 142.381 682.424L143.727 683.479C168.605 651.419 188.711 614.955 208.089 579.457C229.618 540.355 251.726 499.886 280.377 465.362C300.044 441.145 323.262 420.022 349.039 402.387C378.59 382.308 414.362 366.281 458.026 353.391C477.541 347.665 498.814 342.359 525.295 336.978C556.568 330.529 589.927 329.155 622.142 327.774C658.824 326.181 696.637 324.565 731.874 315.577C739.967 313.633 748.08 311.213 756.118 308.603C846.975 279.788 936.144 219.097 1007 138.145C1027.97 114.306 1046.46 86.6841 1064.42 59.9733C1085.79 28.2274 1105.87 -1.63166 1129.5 -25.6558C1135.73 -32.0831 1141.94 -38.0549 1148.03 -43.7308C1157.69 -52.928 1166.93 -61.4999 1175.34 -71.5313C1192.96 -92.4198 1201.93 -113.861 1202.21 -135.379L1200.6 -135.397C1200.29 -114.546 1191.42 -93.3798 1174.19 -72.6712ZM1168.51 -78.756C1160.01 -70.0476 1150.88 -62.8738 1141.13 -55.0097C1133.6 -48.9607 1125.85 -42.8364 1118.25 -35.8452C1090.57 -10.6163 1068.53 22.7817 1044.8 58.2266C1028.52 82.891 1011.4 108.351 992.738 130.575C921.433 214.884 833.907 276.26 746.445 303.914C738.798 306.365 730.811 308.509 722.327 310.613C687.513 318.975 650.002 319.098 613.424 319.283C580.92 319.415 547.474 319.456 516.432 325.354C490.268 330.385 468.835 335.3 449.129 341.1C405 353.96 369.302 370.178 340.377 390.699C315.025 408.821 292.517 430.567 273.571 455.417C248.06 488.177 227.967 525.783 208.644 561.928C188.193 600.361 166.983 640.245 139.336 673.889L140.672 674.934C168.51 641.216 189.73 601.321 210.371 562.813C229.62 526.478 249.597 489.137 275.108 456.377C293.938 431.812 316.446 410.066 341.597 392.009C370.523 371.508 405.828 355.43 449.958 342.591C469.664 336.79 491.097 331.876 517.071 326.919C548.112 321.021 581.558 320.96 613.872 320.922C650.44 320.727 688.236 320.72 723.051 312.378C731.524 310.265 739.521 308.13 747.169 305.679C834.905 278.131 922.473 216.279 994.158 131.801C1013.01 109.501 1029.94 84.1366 1046.43 59.3872C1069.94 24.0174 1092 -9.38105 1119.55 -34.3344C1127.17 -41.3156 1134.9 -47.4498 1142.44 -53.4989C1152.19 -61.3629 1161.32 -68.5165 1169.81 -77.2348C1183.3 -90.9699 1199.7 -113.169 1200.33 -140.52L1198.73 -140.548C1197.78 -113.979 1181.89 -92.2056 1168.51 -78.756ZM1162.9 -84.6601C1154.21 -76.9895 1144.95 -70.6931 1134.91 -64.0773C1126.16 -58.2058 1117.1 -51.9943 1108.25 -44.7148C1076.86 -19.1072 1051.8 19.1662 1027.77 56.104C1012.73 79.3474 997.04 103.302 979.695 124.296C907.889 211.791 821.858 274.603 737.505 300.98C729.583 303.325 721.586 305.459 713.504 307.413C679.185 315.32 641.503 313.93 605.153 312.431C572.762 311.146 539.018 309.948 508.208 315.296C485.63 319.091 463.064 324.009 440.977 330.1C397.079 342.408 361.858 358.667 332.851 380.12C307.933 398.76 286.061 420.918 268.006 446.305C245.39 477.207 227.186 512.206 209.912 546.155C188.599 587.447 166.782 630.318 136.331 664.877L137.477 665.997C167.842 631.237 189.86 588.302 211.173 547.009C228.533 513.261 246.651 478.061 269.162 447.435C287.09 422.323 308.888 399.954 333.69 381.6C362.37 360.508 397.601 344.238 441.224 331.824C463.311 325.733 485.887 320.805 508.455 317.02C539.275 311.662 572.799 312.945 605.135 314.04C641.675 315.443 679.358 316.854 713.867 308.852C721.949 306.898 729.946 304.764 738.059 302.344C822.677 276.083 909.099 213.111 981.232 125.276C998.502 104.071 1014.17 80.1172 1029.23 56.8734C1053.24 19.9359 1078.12 -18.2529 1109.39 -43.5952C1118.25 -50.8746 1127.19 -56.8208 1135.85 -62.8726C1145.63 -69.6044 1155.07 -75.9854 1164.04 -83.5302C1191.22 -107.192 1197.52 -130.723 1197.74 -146.293L1196.13 -146.311C1195.58 -118.769 1177.66 -97.5309 1162.9 -84.6601ZM1157.1 -90.4694C1148 -83.7817 1138.42 -78.2677 1128.47 -72.584C1118.5 -66.9104 1108.15 -61.0671 1098.24 -53.5943C1063.17 -28.064 1036.95 12.9537 1011.48 52.9953C997.36 75.1783 982.793 97.9873 966.737 118.237C874.238 234.693 785.99 280.427 728.365 298.131C720.443 300.456 712.446 302.611 704.479 304.279C670.403 311.645 632.813 308.836 596.576 305.94C564.163 303.522 530.531 300.906 499.752 305.788C477.215 309.107 454.574 313.834 432.678 319.851C388.886 331.884 353.739 348.333 325.293 370.008C302.046 387.733 281.517 409.813 262.505 437.871C242.373 467.053 226.218 499.856 210.537 531.568C188.732 575.561 166.233 621.206 133.255 656.808L134.39 657.938C167.569 622.251 190.068 576.606 211.988 532.327C227.68 500.626 243.825 467.833 263.756 438.715C282.853 410.858 303.202 388.863 326.237 371.212C354.684 349.538 389.64 333.163 433.232 321.215C455.202 315.389 477.853 310.672 500.316 307.142C530.905 302.355 564.526 304.961 596.939 307.379C633.376 310.19 671.222 313.125 705.424 305.484C713.591 303.73 721.598 301.586 729.511 299.251C834.426 266.944 917.375 183.31 968.58 118.837C984.646 98.597 999.193 75.7885 1013.32 53.6054C1038.5 13.9237 1064.7 -27.0936 1099.57 -52.5493C1109.56 -59.8315 1119.92 -65.6649 1129.61 -71.4644C1139.76 -77.2226 1149.15 -82.662 1158.44 -89.4244C1172.05 -99.5512 1194.9 -120.991 1196.16 -151.793L1194.56 -151.822C1192.86 -121.516 1170.31 -100.446 1157.1 -90.4694ZM1151.31 -96.2889C1141.77 -90.1081 1131.88 -85.3665 1121.59 -80.4752C1110.53 -75.2548 1099.15 -69.684 1088.03 -62.3888C1049.4 -37.2213 1022.12 6.74094 995.726 48.9859C982.405 70.3738 968.862 92.3226 953.705 111.968C902.43 178.515 820.164 264.371 719.415 295.187C711.979 297.563 703.887 299.507 695.529 301.335C661.96 308.276 624.408 303.859 588.064 299.629C555.563 295.878 521.854 291.939 491.306 296.27C468.674 299.399 446.064 303.66 424.103 309.476C380.342 321.043 345.28 337.693 317.354 360.065C294.859 377.937 274.829 400.715 256.528 429.395C238.774 457.153 224.086 487.995 210.062 517.651C187.967 564.259 165.378 612.454 129.618 648.497L130.763 649.637C166.439 613.373 189.419 565.038 211.439 518.219C225.463 488.564 240.141 457.733 257.905 429.964C276.006 401.369 295.909 378.866 318.404 360.994C346.341 338.612 381.096 322.322 424.582 310.649C446.628 305.014 469.163 300.562 491.595 297.518C521.941 293.272 555.576 297.021 587.887 300.846C624.211 305.076 661.963 309.409 695.818 302.583C704.175 300.755 712.257 298.801 719.904 296.351C821.108 265.576 903.702 179.359 955.072 112.547C970.038 92.9763 983.782 70.9427 997.093 49.565C1023.29 7.3947 1050.46 -36.282 1088.9 -61.3749C1100.02 -68.6701 1111.28 -73.9652 1122.26 -79.3762C1132.74 -84.3624 1142.44 -89.0193 1152.17 -95.2849C1164.07 -102.889 1192.02 -124.128 1193.46 -157.281L1191.85 -157.299C1190.44 -124.632 1163.01 -103.828 1151.31 -96.2889ZM1145.81 -102.458C1135.77 -96.9753 1125.64 -92.8255 1114.83 -88.6317C1102.75 -83.6739 1090.2 -78.7569 1078.24 -71.8088C1035.97 -47.2047 1007.93 -0.637925 980.772 44.1813C968.284 64.7838 955.353 86.0121 941.275 104.988C866.522 205.296 789.086 267.995 710.908 291.617C702.986 293.963 695.094 295.822 686.938 297.585C653.589 303.965 616.141 298.14 579.719 292.587C547.13 287.503 513.524 282.156 483.198 285.926C460.616 288.588 437.997 292.86 416.057 298.2C372.231 309.566 337.635 326.247 309.943 349.221C288.189 367.23 268.986 390.365 251.088 420.008C235.227 446.312 222.101 475.363 209.513 503.522C187.519 552.606 164.745 603.142 126.804 639.411L127.939 640.541C166.207 603.912 189.086 553.1 211.081 504.016C223.679 475.867 236.603 446.881 252.455 420.587C269.972 391.094 289.175 367.978 310.803 350.225C338.305 327.346 372.784 310.93 416.43 299.649C438.285 294.108 460.969 290.038 483.37 287.46C513.496 283.754 547.027 288.911 579.415 294.08C615.922 299.833 653.361 305.649 687.11 299.099C695.151 297.621 703.349 295.402 711.07 293.141C789.459 269.444 867.267 206.586 942.145 106.002C956.414 86.9514 969.259 65.5226 981.757 44.9099C1008.92 0.0904892 1036.84 -46.1907 1078.72 -70.6455C1090.68 -77.5833 1103.15 -82.7008 1115.12 -87.3834C1125.44 -91.6078 1136.24 -95.8116 1146.28 -101.295C1173.27 -116.001 1189.82 -138.951 1191.03 -162.653L1189.43 -162.681C1188.53 -139.32 1172.21 -116.92 1145.81 -102.458ZM1140.01 -108.288C1129.53 -103.302 1118.49 -99.6897 1107.65 -96.1627C1094.59 -91.9333 1081.01 -87.2888 1068.04 -80.6038C1022.51 -56.702 993.636 -7.76186 965.636 39.4614C953.836 59.5543 941.423 80.3474 928.042 98.8036C853.233 202.329 776.952 266.137 701.482 288.653C693.761 290.913 685.689 292.857 677.637 294.325C644.596 300.365 607.175 292.941 570.772 285.78C538.095 279.362 504.401 272.682 474.307 275.921C451.756 278.098 429.263 282.094 407.122 287.518C364.004 298.375 328.5 315.651 301.559 338.771C280.356 357.012 261.853 380.76 244.751 411.226C230.686 436.341 218.911 463.695 207.76 490.359C185.971 541.623 163.308 594.625 122.901 631.005L124.047 632.124C164.76 595.405 187.423 542.403 209.327 490.853C220.564 464.39 232.253 436.835 246.202 411.986C263.114 381.614 281.692 358.057 302.514 339.965C329.073 317.015 364.367 299.814 407.295 289.052C429.235 283.692 451.738 279.706 474.279 277.52C504.183 274.375 537.791 280.855 570.278 287.347C606.681 294.508 644.302 301.847 677.619 295.933C685.66 294.455 693.732 292.512 701.665 290.176C777.516 267.511 853.902 203.408 928.912 99.8176C942.399 81.0862 954.631 60.3574 966.622 40.1899C994.506 -6.74781 1023.26 -55.4226 1068.4 -79.1545C1081.29 -86.0302 1094.75 -90.4094 1107.82 -94.6289C1118.66 -98.1559 1129.9 -101.863 1140.38 -106.839C1183.27 -127.157 1188.17 -158.519 1188.76 -167.644L1187.14 -167.671C1186.95 -158.717 1182.21 -128.076 1140.01 -108.288ZM1134.8 -114.342C1134.6 -114.257 1134.41 -114.182 1134.21 -114.097C1123.3 -109.628 1111.55 -106.629 1100.27 -103.609C1086.1 -99.8424 1071.55 -95.9165 1057.83 -89.3983C1008.77 -66.3252 979.257 -15.0661 950.607 34.4663C939.313 54.114 927.598 74.4075 914.809 92.619C839.174 200.804 766.247 263.927 692.352 285.794C684.63 288.054 676.538 289.998 668.423 291.285C635.687 296.965 598.094 288.007 561.814 279.438C529.23 271.622 495.714 263.725 465.661 266.488C443.226 268.399 420.563 271.994 398.558 277.153C355.26 287.619 320.051 305 293.811 328.733C273.148 347.216 255.714 370.76 239.165 402.591C226.685 426.591 216.357 452.46 206.155 477.577C184.668 531.232 162.496 586.53 119.74 622.735L120.685 623.939C163.758 587.384 186.13 532.002 207.543 478.156C217.533 453.113 228.072 427.17 240.341 403.244C256.89 371.414 274.219 348.145 294.681 329.747C320.795 306.29 355.823 288.973 398.836 278.391C420.851 273.242 443.229 269.532 465.758 267.811C495.42 265.208 528.936 273.105 561.225 280.815C597.6 289.575 635.394 298.448 668.32 292.693C676.435 291.406 684.528 289.462 692.44 287.127C766.821 265.29 839.854 201.892 915.785 93.3578C928.584 75.136 940.224 54.6518 951.709 34.9294C980.243 -14.3375 1009.65 -65.3215 1058.04 -88.3303C1071.75 -94.8687 1086.31 -98.7947 1100.28 -102.466C1111.56 -105.496 1123.22 -108.686 1134.41 -113.049C1134.61 -113.134 1134.8 -113.209 1134.99 -113.284C1158.79 -123.03 1184.61 -143.873 1186.44 -173.301L1184.83 -173.319C1183.52 -144.326 1158.18 -123.928 1134.8 -114.342ZM1128.61 -119.991C1117.06 -115.954 1104.69 -113.377 1092.78 -110.779C1077.9 -107.636 1062.45 -104.258 1047.82 -98.2575C995.436 -76.1183 965.26 -22.5398 936.169 29.2265C925.383 48.4493 914.174 68.2976 901.967 86.2748C853.676 157.293 778.738 254.945 683.328 282.659C675.606 284.919 667.524 286.873 659.589 288.076C627.095 293.195 589.615 282.839 553.618 272.777C520.946 263.628 487.353 254.408 457.711 256.535C435.117 258.055 412.57 261.385 390.671 266.268C347.499 276.458 312.555 293.956 286.475 318.08C266.342 337.27 249.523 361.227 233.96 393.786C222.896 416.766 213.602 441.289 204.721 465.196C183.842 520.882 162.277 578.211 117.16 614.231L118.105 615.435C163.613 579.256 185.293 521.642 206.098 465.765C214.969 441.868 224.263 417.346 235.422 394.555C251.07 362.197 267.678 338.315 287.705 319.4C313.585 295.361 348.412 278.129 391.119 267.908C412.943 262.833 435.491 259.504 457.884 258.069C487.24 255.826 520.928 265.237 553.314 274.27C589.778 284.363 627.342 294.919 660.037 289.715C668.152 288.428 676.054 286.559 683.966 284.224C779.757 256.34 855.012 158.338 903.409 87.0446C915.616 69.0674 926.845 49.2187 937.737 29.7207C966.722 -21.7705 996.783 -75.0634 1048.69 -97.2637C1063.03 -103.36 1078.58 -106.547 1093.45 -109.68C1105.36 -112.299 1117.74 -114.866 1129.48 -118.997C1153.81 -127.369 1182.86 -148.156 1184.86 -178.801L1183.27 -178.829C1181.1 -148.575 1152.48 -128.414 1128.61 -119.991ZM1123 -125.895C1110.83 -122.271 1098.02 -120.201 1085.59 -118.3C1069.81 -115.705 1053.37 -113.055 1037.81 -107.137C982.1 -85.8912 951.473 -30.0886 921.732 23.9867C911.251 42.8493 900.625 62.4633 888.999 80.2063C836.989 159.35 765.505 253.757 674.473 279.926C666.741 282.176 658.775 283.844 650.85 285.057C618.843 289.751 581.391 277.777 545.306 266.401C512.632 256.12 478.866 245.366 449.456 246.943C426.893 247.997 404.472 251.05 382.382 256.009C339.125 265.998 304.372 283.421 278.801 308.253C259.25 327.188 243.152 351.778 228.173 385.235C218.429 406.986 210.14 430.648 202.314 453.21C182.031 510.916 161.139 570.476 113.724 605.855L114.679 607.049C162.411 571.32 183.408 511.485 203.606 453.578C211.633 430.952 219.806 407.554 229.475 385.613C244.328 352.432 260.437 327.852 279.787 308.982C304.967 284.329 339.518 266.971 382.575 257.067C404.474 252.183 426.906 249.139 449.279 248.16C478.403 246.467 512.179 257.212 544.568 267.377C580.928 278.878 618.39 290.843 650.852 286.19C658.978 284.912 666.945 283.244 674.667 280.984C766.29 254.57 837.965 160.089 890.101 80.6694C901.726 62.9265 912.544 43.2378 922.833 24.4499C951.721 -28.3642 981.769 -82.7998 1034.97 -104.612C1035.95 -105.016 1037.12 -105.484 1038.1 -105.889C1053.46 -111.722 1069.9 -114.372 1085.68 -116.977C1098.11 -118.888 1110.92 -120.937 1123.29 -124.647C1149.07 -132.26 1180.05 -152.235 1182.32 -183.898L1180.71 -183.936C1178.59 -153.005 1148.4 -133.358 1123 -125.895ZM1117.4 -131.789C1104.6 -128.597 1091.16 -126.949 1078.3 -125.556C1061.54 -123.689 1044.17 -121.587 1027.99 -116.091C968.86 -95.9493 937.592 -37.8277 907.601 18.407C897.712 37.025 887.392 56.2788 876.263 73.5868C815.471 169.081 740.114 268.492 641.931 281.647C610.176 285.79 572.616 272.503 536.56 259.509C503.998 247.81 470.135 235.732 440.967 236.768C365.179 239.609 308.206 260 271.2 297.484C234.204 334.958 216.665 388.816 199.822 441.022C180.347 500.675 160.328 562.381 110.794 597.034L111.739 598.239C161.589 563.236 181.799 501.454 201.389 441.516C218.328 389.501 235.74 335.918 272.631 298.719C309.31 261.596 366.093 241.279 441.405 238.418C470.307 237.266 503.885 249.228 536.266 260.992C572.588 274.102 610.223 287.6 642.379 283.287C741.239 270.087 816.892 170.327 877.81 74.5568C888.844 57.0585 899.164 37.8047 909.052 19.1665C938.938 -36.793 969.814 -94.755 1028.55 -114.727C1044.55 -120.139 1061.9 -122.25 1078.66 -124.117C1091.71 -125.585 1105.15 -127.233 1117.96 -130.436C1147.31 -137.675 1178.07 -158.719 1180.63 -189.133L1179.03 -189.161C1176.34 -159.604 1146.08 -138.996 1117.4 -131.789Z" fill="white"/>
</mask>
<g mask="url(#mask3_266_18808)">
<path d="M1528.38 456.213L1141.01 -488.786L-210.383 65.1553L176.978 1010.16L1528.38 456.213Z" fill="url(#paint0_linear_266_18808)"/>
</g>
</g>
</g>
</g>
<defs>
<linearGradient id="paint0_linear_266_18808" x1="1340.56" y1="-1.99089" x2="-10.84" y2="551.96" gradientUnits="userSpaceOnUse">
<stop stop-color="#FEFFFF"/>
<stop offset="0.03125" stop-color="#FEFFFF"/>
<stop offset="0.046875" stop-color="#FEFFFF"/>
<stop offset="0.0546875" stop-color="#FEFFFF"/>
<stop offset="0.0585937" stop-color="#FEFEFE"/>
<stop offset="0.0625" stop-color="#FEFEFD"/>
<stop offset="0.0664062" stop-color="#FEFDFC"/>
<stop offset="0.0703125" stop-color="#FEFDFB"/>
<stop offset="0.0742187" stop-color="#FEFCFA"/>
<stop offset="0.078125" stop-color="#FEFCF9"/>
<stop offset="0.0820312" stop-color="#FEFBF8"/>
<stop offset="0.0859375" stop-color="#FEFAF7"/>
<stop offset="0.0898438" stop-color="#FEFAF6"/>
<stop offset="0.09375" stop-color="#FEF9F6"/>
<stop offset="0.0976562" stop-color="#FEF9F5"/>
<stop offset="0.101562" stop-color="#FEF8F4"/>
<stop offset="0.105469" stop-color="#FEF8F3"/>
<stop offset="0.109375" stop-color="#FEF7F2"/>
<stop offset="0.113281" stop-color="#FEF7F1"/>
<stop offset="0.117187" stop-color="#FEF6F0"/>
<stop offset="0.121094" stop-color="#FEF6EF"/>
<stop offset="0.125" stop-color="#FEF5EE"/>
<stop offset="0.128906" stop-color="#FEF5EE"/>
<stop offset="0.132812" stop-color="#FEF4ED"/>
<stop offset="0.136719" stop-color="#FEF4EC"/>
<stop offset="0.140625" stop-color="#FEF3EB"/>
<stop offset="0.144531" stop-color="#FEF3EA"/>
<stop offset="0.148438" stop-color="#FEF2E9"/>
<stop offset="0.152344" stop-color="#FEF1E8"/>
<stop offset="0.15625" stop-color="#FEF1E7"/>
<stop offset="0.160156" stop-color="#FDF0E6"/>
<stop offset="0.164062" stop-color="#FDF0E5"/>
<stop offset="0.167969" stop-color="#FDEFE5"/>
<stop offset="0.171875" stop-color="#FDEFE4"/>
<stop offset="0.175781" stop-color="#FDEEE3"/>
<stop offset="0.179687" stop-color="#FDEEE2"/>
<stop offset="0.183594" stop-color="#FDEDE1"/>
<stop offset="0.1875" stop-color="#FDEDE0"/>
<stop offset="0.191406" stop-color="#FDECDF"/>
<stop offset="0.195312" stop-color="#FDECDE"/>
<stop offset="0.199219" stop-color="#FDEBDD"/>
<stop offset="0.203125" stop-color="#FDEBDC"/>
<stop offset="0.207031" stop-color="#FDEADC"/>
<stop offset="0.210937" stop-color="#FDEADB"/>
<stop offset="0.214844" stop-color="#FDE9DA"/>
<stop offset="0.21875" stop-color="#FDE8D9"/>
<stop offset="0.222656" stop-color="#FDE8D8"/>
<stop offset="0.226562" stop-color="#FDE7D7"/>
<stop offset="0.230469" stop-color="#FDE7D6"/>
<stop offset="0.234375" stop-color="#FDE6D5"/>
<stop offset="0.238281" stop-color="#FDE6D4"/>
<stop offset="0.242188" stop-color="#FDE5D4"/>
<stop offset="0.246094" stop-color="#FDE5D3"/>
<stop offset="0.25" stop-color="#FDE4D2"/>
<stop offset="0.253906" stop-color="#FDE4D1"/>
<stop offset="0.257812" stop-color="#FDE3D0"/>
<stop offset="0.261719" stop-color="#FDE3CF"/>
<stop offset="0.265625" stop-color="#FDE2CE"/>
<stop offset="0.269531" stop-color="#FDE2CD"/>
<stop offset="0.273437" stop-color="#FDE1CC"/>
<stop offset="0.277344" stop-color="#FDE1CB"/>
<stop offset="0.28125" stop-color="#FDE0CB"/>
<stop offset="0.285156" stop-color="#FDDFCA"/>
<stop offset="0.289062" stop-color="#FDDFC9"/>
<stop offset="0.292969" stop-color="#FDDEC8"/>
<stop offset="0.296875" stop-color="#FDDEC7"/>
<stop offset="0.300781" stop-color="#FDDDC6"/>
<stop offset="0.304688" stop-color="#FDDDC5"/>
<stop offset="0.308594" stop-color="#FDDCC4"/>
<stop offset="0.3125" stop-color="#FDDCC3"/>
<stop offset="0.316406" stop-color="#FDDBC3"/>
<stop offset="0.320312" stop-color="#FDDBC2"/>
<stop offset="0.324219" stop-color="#FDDAC1"/>
<stop offset="0.328125" stop-color="#FDDAC0"/>
<stop offset="0.332031" stop-color="#FDD9BF"/>
<stop offset="0.335938" stop-color="#FDD9BE"/>
<stop offset="0.339844" stop-color="#FDD8BD"/>
<stop offset="0.34375" stop-color="#FDD8BC"/>
<stop offset="0.347656" stop-color="#FDD7BB"/>
<stop offset="0.351563" stop-color="#FDD6BA"/>
<stop offset="0.355469" stop-color="#FDD6BA"/>
<stop offset="0.359375" stop-color="#FDD5B9"/>
<stop offset="0.363281" stop-color="#FDD5B8"/>
<stop offset="0.367187" stop-color="#FDD4B7"/>
<stop offset="0.371094" stop-color="#FDD4B6"/>
<stop offset="0.375" stop-color="#FCD3B5"/>
<stop offset="0.378906" stop-color="#FCD3B4"/>
<stop offset="0.382812" stop-color="#FCD2B3"/>
<stop offset="0.386719" stop-color="#FCD2B2"/>
<stop offset="0.390625" stop-color="#FCD1B2"/>
<stop offset="0.394531" stop-color="#FCD1B1"/>
<stop offset="0.398438" stop-color="#FCD0B0"/>
<stop offset="0.40615" stop-color="#FCD0AF"/>
<stop offset="0.40625" stop-color="#FCCFAE"/>
<stop offset="0.410156" stop-color="#FCCEAD"/>
<stop offset="0.414063" stop-color="#FCCEAC"/>
<stop offset="0.417969" stop-color="#FCCDAB"/>
<stop offset="0.421875" stop-color="#FCCDAA"/>
<stop offset="0.425781" stop-color="#FCCCA9"/>
<stop offset="0.429687" stop-color="#FCCCA9"/>
<stop offset="0.433594" stop-color="#FCCBA8"/>
<stop offset="0.4375" stop-color="#FCCBA7"/>
<stop offset="0.441406" stop-color="#FCCAA6"/>
<stop offset="0.445312" stop-color="#FCCAA5"/>
<stop offset="0.449219" stop-color="#FCC9A4"/>
<stop offset="0.453125" stop-color="#FCC9A3"/>
<stop offset="0.457031" stop-color="#FCC8A2"/>
<stop offset="0.460938" stop-color="#FCC8A1"/>
<stop offset="0.464844" stop-color="#FCC7A0"/>
<stop offset="0.46875" stop-color="#FCC7A0"/>
<stop offset="0.472656" stop-color="#FCC69F"/>
<stop offset="0.476562" stop-color="#FCC59E"/>
<stop offset="0.480469" stop-color="#FCC59D"/>
<stop offset="0.484375" stop-color="#FCC49C"/>
<stop offset="0.488281" stop-color="#FCC49B"/>
<stop offset="0.492187" stop-color="#FCC39A"/>
<stop offset="0.496094" stop-color="#FCC399"/>
<stop offset="0.5" stop-color="#FCC298"/>
<stop offset="0.503906" stop-color="#FCC298"/>
<stop offset="0.507813" stop-color="#FCC197"/>
<stop offset="0.511719" stop-color="#FCC196"/>
<stop offset="0.515625" stop-color="#FCC095"/>
<stop offset="0.519531" stop-color="#FCC094"/>
<stop offset="0.523438" stop-color="#FCBF93"/>
<stop offset="0.527344" stop-color="#FCBF92"/>
<stop offset="0.53125" stop-color="#FCBE91"/>
<stop offset="0.535156" stop-color="#FCBE90"/>
<stop offset="0.539062" stop-color="#FCBD8F"/>
<stop offset="0.542969" stop-color="#FCBC8F"/>
<stop offset="0.546875" stop-color="#FCBC8E"/>
<stop offset="0.550781" stop-color="#FCBB8D"/>
<stop offset="0.554688" stop-color="#FCBB8C"/>
<stop offset="0.558594" stop-color="#FCBA8B"/>
<stop offset="0.5625" stop-color="#FCBA8A"/>
<stop offset="0.566406" stop-color="#FCB989"/>
<stop offset="0.570312" stop-color="#FCB988"/>
<stop offset="0.574219" stop-color="#FCB887"/>
<stop offset="0.578125" stop-color="#FCB887"/>
<stop offset="0.582031" stop-color="#FCB786"/>
<stop offset="0.585938" stop-color="#FCB785"/>
<stop offset="0.589844" stop-color="#FCB684"/>
<stop offset="0.59375" stop-color="#FBB683"/>
<stop offset="0.597656" stop-color="#FBB582"/>
<stop offset="0.601562" stop-color="#FBB581"/>
<stop offset="0.605469" stop-color="#FBB480"/>
<stop offset="0.609375" stop-color="#FBB37F"/>
<stop offset="0.613281" stop-color="#FBB37E"/>
<stop offset="0.617188" stop-color="#FBB27E"/>
<stop offset="0.621094" stop-color="#FBB27D"/>
<stop offset="0.625" stop-color="#FBB17C"/>
<stop offset="0.628906" stop-color="#FBB17B"/>
<stop offset="0.632812" stop-color="#FBB07A"/>
<stop offset="0.636719" stop-color="#FBB079"/>
<stop offset="0.640625" stop-color="#FBAF78"/>
<stop offset="0.644531" stop-color="#FBAF77"/>
<stop offset="0.648438" stop-color="#FBAE76"/>
<stop offset="0.652344" stop-color="#FBAE76"/>
<stop offset="0.65625" stop-color="#FBAD75"/>
<stop offset="0.660156" stop-color="#FBAD74"/>
<stop offset="0.664063" stop-color="#FBAC73"/>
<stop offset="0.667969" stop-color="#FBAC72"/>
<stop offset="0.671875" stop-color="#FBAB71"/>
<stop offset="0.675781" stop-color="#FBAA70"/>
<stop offset="0.679688" stop-color="#FBAA6F"/>
<stop offset="0.683594" stop-color="#FBA96E"/>
<stop offset="0.6875" stop-color="#FBA96D"/>
<stop offset="0.691406" stop-color="#FBA86D"/>
<stop offset="0.695313" stop-color="#FBA86C"/>
<stop offset="0.699219" stop-color="#FBA76B"/>
<stop offset="0.703125" stop-color="#FBA76A"/>
<stop offset="0.707031" stop-color="#FBA669"/>
<stop offset="0.710938" stop-color="#FBA668"/>
<stop offset="0.714844" stop-color="#FBA567"/>
<stop offset="0.71875" stop-color="#FBA566"/>
<stop offset="0.722656" stop-color="#FBA465"/>
<stop offset="0.726562" stop-color="#FBA465"/>
<stop offset="0.730469" stop-color="#FBA364"/>
<stop offset="0.734375" stop-color="#FBA363"/>
<stop offset="0.738281" stop-color="#FBA262"/>
<stop offset="0.742188" stop-color="#FBA161"/>
<stop offset="0.746094" stop-color="#FBA160"/>
<stop offset="0.75" stop-color="#FBA05F"/>
<stop offset="0.753906" stop-color="#FBA05E"/>
<stop offset="0.757812" stop-color="#FB9F5D"/>
<stop offset="0.761719" stop-color="#FB9F5C"/>
<stop offset="0.765625" stop-color="#FB9E5C"/>
<stop offset="0.769531" stop-color="#FB9E5B"/>
<stop offset="0.773438" stop-color="#FB9D5A"/>
<stop offset="0.777344" stop-color="#FB9D59"/>
<stop offset="0.78125" stop-color="#FB9C58"/>
<stop offset="0.785156" stop-color="#FB9C57"/>
<stop offset="0.789062" stop-color="#FB9B56"/>
<stop offset="0.792969" stop-color="#FB9B55"/>
<stop offset="0.796875" stop-color="#FB9A54"/>
<stop offset="0.800781" stop-color="#FB9A53"/>
<stop offset="0.804688" stop-color="#FB9953"/>
<stop offset="0.808594" stop-color="#FA9852"/>
<stop offset="0.8125" stop-color="#FA9851"/>
<stop offset="0.816406" stop-color="#FA9750"/>
<stop offset="0.820313" stop-color="#FA974F"/>
<stop offset="0.824219" stop-color="#FA964E"/>
<stop offset="0.828125" stop-color="#FA964D"/>
<stop offset="0.832031" stop-color="#FA954C"/>
<stop offset="0.835938" stop-color="#FA954B"/>
<stop offset="0.839844" stop-color="#FA944B"/>
<stop offset="0.84375" stop-color="#FA944A"/>
<stop offset="0.847656" stop-color="#FA9349"/>
<stop offset="0.851562" stop-color="#FA9348"/>
<stop offset="0.855469" stop-color="#FA9247"/>
<stop offset="0.859375" stop-color="#FA9246"/>
<stop offset="0.863281" stop-color="#FA9145"/>
<stop offset="0.867188" stop-color="#FA9144"/>
<stop offset="0.871094" stop-color="#FA9043"/>
<stop offset="0.875" stop-color="#FA8F42"/>
<stop offset="0.878906" stop-color="#FA8F42"/>
<stop offset="0.882812" stop-color="#FA8E41"/>
<stop offset="0.886719" stop-color="#FA8E40"/>
<stop offset="0.890625" stop-color="#FA8D3F"/>
<stop offset="0.894531" stop-color="#FA8D3E"/>
<stop offset="0.898438" stop-color="#FA8C3D"/>
<stop offset="0.902344" stop-color="#FA8C3C"/>
<stop offset="0.90625" stop-color="#FA8B3B"/>
<stop offset="0.910156" stop-color="#FA8B3A"/>
<stop offset="0.914062" stop-color="#FA8A3A"/>
<stop offset="0.917969" stop-color="#FA8A39"/>
<stop offset="0.921875" stop-color="#FA8938"/>
<stop offset="0.925781" stop-color="#FA8937"/>
<stop offset="0.929688" stop-color="#FA8836"/>
<stop offset="0.933594" stop-color="#FA8835"/>
<stop offset="0.9375" stop-color="#FA8734"/>
<stop offset="1" stop-color="#FA8734"/>
</linearGradient>
</defs>
</svg>
