<svg width="23" height="13" viewBox="0 0 23 13" fill="none" xmlns="http://www.w3.org/2000/svg">
<path d="M23 6.5C23 6.74674 22.899 6.98338 22.7193 7.15785C22.5396 7.33232 22.2958 7.43034 22.0417 7.43034H3.27175L7.38492 11.4233C7.55948 11.5988 7.65608 11.8338 7.6539 12.0777C7.65171 12.3217 7.55093 12.555 7.37324 12.7275C7.19556 12.9 6.9552 12.9978 6.70393 13C6.45265 13.0021 6.21058 12.9083 6.02983 12.7388L0.279833 7.15682C0.191156 7.07123 0.120783 6.96947 0.0727596 6.85739C0.0247345 6.74531 9.53674e-06 6.62511 0 6.50372V6.5C0 6.37906 0.0249157 6.25811 0.074749 6.14461C0.122513 6.03182 0.192875 5.92936 0.281752 5.84318L6.03175 0.261157C6.21249 0.0916882 6.45457 -0.00208453 6.70584 3.51692e-05C6.95711 0.00215487 7.19748 0.0999973 7.37516 0.272489C7.55284 0.444982 7.65363 0.678322 7.65581 0.922254C7.658 1.16619 7.5614 1.40119 7.38683 1.57665L3.27175 5.56966H22.0417C22.2958 5.56966 22.5396 5.66768 22.7193 5.84215C22.899 6.01662 23 6.25326 23 6.5Z" fill="#F35000"/>
</svg>
