<svg width="649" height="216" viewBox="0 0 649 216" fill="none" xmlns="http://www.w3.org/2000/svg">
<path d="M1.54256 391.173L0.599963 391.163C-1.44004 337.26 27.3759 278.087 77.512 232.995C116.517 197.842 167.74 170.725 238.458 147.727C266.97 138.488 296.382 130.444 324.878 122.751C354.681 114.676 385.563 106.3 415.395 96.4111C449.827 85.0851 493.821 68.3025 529.139 39.2478C566.872 8.33653 590.509 -34.1136 613.466 -75.0053C614.889 -77.6256 616.429 -80.2939 617.963 -82.9678L618.814 -82.5274C617.273 -79.8591 615.857 -77.2333 614.316 -74.5649C591.291 -33.523 567.655 8.92705 529.859 39.9941C494.468 69.2047 450.312 85.9276 415.818 97.4094C385.987 107.298 355.11 115.669 325.301 123.749C296.805 131.431 267.387 139.481 238.993 148.671C168.387 171.627 117.399 198.648 78.35 233.693C28.1584 278.678 -0.521655 337.539 1.54256 391.173ZM8.18485 357.133C11.8326 345.263 16.5542 333.738 22.3993 322.671C39.3019 289.836 61.2087 260.304 85.7553 237.325C124.913 200.956 178.137 171.63 244.007 150.423C248.713 148.938 253.424 147.458 258.297 146.049C280.796 139.318 303.973 133.866 326.468 128.691C344.449 124.528 362.889 120.185 380.937 115.22C395.755 111.145 408.793 107.271 420.541 103.515C447.063 94.9346 467.99 86.3876 486.645 76.5538C503.261 67.9054 518.875 57.2179 533.055 45.032C547.674 32.2881 561.458 16.6608 574.944 -2.84465C586.976 -20.0954 597.852 -38.8215 608.344 -56.882C612.36 -63.7536 616.461 -70.7814 620.595 -77.7011L619.744 -78.1301C615.605 -71.2159 611.516 -64.1884 607.488 -57.3166C586.621 -21.2438 564.892 15.9391 532.39 44.3934C518.322 56.5369 502.776 67.0743 486.154 75.7171C467.623 85.5084 446.695 94.0553 420.28 102.588C408.42 106.386 395.499 110.223 380.675 114.293C362.633 119.252 344.187 123.601 326.206 127.764C303.711 132.939 280.423 138.433 257.924 145.164C253.162 146.531 248.339 148.064 243.628 149.544C177.689 170.901 124.311 200.161 85.0904 236.686C60.4204 259.719 38.4019 289.294 21.5487 322.23C15.6978 333.304 10.9142 344.985 7.26647 356.854C3.49462 369.035 1.73924 381.57 1.90712 394.249L2.84972 394.258C2.61397 381.741 4.48695 369.158 8.18485 357.133ZM11.4708 360.47C16.1852 348.299 22.291 337.518 28.2617 327.678C44.299 300.987 66.2179 267.078 93.3957 240.86C132.905 202.808 186.846 172.037 249.356 152.036C254.068 150.557 258.773 149.071 263.535 147.705C285.284 141.401 307.991 137.04 329.916 132.729C348.407 129.139 367.518 125.428 386 120.552C400.682 116.788 413.652 113.065 425.636 109.224C451.631 100.986 473.084 92.0965 491.249 82.0667C507.611 73.1374 522.741 62.248 536.399 49.7581C564.73 23.7337 584.312 -9.38987 603.263 -41.4825C609.388 -51.8863 615.878 -62.7036 622.4 -73.1326L621.661 -73.6154C615.028 -63.1326 608.649 -52.369 602.524 -41.9652C583.524 -9.97456 564.053 23.0953 535.846 49.0771C522.305 61.5189 507.119 72.3007 490.876 81.1818C472.711 91.2117 451.257 100.101 425.374 108.296C413.396 112.143 400.494 115.705 385.856 119.577C367.485 124.411 348.375 128.122 329.884 131.711C307.958 136.022 285.251 140.383 263.502 146.687C258.747 148.059 254.035 149.539 249.324 151.019C186.584 171.11 132.531 201.923 92.9046 240.023C65.615 266.284 43.7401 300.312 27.7028 327.003C21.7815 336.945 15.6818 347.731 10.9613 359.897C5.75267 373.417 3.30817 385.583 3.51749 397.088L4.45428 397.103C3.95359 385.844 6.32999 373.829 11.4708 360.47ZM14.8683 363.754C20.3286 352.711 27.3782 342.58 34.1244 332.696C37.8628 327.352 41.44 321.948 45.4319 316.244C62.3775 291.382 79.7309 265.586 101.036 244.395C141.374 204.215 194.532 172.854 254.643 153.806C259.349 152.32 264.11 150.954 268.866 149.582C290.094 143.615 312.622 140.098 334.301 136.781C353.072 133.856 372.351 130.851 390.927 126.196C405.43 122.636 418.381 119.176 430.52 115.4C456.379 107.463 477.789 98.4654 495.761 87.999C511.874 78.783 526.638 67.655 539.762 54.8613C564.394 30.8168 582.219 1.09245 599.357 -27.7085C607.276 -41.1404 615.555 -54.9801 624.386 -68.1274L623.647 -68.6101C614.816 -55.4514 606.537 -41.6231 598.513 -28.1433C581.48 0.621167 563.772 30.286 539.091 54.2285C525.967 67.0222 511.321 78.102 495.326 87.2698C477.298 97.6287 456.012 106.583 430.19 114.623C418.163 118.356 405.106 121.864 390.715 125.371C372.251 129.983 352.866 133.036 334.201 135.925C312.566 139.35 290.037 142.866 268.654 148.768C263.898 150.129 259.143 151.501 254.431 152.981C194.091 172.131 140.82 203.534 100.409 243.87C79.1476 265.169 61.6387 290.9 44.7428 315.874C40.9121 321.638 37.1737 326.982 33.4354 332.327C26.5655 342.254 19.522 352.39 14.1053 363.54C7.59348 376.806 4.43575 388.872 4.53328 400.42L5.47006 400.435C5.37253 388.887 8.41852 376.864 14.8683 363.754ZM18.3097 367.156C23.4016 358.701 29.4131 351.166 35.7901 343.239C37.1577 341.41 38.675 339.651 40.1484 337.774C48.2464 327.616 55.9827 316.573 64.2084 304.817C77.9179 285.227 92.1723 265.031 108.671 247.936C149.136 206.157 202.856 173.286 259.998 155.413C264.71 153.934 269.465 152.562 274.153 151.351C295.245 145.696 317.589 143.018 339.331 140.455C357.991 138.212 377.438 135.913 395.81 131.72C410.747 128.248 423.743 124.908 435.361 121.457C461.152 113.681 482.4 104.625 500.285 93.931C516.025 84.4823 530.491 72.9543 543.081 59.8567C564.813 37.467 580.825 10.4051 596.273 -15.7988C605.703 -31.6354 615.404 -48.0953 626.285 -63.3492L625.54 -63.826C614.665 -48.578 604.92 -32.2259 595.535 -16.2815C580.042 9.81455 564.03 36.8765 542.528 59.1758C529.938 72.2733 515.54 83.6398 499.911 93.0462C482.139 103.697 461.014 112.712 435.211 120.488C423.598 123.932 410.653 127.387 395.71 130.864C377.332 135.052 358.008 137.308 339.231 139.599C317.495 142.156 295.145 144.828 273.94 150.526C269.253 151.748 264.38 153.157 259.78 154.594C202.527 172.52 148.632 205.59 108.05 247.416C91.5453 264.506 77.2909 284.702 63.4638 304.34C55.1942 315.977 47.4639 327.026 39.4156 337.297C37.9362 339.169 36.4626 341.035 35.0513 342.757C28.6804 350.688 22.7126 358.332 17.4591 366.716C9.58862 379.62 5.83516 391.538 5.90249 403.349L6.84509 403.359C6.7536 391.817 10.507 379.899 18.3097 367.156ZM21.4779 370.53C26.4421 363.674 32.1705 357.671 38.103 351.207C40.5798 348.543 43.2426 345.691 45.7817 342.883C57.0081 330.328 67.1588 315.878 78.0401 300.624C89.8682 283.835 102.13 266.494 116.014 251.723C157.084 207.901 210.016 174.445 265.056 157.273C269.539 155.884 274.182 154.554 279.26 153.313C300.099 148.017 322.276 146.183 343.716 144.508C362.545 142.971 382.155 141.384 400.508 137.454C415.817 134.227 428.354 131.055 439.972 127.616C465.695 119.991 486.832 110.976 504.524 99.846C520.01 90.105 533.991 78.3865 546.172 64.9426C565.306 43.9727 579.864 19.154 593.927 -4.9567C604.419 -23.0172 615.221 -41.5874 627.998 -58.3612L627.259 -58.844C614.489 -42.0645 603.73 -23.3865 593.076 -5.39711C579.125 18.6713 564.567 43.49 545.501 64.2983C533.438 77.7055 519.457 89.424 504.039 99.0149C486.453 110.097 465.439 119.069 439.828 126.641C428.204 130.086 415.623 133.138 400.358 136.485C382.01 140.409 362.512 141.953 343.683 143.49C322.126 145.214 299.949 147.048 278.998 152.386C273.92 153.627 269.277 154.957 264.794 156.346C209.599 173.453 156.481 207.107 115.461 251.042C101.509 265.963 89.2412 283.31 77.4131 300.099C66.6991 315.418 56.4247 329.91 45.2723 342.309C42.6592 345.274 40.0706 347.981 37.5935 350.634C31.6174 356.99 25.9326 363.1 20.8569 370.011C11.7392 382.5 7.32195 394.42 7.16599 406.327L8.10858 406.337C8.07911 394.639 12.5458 382.821 21.4779 370.53ZM24.8755 373.825C29.8042 368.136 35.224 363.284 40.8857 358.084C44.4597 354.865 48.0957 351.491 51.762 347.853C65.6786 334.099 77.4631 317.202 90.108 299.184C100.642 284.069 111.542 268.551 123.722 255.107C165.168 209.333 217.268 175.174 270.411 158.881C275.005 157.449 279.81 156.191 284.498 154.969C305.045 149.919 327.199 148.995 348.578 148.116C367.575 147.285 387.124 146.495 405.453 142.834C420.979 139.774 433.56 136.722 444.993 133.47C470.697 126.119 491.735 116.889 509.11 105.622C524.341 95.6005 537.907 83.5301 549.559 69.7765C566.432 50.088 579.566 27.2489 592.155 5.01571C603.563 -14.9568 615.323 -35.703 629.847 -53.685L629.059 -54.2811C614.466 -36.1376 602.669 -15.505 591.298 4.58114C578.666 26.7065 565.693 49.6053 548.888 69.1437C537.353 82.8491 523.738 94.8061 508.625 104.791C491.299 116.16 470.33 125.24 444.737 132.548C433.298 135.795 420.829 138.804 405.309 141.859C386.98 145.519 367.431 146.31 348.552 147.104C327.055 148.02 304.895 148.95 284.242 154.047C279.499 155.15 274.744 156.522 270.032 158.002C216.777 174.337 164.497 208.701 122.94 254.517C110.642 268.009 99.792 283.64 89.2577 298.755C76.7243 316.72 64.9398 333.616 51.0852 347.214C47.4308 350.852 43.789 354.232 40.2208 357.445C34.5533 362.651 29.1335 367.503 24.2046 373.181C13.8702 385.003 8.6038 397.134 8.4295 409.305L9.37208 409.314C9.56589 397.52 14.7703 385.545 24.8755 373.825ZM28.1992 377.264C33.1847 372.335 38.5375 368.274 44.2558 363.822C48.6732 360.397 53.2142 356.93 57.6742 352.973C73.9035 338.692 86.8328 319.793 100.752 299.735C110.308 285.778 120.347 271.371 131.295 258.793C173.115 211.077 224.433 176.327 275.698 160.65C280.181 159.261 284.862 158.045 289.834 156.851C310.24 152.108 332.222 152.023 353.657 151.903C372.705 151.815 392.305 151.779 410.498 148.43C425.833 145.573 438.395 142.785 449.945 139.496C475.811 132.205 496.737 123.017 513.696 111.399C528.561 101.138 541.76 88.8293 552.873 74.7663C567.836 56.2263 579.627 34.9474 590.966 14.4958C602.966 -7.25064 615.412 -29.8184 631.628 -48.8586L630.846 -49.4492C614.518 -30.3666 602.066 -7.79303 589.954 13.9957C578.659 34.5552 566.936 55.6839 551.973 74.2239C540.928 88.1254 527.728 100.434 512.982 110.658C496.022 122.265 475.326 131.374 449.46 138.654C437.909 141.942 425.347 144.731 410.124 147.545C391.931 150.894 372.331 150.942 353.395 150.976C331.966 151.101 309.817 151.121 289.411 155.853C284.445 157.052 279.757 158.263 275.275 159.652C223.849 175.269 172.507 210.289 130.463 258.1C119.404 270.72 109.476 285.074 99.8025 299.079C86.0067 319.094 73.0656 337.994 56.9101 352.119C52.4441 356.071 47.9091 359.543 43.4917 362.968C37.7734 367.42 32.4203 371.47 27.4409 376.404C19.5316 384.179 9.91167 396.741 9.5315 412.211L10.4683 412.227C11.0352 397.199 20.3578 384.877 28.1992 377.264ZM31.4851 380.601C36.5833 376.259 42.0114 372.694 47.8981 368.948C53.0287 365.624 58.3393 362.107 63.5308 357.986C81.9369 343.489 96.6359 321.831 110.734 300.929C119.559 287.776 128.762 274.221 138.935 262.339C181.051 212.822 231.493 177.26 280.936 162.306C285.579 160.976 290.267 159.766 295.004 158.657C315.118 154.171 337.2 154.942 358.501 155.775C377.482 156.489 397.256 157.153 415.313 154.116C428.546 151.96 441.772 149.169 454.718 145.715C480.448 138.735 501.095 129.525 518.102 117.379C532.712 106.826 545.539 94.2845 556.13 79.9174C569.396 62.43 580.079 42.6267 590.216 23.4178C602.723 0.0536467 615.526 -24.2032 633.385 -43.7629L632.714 -44.3957C614.905 -24.7226 601.984 -0.429068 589.477 22.9351C579.29 42.0305 568.657 61.9473 555.453 79.279C544.936 93.4901 532.153 106.151 517.611 116.542C500.795 128.484 480.142 137.7 454.574 144.74C441.628 148.194 428.396 150.99 415.169 153.14C397.106 156.183 377.461 155.471 358.512 154.866C337.1 154.086 315.018 153.304 294.792 157.844C290.055 158.952 285.367 160.162 280.612 161.534C231.014 176.423 180.343 212.075 138.035 261.785C127.906 273.786 118.715 287.341 109.877 300.494C95.7914 321.396 81.1982 343.006 62.8601 357.353C57.6685 361.474 52.4261 364.841 47.345 368.267C41.6136 372.079 36.0799 375.692 30.8202 379.963C14.8811 393.357 11.1796 406.669 11.0438 415.476L11.9864 415.485C12.3229 399.907 22.831 387.887 31.4851 380.601ZM34.8826 383.885C40.2173 380.099 45.8321 376.976 51.6702 373.757C57.5144 370.544 63.5818 367.235 69.3935 363.004C89.952 348.549 105.337 325.339 120.276 302.68C128.563 290.128 137.109 277.221 146.526 265.761C200.781 199.854 252.515 173.951 286.291 163.914C290.935 162.595 295.622 161.373 300.291 160.427C320.263 156.247 342.29 157.82 363.524 159.443C382.518 160.798 402.225 162.264 420.264 159.49C433.473 157.603 446.743 154.921 459.577 151.509C485.245 144.685 505.848 135.366 522.527 123.096C536.157 113.06 548.197 100.563 559.35 84.6861C571.16 68.172 580.641 49.6114 589.844 31.6686C602.64 6.77694 615.844 -19.0497 635.184 -39.2001L634.52 -39.8387C615.061 -19.6402 601.857 6.1864 588.993 31.2396C579.785 49.1769 570.31 67.7316 558.617 84.2089C547.415 99.9727 535.481 112.422 521.974 122.415C505.295 134.685 484.803 143.962 459.253 150.737C446.375 154.041 433.1 156.719 419.935 158.724C402.007 161.444 382.306 159.984 363.312 158.63C341.961 157.054 319.784 155.41 299.738 159.746C294.951 160.741 290.258 161.957 285.62 163.281C224.125 181.596 175.48 228.935 145.446 265.422C136.023 276.877 127.489 289.783 119.202 302.336C104.431 324.791 89.0578 348.001 68.611 362.413C62.7557 366.536 56.6822 369.84 50.9995 373.124C45.0496 376.385 39.5466 379.466 34.1001 383.294C26.1199 389.028 12.7217 401.163 11.9662 418.586L12.903 418.602C13.9131 401.46 27.1378 389.533 34.8826 383.885ZM38.2743 387.174C43.8696 383.674 49.6652 380.988 55.6961 378.218C62.1796 375.26 68.8488 372.105 75.3738 367.974C98.0168 353.723 114.026 328.847 129.509 304.942C137.324 292.839 145.27 280.419 154.161 269.301C184.236 231.641 232.482 183.046 291.534 165.575C295.893 164.228 300.636 163.125 305.535 162.088C325.209 158.149 347.213 160.632 368.51 163.009C387.555 165.118 407.307 167.332 425.21 164.87C438.474 163.091 451.725 160.672 464.597 157.373C490.247 150.813 510.8 141.381 527.175 128.716C540.365 118.598 552.112 105.707 562.849 89.4776C573.265 73.7698 581.885 56.3193 590.116 39.5402C603.083 13.1692 616.341 -14.1001 637.313 -34.5009L636.642 -35.1451C615.72 -14.6195 602.233 12.7288 589.309 39.2191C581.078 55.9981 572.464 73.4428 562.043 89.1564C551.423 105.337 539.75 118.073 526.56 128.191C510.179 140.862 489.805 150.09 464.317 156.71C451.396 159.906 438.188 162.433 425.041 164.164C407.256 166.578 387.547 164.471 368.615 162.321C347.33 159.943 325.208 157.508 305.366 161.382C300.468 162.419 295.731 163.528 291.248 164.917C231.929 182.365 183.492 231.164 153.36 268.974C144.581 280.05 136.518 292.518 128.708 304.615C113.337 328.477 97.3956 353.192 74.8643 367.401C68.3394 371.532 61.744 374.531 55.3042 377.596C49.1617 380.421 43.4719 383.059 37.7708 386.607C30.793 390.912 14.4054 402.937 13.5464 421.689L14.489 421.699C15.3298 403.221 31.4143 391.443 38.2743 387.174ZM41.4921 390.661C47.38 387.556 53.3186 385.205 59.6539 382.828C66.7331 380.019 74.0914 377.233 81.1063 373.298C105.884 359.365 122.337 333.015 138.271 307.653C145.597 295.995 153.184 283.983 161.442 273.244C205.29 216.478 250.695 180.984 296.518 167.591C301.162 166.261 305.787 165.206 310.568 164.206C330.113 160.583 352.056 163.863 373.397 166.989C392.493 169.852 412.184 172.862 429.957 170.717C443.191 169.202 456.448 166.777 469.308 163.748C494.995 157.301 515.276 147.852 531.513 134.847C544.269 124.652 555.532 111.558 566.033 94.7847C575.339 79.9002 583.043 63.4636 590.432 47.5311C603.341 19.7597 616.709 -8.83324 638.958 -29.3628L638.293 -30.0015C615.852 -9.26782 602.423 19.4809 589.513 47.2522C582.119 63.1792 574.533 79.5791 565.232 94.4577C554.955 111.147 543.692 124.229 531.01 134.279C514.884 147.231 494.672 156.53 469.09 162.929C456.28 166.071 442.985 168.383 429.857 169.85C412.201 171.958 392.554 169.055 373.576 166.144C352.185 162.905 330.248 159.631 310.468 163.35C305.755 164.189 300.95 165.447 296.424 166.729C250.477 180.164 204.854 215.749 160.932 272.671C152.562 283.452 145.026 295.578 137.693 307.242C121.759 332.603 105.374 358.791 80.8204 372.64C73.8112 376.569 66.5027 379.469 59.4855 382.122C53.4351 384.516 47.1058 386.898 41.218 390.003C25.3956 398.333 15.6894 411.32 14.9711 424.726L15.9079 424.742C16.4464 411.528 26.0166 398.852 41.4921 390.661ZM44.8898 393.956C51.0323 391.132 57.5046 389.084 63.8594 387.085C71.516 384.687 79.476 382.055 87.0748 378.269C113.769 364.731 130.71 337.038 147.138 310.317C154.062 298.947 161.345 287.181 169.194 276.737C213.076 218.151 257.805 182.03 302.041 169.264C306.567 167.982 311.298 166.879 316.017 166.046C335.382 162.616 357.308 166.8 378.638 170.836C397.784 174.452 417.526 178.217 435.163 176.372C448.379 175.132 461.562 172.863 474.539 169.786C499.812 163.628 520.625 153.842 536.422 140.754C548.855 130.428 559.708 116.988 569.743 99.7493C577.996 85.5383 584.908 70.0617 591.454 54.9757C604.244 25.9711 617.547 -4.01639 641.241 -24.6096L640.57 -25.2424C616.696 -4.45681 603.393 25.5307 590.535 54.6968C583.94 69.6694 577.078 85.2595 568.893 99.3203C558.969 116.506 548.073 129.838 535.863 140.079C520.289 153.071 499.6 162.814 474.439 168.918C461.579 171.959 448.39 174.223 435.18 175.468C417.655 177.259 397.963 173.608 378.928 169.949C357.598 165.913 335.554 161.778 316.028 165.136C311.315 165.975 306.584 167.078 301.934 168.402C257.475 181.253 212.685 217.541 168.684 276.164C160.773 286.764 153.596 298.493 146.561 309.905C130.201 336.465 113.327 364.008 86.8685 377.449C79.3134 381.343 71.4214 383.826 63.7588 386.217C57.4041 388.217 50.8202 390.318 44.6717 393.137C19.5313 404.647 16.6485 422.387 16.2967 427.548L17.2453 427.563C17.362 422.498 20.1523 405.166 44.8898 393.956ZM47.9404 397.378C48.058 397.33 48.1698 397.288 48.2873 397.24C54.6846 394.707 61.567 393.006 68.1825 391.294C76.4844 389.158 85.0157 386.931 93.055 383.239C121.815 370.168 139.133 341.164 155.943 313.136C162.57 302.018 169.444 290.535 176.946 280.229C221.315 219.008 264.077 183.276 307.39 170.877C311.916 169.596 316.659 168.493 321.415 167.761C340.601 164.536 362.627 169.587 383.885 174.419C402.976 178.826 422.613 183.28 440.226 181.704C453.374 180.614 466.656 178.572 479.554 175.645C504.931 169.708 525.571 159.863 540.958 146.428C553.075 135.966 563.302 122.642 573.013 104.631C580.336 91.0513 586.4 76.4155 592.388 62.2046C605.003 31.8478 618.019 0.561894 643.09 -19.9333L642.537 -20.6143C617.28 0.0791764 604.146 31.4133 591.576 61.8779C585.71 76.0462 579.524 90.7245 572.324 104.262C562.613 122.272 552.448 135.441 540.449 145.855C525.136 159.134 504.602 168.942 479.391 174.945C466.488 177.866 453.373 179.974 440.169 180.956C422.786 182.441 403.148 177.988 384.23 173.64C362.917 168.7 340.774 163.697 321.476 166.965C316.72 167.696 311.977 168.799 307.339 170.123C263.742 182.504 220.917 218.393 176.375 279.812C168.866 290.124 162.036 301.714 155.298 312.874C138.556 340.752 121.3 369.601 92.9361 382.635C84.897 386.339 76.3657 388.565 68.1753 390.647C61.5659 392.366 54.7272 394.175 48.1687 396.647C48.0511 396.695 47.9393 396.738 47.8275 396.78C33.8805 402.302 18.7389 414.101 17.6535 430.747L18.5961 430.757C19.3783 414.357 34.2346 402.81 47.9404 397.378ZM51.5672 400.571C58.337 398.283 65.5857 396.821 72.5676 395.346C81.2856 393.562 90.3448 391.646 98.9175 388.246C129.626 375.702 147.333 345.385 164.402 316.094C170.731 305.217 177.308 293.986 184.469 283.813C212.798 243.624 256.754 188.361 312.677 172.646C317.203 171.365 321.94 170.256 326.591 169.573C345.635 166.665 367.594 172.507 388.685 178.183C407.827 183.345 427.509 188.546 444.88 187.331C458.121 186.462 471.336 184.57 484.171 181.798C509.475 176.017 529.959 166.106 545.253 152.451C557.059 141.589 566.926 128.031 576.059 109.609C582.553 96.6068 588.009 82.7327 593.224 69.2068C605.483 37.7016 618.144 5.26734 644.598 -15.1243L644.045 -15.8053C617.361 4.67682 604.632 37.2727 592.417 68.8856C587.208 82.4057 581.752 96.2797 575.203 109.175C566.019 127.483 556.277 140.998 544.533 151.704C529.357 165.312 508.94 175.073 483.909 180.871C471.118 183.75 457.903 185.643 444.78 186.463C427.576 187.744 407.838 182.435 388.863 177.339C367.499 171.645 345.49 165.689 326.329 168.646C321.572 169.377 316.941 170.438 312.303 171.762C256.157 187.572 212.016 243.034 183.624 283.378C176.463 293.551 169.875 304.782 163.483 315.815C146.476 344.951 128.838 375.106 98.4082 387.684C90.0026 391.138 80.8879 392.947 72.1756 394.725C65.1941 396.211 57.9393 397.668 51.058 400.009C36.7929 404.755 19.7659 416.523 18.576 433.858L19.5127 433.873C20.7961 416.76 37.5754 405.345 51.5672 400.571ZM54.8532 403.908C61.9833 401.853 69.4927 400.677 76.7788 399.597C86.0248 398.123 95.6612 396.618 104.78 393.264C137.437 381.224 155.409 349.649 172.86 319.051C179.01 308.378 185.245 297.28 192.066 287.24C222.578 242.454 264.508 189.027 317.865 174.189C322.397 172.913 327.066 171.966 331.711 171.277C350.469 168.609 372.411 175.367 393.553 181.786C412.696 187.588 432.479 193.657 449.714 192.753C462.937 192.148 476.077 190.411 489.024 187.598C514.378 181.93 534.75 172.062 549.746 158.006C561.211 147.288 570.655 133.373 579.447 114.443C585.166 102.137 590.034 88.7497 594.629 75.9857C606.539 43.3378 618.807 9.64153 646.608 -10.3884L646.049 -11.0635C618.063 9.16465 605.733 43.0166 593.872 75.7779C589.159 88.5787 584.359 101.816 578.684 114.23C569.966 133.004 560.516 146.913 549.168 157.594C534.402 171.548 514.147 181.38 488.911 187C476.076 189.771 462.929 191.502 449.818 192.065C432.75 193.034 412.962 186.97 393.986 181.234C372.683 174.743 350.735 167.991 331.709 170.636C326.947 171.362 322.278 172.309 317.752 173.591C264.048 188.568 222.006 242.036 191.42 286.978C184.6 297.019 178.253 308.159 172.215 318.79C155.264 348.674 137.633 379.476 106.446 391.834C105.87 392.063 105.188 392.329 104.612 392.558C95.6104 395.864 85.9739 397.369 76.7222 398.849C69.4421 399.935 61.9324 401.099 54.6848 403.202C39.5694 407.519 21.407 418.83 20.0627 436.739L21.0056 436.76C22.2633 419.264 39.9613 408.14 54.8532 403.908ZM58.1331 407.24C65.6356 405.429 73.5114 404.492 81.0464 403.698C90.8696 402.635 101.046 401.44 110.531 398.324C145.192 386.908 163.54 354.021 181.139 322.202C186.942 311.667 192.998 300.773 199.526 290.979C235.191 236.941 279.394 180.683 336.936 173.202C355.546 170.846 377.551 178.346 398.675 185.681C417.752 192.285 437.591 199.102 454.685 198.505C499.098 196.867 532.494 185.31 554.196 164.094C575.892 142.883 586.192 112.413 596.085 82.8781C607.522 49.13 619.279 14.2198 648.322 -5.4005L647.768 -6.08147C618.541 13.7371 606.671 48.6895 595.166 82.5992C585.218 112.027 574.992 142.341 553.358 163.396C531.847 184.408 498.563 195.923 454.429 197.572C437.491 198.235 417.819 191.483 398.848 184.842C377.568 177.442 355.52 169.822 336.674 172.275C278.735 179.781 234.359 236.237 198.62 290.431C192.147 300.332 186.091 311.227 180.289 321.773C162.752 353.436 144.633 386.233 110.207 397.553C100.828 400.62 90.6575 401.822 80.8343 402.884C73.1876 403.72 65.3118 404.658 57.8035 406.474C40.5975 410.581 22.5659 422.496 21.0532 439.7L21.99 439.715C23.5777 422.996 41.318 411.327 58.1331 407.24Z" fill="black"/>
</svg>
