<svg width="1197" height="665" viewBox="0 0 1197 665" fill="none" xmlns="http://www.w3.org/2000/svg">
<path d="M1.98516 722.583L0.244063 722.565C-3.52423 622.994 49.7032 513.688 142.312 430.393C214.36 365.458 308.977 315.366 439.603 272.883C492.268 255.818 546.599 240.959 599.234 226.748C654.285 211.832 711.329 196.359 766.433 178.092C830.034 157.171 911.298 126.17 976.534 72.4991C1046.23 15.3991 1089.89 -63.0156 1132.3 -138.552C1134.93 -143.392 1137.77 -148.321 1140.61 -153.26L1142.18 -152.447C1139.33 -147.518 1136.72 -142.667 1133.87 -137.738C1091.34 -61.9248 1047.68 16.4899 977.865 73.8776C912.492 127.836 830.93 158.727 767.215 179.936C712.111 198.203 655.078 213.666 600.016 228.592C547.38 242.782 493.039 257.652 440.591 274.628C310.171 317.033 215.989 366.947 143.86 431.683C51.1485 514.779 -1.82776 623.509 1.98516 722.583ZM14.2545 659.703C20.9924 637.777 29.7138 616.488 40.5106 596.044C71.7323 535.391 112.197 480.838 157.539 438.391C229.87 371.209 328.181 317.038 449.853 277.864C458.545 275.12 467.248 272.387 476.25 269.784C517.809 257.351 560.62 247.28 602.171 237.72C635.385 230.031 669.446 222.008 702.784 212.837C730.155 205.308 754.238 198.153 775.939 191.214C824.928 175.365 863.584 159.577 898.042 141.412C928.734 125.436 957.577 105.694 983.768 83.1838C1010.77 59.643 1036.23 30.7759 1061.14 -5.25501C1083.37 -37.121 1103.46 -71.7123 1122.84 -105.074C1130.26 -117.767 1137.83 -130.749 1145.47 -143.531L1143.9 -144.324C1136.25 -131.552 1128.7 -118.571 1121.26 -105.877C1082.71 -39.2422 1042.58 29.4428 982.54 82.004C956.555 104.436 927.838 123.901 897.134 139.866C862.905 157.953 824.249 173.741 775.455 189.502C753.548 196.518 729.682 203.606 702.3 211.124C668.974 220.284 634.902 228.319 601.688 236.008C560.136 245.567 517.119 255.716 475.56 268.15C466.765 270.674 457.856 273.507 449.153 276.24C327.355 315.692 228.756 369.742 156.31 437.211C110.741 479.757 70.0698 534.389 38.9395 595.23C28.1319 615.685 19.296 637.262 12.558 659.188C5.59096 681.689 2.34855 704.844 2.65859 728.265L4.39971 728.282C3.96427 705.16 7.42389 681.916 14.2545 659.703ZM20.3242 665.868C29.0324 643.384 40.3107 623.469 51.3394 605.293C80.9627 555.989 121.45 493.352 171.652 444.921C244.631 374.63 344.268 317.79 459.734 280.844C468.437 278.111 477.129 275.367 485.924 272.843C526.098 261.198 568.041 253.142 608.541 245.179C642.696 238.548 677.996 231.694 712.136 222.686C739.256 215.733 763.213 208.855 785.349 201.76C833.366 186.543 872.994 170.122 906.547 151.595C936.769 135.101 964.717 114.986 989.945 91.9139C1042.28 43.8412 1078.45 -17.3455 1113.45 -76.6276C1124.77 -95.8458 1136.76 -115.828 1148.8 -135.093L1147.44 -135.984C1135.18 -116.62 1123.4 -96.7374 1112.09 -77.5193C1076.99 -18.4255 1041.03 42.6619 988.923 90.656C963.912 113.639 935.861 133.555 905.857 149.96C872.304 168.488 832.676 184.908 784.865 200.047C762.741 207.153 738.909 213.732 711.869 220.884C677.936 229.814 642.636 236.668 608.481 243.299C567.981 251.262 526.038 259.319 485.864 270.963C477.08 273.498 468.377 276.231 459.674 278.965C343.785 316.077 243.941 372.995 170.745 443.375C120.337 491.884 79.9303 554.742 50.307 604.045C39.3695 622.411 28.1024 642.336 19.383 664.809C9.76192 689.783 5.24663 712.256 5.63327 733.509L7.36361 733.537C6.43876 712.739 10.8284 690.544 20.3242 665.868ZM26.5998 671.933C36.6859 651.535 49.7073 632.821 62.1687 614.562C69.0741 604.69 75.6816 594.708 83.0553 584.171C114.356 538.247 146.411 490.595 185.765 451.451C260.274 377.23 358.466 319.299 469.5 284.113C478.192 281.369 486.987 278.845 495.771 276.311C534.983 265.287 576.596 258.791 616.641 252.665C651.313 247.26 686.925 241.71 721.237 233.111C748.025 226.535 771.949 220.143 794.371 213.169C842.137 198.507 881.684 181.887 914.881 162.553C944.643 145.529 971.915 124.974 996.157 101.341C1041.66 56.9252 1074.58 2.01771 1106.24 -51.184C1120.87 -75.9958 1136.16 -101.561 1152.47 -125.847L1151.11 -126.738C1134.79 -102.431 1119.5 -76.8875 1104.68 -51.9872C1073.22 1.14713 1040.51 55.9446 994.918 100.172C970.676 123.805 943.622 144.271 914.076 161.206C880.777 180.341 841.458 196.883 793.762 211.734C771.546 218.63 747.427 225.11 720.845 231.587C686.739 240.108 650.932 245.746 616.455 251.084C576.492 257.409 534.878 263.905 495.379 274.807C486.595 277.321 477.811 279.855 469.108 282.588C357.65 317.963 259.252 375.972 184.606 450.481C145.333 489.825 112.992 537.355 81.7824 583.489C74.7066 594.136 67.8012 604.008 60.8959 613.88C48.2062 632.217 35.196 650.942 25.1905 671.539C13.1622 696.044 7.32937 718.332 7.50959 739.663L9.23993 739.692C9.05971 718.36 14.6862 696.151 26.5998 671.933ZM32.9565 678.218C42.3622 662.6 53.4662 648.68 65.2455 634.039C67.7718 630.659 70.5743 627.411 73.2959 623.943C88.2541 605.179 102.544 584.78 117.738 563.064C143.062 526.877 169.392 489.57 199.867 457.991C274.612 380.817 373.842 320.097 479.392 287.082C488.095 284.349 496.879 281.815 505.537 279.579C544.498 269.131 585.77 264.185 625.931 259.451C660.399 255.308 696.321 251.062 730.257 243.316C757.847 236.903 781.852 230.732 803.313 224.358C850.952 209.994 890.202 193.264 923.237 173.511C952.312 156.057 979.032 134.762 1002.29 110.568C1042.43 69.2096 1072.01 19.2202 1100.54 -29.1842C1117.96 -58.4379 1135.88 -88.8429 1155.98 -117.02L1154.6 -117.901C1134.51 -89.7346 1116.51 -59.5287 1099.18 -30.0759C1070.56 18.1294 1040.98 68.1188 1001.27 109.31C978.011 133.505 951.416 154.501 922.547 171.877C889.718 191.552 850.697 208.203 803.035 222.567C781.586 228.93 757.673 235.311 730.071 241.734C696.125 249.47 660.431 253.638 625.745 257.87C585.596 262.593 544.312 267.529 505.145 278.054C496.487 280.311 487.486 282.914 478.989 285.569C373.233 318.683 273.682 379.769 198.72 457.032C168.234 488.6 141.904 525.907 116.363 562.183C101.088 583.679 86.8087 604.088 71.9423 623.061C69.2097 626.519 66.4878 629.966 63.8808 633.147C52.1127 647.799 41.0893 661.918 31.3855 677.405C16.8475 701.242 9.91432 723.257 10.0387 745.075L11.7799 745.093C11.6108 723.772 18.5439 701.758 32.9565 678.218ZM38.8086 684.451C47.9784 671.785 58.5596 660.697 69.5177 648.757C74.0929 643.835 79.0114 638.568 83.7016 633.379C104.438 610.188 123.188 583.496 143.288 555.319C165.136 524.306 187.785 492.272 213.431 464.987C289.293 384.039 387.067 322.239 488.734 290.518C497.014 287.951 505.591 285.495 514.971 283.202C553.464 273.42 594.428 270.033 634.031 266.938C668.81 264.099 705.033 261.167 738.934 253.908C767.213 247.946 790.37 242.088 811.831 235.736C859.345 221.649 898.388 204.997 931.068 184.437C959.672 166.444 985.498 144.797 1008 119.963C1043.34 81.227 1070.23 35.3815 1096.21 -9.15641C1115.59 -42.5181 1135.54 -76.8214 1159.14 -107.806L1157.78 -108.698C1134.19 -77.7027 1114.32 -43.2004 1094.64 -9.96995C1068.87 34.4898 1041.98 80.3353 1006.76 118.773C984.476 143.539 958.65 165.186 930.172 182.902C897.687 203.373 858.872 219.947 811.564 233.934C790.093 240.297 766.855 245.935 738.657 252.117C704.766 259.366 668.75 262.219 633.971 265.058C594.151 268.242 553.186 271.629 514.488 281.49C505.108 283.782 496.53 286.239 488.251 288.805C386.296 320.405 288.179 382.571 212.409 463.729C186.637 491.292 163.978 523.336 142.129 554.349C122.339 582.646 103.361 609.417 82.7605 632.321C77.9338 637.797 73.1523 642.797 68.5766 647.698C57.5379 659.439 47.0374 670.726 37.6616 683.491C20.8199 706.562 12.6607 728.58 12.3725 750.576L14.1137 750.593C14.0592 728.985 22.3099 707.155 38.8086 684.451ZM45.0847 690.537C54.1887 680.028 64.1999 671.066 74.6579 661.46C81.2595 655.514 87.9759 649.281 94.748 642.56C120.454 617.154 142.222 585.942 165.579 552.659C185.037 524.737 205.171 496.073 227.67 471.239C304.225 386.685 400.462 323.584 498.626 293.488C507.112 290.843 515.987 288.518 524.645 286.261C562.6 276.933 603.522 275.227 643.012 273.603C678.102 272.068 714.212 270.608 748.069 263.846C776.748 258.193 799.986 252.555 821.104 246.548C868.584 232.969 907.444 215.92 939.539 195.108C967.672 176.595 992.73 154.298 1014.25 128.892C1045.42 92.5234 1069.68 50.3344 1092.93 9.26484C1114.01 -27.6288 1135.73 -65.9517 1162.56 -99.1684L1161.1 -100.27C1134.15 -66.7544 1112.36 -28.6415 1091.35 8.46209C1068.02 49.3325 1044.06 91.6317 1013.01 127.723C991.708 153.04 966.559 175.128 938.643 193.572C906.64 214.573 867.906 231.345 820.631 244.846C799.503 250.842 776.471 256.402 747.803 262.044C713.946 268.806 677.836 270.267 642.963 271.734C603.256 273.426 562.323 275.142 524.173 284.559C515.412 286.596 506.628 289.13 497.925 291.864C399.555 322.038 302.986 385.516 226.224 470.149C203.508 495.071 183.467 523.945 164.008 551.866C140.857 585.051 119.09 616.263 93.498 641.381C86.7477 648.101 80.0207 654.345 73.4297 660.28C62.961 669.897 52.9498 678.859 43.8454 689.347C24.7563 711.184 15.0284 733.593 14.7064 756.076L16.4475 756.094C16.8055 734.308 26.4188 712.186 45.0847 690.537ZM51.2239 696.89C60.433 687.785 70.3204 680.283 80.8831 672.059C89.0426 665.733 97.4305 659.329 105.669 652.019C135.647 625.639 159.529 590.727 185.24 553.676C202.892 527.894 221.435 501.281 241.657 478.047C318.906 389.906 413.697 325.715 508.392 296.756C516.672 294.189 525.319 291.943 534.504 289.739C572.196 280.976 612.799 280.819 652.394 280.599C687.577 280.436 723.781 280.368 757.387 274.182C785.713 268.906 808.917 263.755 830.252 257.68C878.03 244.212 916.684 227.24 948.01 205.778C975.467 186.825 999.847 164.087 1020.37 138.11C1048.01 103.862 1069.79 64.5554 1090.74 26.7767C1112.9 -13.3938 1135.89 -55.0815 1165.85 -90.253L1164.4 -91.3438C1134.24 -56.0942 1111.24 -14.3957 1088.87 25.8529C1068.01 63.8308 1046.35 102.86 1018.71 137.108C998.31 162.787 973.929 185.524 946.69 204.41C915.364 225.851 877.134 242.676 829.356 256.124C808.02 262.199 784.816 267.35 756.697 272.548C723.091 278.734 686.888 278.822 651.91 278.886C612.326 279.117 571.414 279.153 533.722 287.895C524.548 290.109 515.89 292.345 507.61 294.912C412.618 323.76 317.782 388.45 240.12 476.767C219.692 500.08 201.355 526.594 183.486 552.465C158.003 589.437 134.099 624.349 104.257 650.441C96.0079 657.741 87.6312 664.156 79.4717 670.482C68.909 678.705 59.0212 686.186 49.8233 695.302C35.2137 709.662 17.4442 732.868 16.742 761.445L18.4724 761.473C19.5195 733.714 36.7398 710.952 51.2239 696.89ZM57.2936 703.055C66.7107 695.034 76.7371 688.448 87.6108 681.528C97.0879 675.387 106.897 668.891 116.487 661.278C150.486 634.5 177.637 594.492 203.678 555.881C219.98 531.585 236.979 506.546 255.77 484.598C333.565 393.128 426.739 327.437 518.066 299.814C526.644 297.358 535.302 295.122 544.052 293.075C581.206 284.788 621.995 286.213 661.341 287.751C696.401 289.07 732.927 290.296 766.282 284.685C790.725 280.703 815.155 275.548 839.068 269.168C886.595 256.275 924.733 239.261 956.149 216.825C983.135 197.331 1006.83 174.164 1026.39 147.625C1050.9 115.322 1070.63 78.7406 1089.35 43.2576C1112.46 0.0988391 1136.1 -44.7089 1169.09 -80.8401L1167.85 -82.0091C1134.96 -45.6684 1111.09 -0.79286 1087.99 42.3659C1069.17 77.6394 1049.53 114.43 1025.14 146.446C1005.71 172.697 982.103 196.084 955.242 215.279C924.18 237.338 886.031 254.363 838.802 267.366C814.889 273.747 790.448 278.912 766.015 282.884C732.65 288.505 696.363 287.19 661.361 286.071C621.81 284.631 581.021 283.186 543.66 291.572C534.911 293.619 526.252 295.855 517.468 298.389C425.853 325.891 332.256 391.749 254.107 483.575C235.397 505.743 218.42 530.782 202.096 555.078C176.077 593.689 149.121 633.608 115.248 660.109C105.658 667.722 95.9747 673.941 86.5891 680.27C76.0025 687.311 65.7808 693.985 56.0654 701.875C26.6234 726.617 19.7863 751.207 19.5355 767.475L21.2766 767.493C21.8981 738.717 41.3083 716.513 57.2936 703.055ZM63.5692 709.12C73.4232 702.126 83.7946 696.357 94.5785 690.412C105.374 684.476 116.581 678.363 127.316 670.548C165.291 643.847 193.709 600.972 221.304 559.117C236.611 535.929 252.397 512.087 269.791 490.918C370.008 369.174 465.568 321.325 527.958 302.784C536.536 300.349 545.194 298.092 553.818 296.343C590.71 288.621 631.398 291.528 670.62 294.527C705.704 297.029 742.107 299.736 775.427 294.613C799.826 291.128 824.337 286.172 848.043 279.87C895.456 267.265 933.513 250.052 964.322 227.385C989.499 208.847 1011.74 185.762 1032.34 156.434C1054.15 125.929 1071.67 91.6431 1088.67 58.4987C1112.3 12.5182 1136.69 -35.1893 1172.42 -72.4115L1171.19 -73.5912C1135.25 -36.2802 1110.86 11.4274 1087.09 57.7063C1070.08 90.8403 1052.58 125.115 1030.99 155.552C1010.29 184.672 988.249 207.668 963.3 226.127C932.491 248.794 894.641 265.929 847.445 278.445C823.658 284.548 799.136 289.494 774.819 293.198C741.704 298.223 705.312 295.526 670.228 293.024C630.789 290.113 589.825 287.076 552.797 295.085C543.955 296.923 535.286 299.17 526.719 301.615C413.128 335.448 323.275 422.893 267.797 490.293C250.391 511.452 234.627 535.293 219.32 558.481C192.035 599.96 163.639 642.835 125.871 669.457C115.055 677.073 103.836 683.176 93.3396 689.243C82.3493 695.266 72.1843 700.957 62.1239 708.029C47.3833 718.62 22.6348 741.037 21.2394 773.221L22.9697 773.249C24.8355 741.584 49.2634 719.554 63.5692 709.12ZM69.8342 715.196C80.1697 708.731 90.8749 703.769 102.015 698.651C113.991 693.188 126.31 687.36 138.363 679.729C180.188 653.405 209.758 607.452 238.358 563.294C252.795 540.938 267.471 517.996 283.894 497.459C339.448 427.891 428.564 338.126 537.644 305.853C545.695 303.365 554.456 301.328 563.504 299.412C599.846 292.135 640.491 296.722 679.829 301.114C715.007 305.009 751.493 309.099 784.562 304.551C809.063 301.265 833.54 296.796 857.317 290.703C904.695 278.585 942.661 261.162 972.907 237.767C997.272 219.077 1018.97 195.264 1038.8 165.285C1058.04 136.269 1073.96 104.034 1089.17 73.0393C1113.12 24.3262 1137.61 -26.0463 1176.35 -63.731L1175.11 -64.9211C1136.46 -27.0058 1111.55 23.5126 1087.68 72.4461C1072.47 103.441 1056.56 135.665 1037.31 164.691C1017.7 194.581 996.135 218.107 971.771 236.797C941.514 260.203 903.88 277.249 856.799 289.478C832.931 295.382 808.535 300.05 784.251 303.247C751.399 307.706 714.994 303.815 680.022 299.842C640.706 295.45 599.844 290.951 563.193 298.108C554.145 300.024 545.395 302.072 537.115 304.638C427.543 336.868 338.072 427.01 282.414 496.855C266.198 517.313 251.305 540.345 236.879 562.69C208.485 606.77 179.04 652.424 137.422 678.67C125.369 686.301 113.186 691.842 101.291 697.503C89.945 702.721 79.435 707.594 68.9043 714.147C56.0153 722.101 25.7447 744.313 24.1582 778.952L25.8993 778.97C27.4523 744.839 57.1627 723.082 69.8342 715.196ZM75.7781 721.638C86.6538 715.901 97.6235 711.558 109.326 707.168C122.402 701.979 135.994 696.832 148.951 689.564C194.719 663.826 225.11 615.151 254.542 568.303C268.076 546.768 282.089 524.579 297.343 504.742C378.337 399.882 462.207 334.317 546.85 309.577C555.427 307.12 563.971 305.172 572.801 303.324C608.904 296.633 649.436 302.691 688.857 308.465C724.129 313.753 760.502 319.314 793.332 315.353C817.777 312.554 842.265 308.074 866.018 302.479C913.467 290.57 950.928 273.115 980.921 249.091C1004.48 230.259 1025.29 206.073 1044.68 175.088C1061.87 147.593 1076.1 117.231 1089.75 87.8003C1113.6 36.5003 1138.29 -16.3172 1179.39 -54.2399L1178.16 -55.4197C1136.71 -17.12 1111.9 35.9852 1088.06 87.2851C1074.4 116.706 1060.38 147 1043.2 174.484C1024.22 205.312 1003.42 229.478 979.991 248.043C950.204 271.968 912.869 289.145 865.615 300.965C841.953 306.77 817.396 311.04 793.146 313.75C760.534 317.644 724.242 312.282 689.186 306.905C649.674 300.921 609.153 294.874 572.616 301.742C563.911 303.292 555.035 305.617 546.675 307.985C461.805 332.803 377.533 398.536 296.402 503.683C280.941 523.598 267.02 545.997 253.476 567.543C224.044 614.391 193.778 662.767 148.423 688.349C135.476 695.606 121.976 700.963 109.015 705.864C97.8385 710.286 86.1475 714.686 75.2718 720.422C46.0454 735.808 28.1166 759.799 26.7899 784.563L28.5202 784.591C29.5148 760.183 47.1925 736.767 75.7781 721.638ZM82.0542 727.724C93.4002 722.506 105.356 718.724 117.094 715.031C131.237 710.602 145.94 705.74 159.976 698.745C209.283 673.738 240.577 622.583 270.922 573.223C283.711 552.221 297.164 530.487 311.662 511.194C392.72 402.973 475.34 336.248 557.05 312.667C565.41 310.3 574.149 308.263 582.866 306.723C618.636 300.388 659.137 308.116 698.536 315.571C733.903 322.252 770.369 329.206 802.948 325.799C827.359 323.508 851.71 319.316 875.681 313.632C922.363 302.257 960.808 284.18 989.988 260.003C1012.95 240.929 1033 216.103 1051.54 184.259C1066.78 158.008 1079.55 129.419 1091.64 101.552C1115.26 47.9741 1139.84 -7.41943 1183.6 -45.4596L1182.37 -46.6286C1138.27 -8.23297 1113.69 47.1606 1089.94 101.037C1077.76 128.695 1065.08 157.493 1049.97 183.466C1031.64 215.211 1011.51 239.839 988.955 258.756C960.188 282.755 921.972 300.754 875.495 312.029C851.742 317.646 827.38 321.827 802.979 324.129C770.607 327.436 734.232 320.692 699.073 313.933C659.673 306.478 618.955 298.838 582.887 305.043C574.181 306.593 565.442 308.629 556.854 311.075C474.731 334.813 391.996 401.846 310.721 510.135C296.108 529.716 282.851 551.382 269.855 572.463C239.636 621.525 208.468 672.402 159.595 697.231C145.64 704.425 131.062 709.01 116.908 713.429C105.17 717.122 93.0085 721.003 81.6513 726.21C35.2131 747.471 29.8882 780.242 29.2383 789.776L30.9906 789.804C31.2061 780.448 36.3602 748.431 82.0542 727.724ZM87.6891 734.045C87.9063 733.956 88.1127 733.878 88.3299 733.789C100.147 729.112 112.859 725.969 125.079 722.805C140.414 718.86 156.173 714.747 171.023 707.926C224.146 683.782 256.135 630.204 287.187 578.431C299.427 557.894 312.124 536.683 325.982 517.645C407.937 404.556 486.926 338.55 566.931 315.648C575.291 313.28 584.052 311.243 592.838 309.892C628.277 303.933 668.963 313.264 708.228 322.191C743.493 330.332 779.766 338.558 812.3 335.648C836.586 333.635 861.12 329.862 884.943 324.455C931.82 313.488 969.945 295.302 998.368 270.485C1020.75 251.159 1039.64 226.546 1057.58 193.277C1071.1 168.192 1082.3 141.156 1093.37 114.906C1116.67 58.8298 1140.71 1.0377 1187.02 -36.8215L1186 -38.0794C1139.34 0.146003 1115.08 58.027 1091.87 114.302C1081.03 140.474 1069.6 167.588 1056.3 192.595C1038.37 225.864 1019.59 250.189 997.426 269.426C969.141 293.955 931.211 312.074 884.644 323.161C860.809 328.558 836.583 332.451 812.195 334.266C780.085 337.009 743.812 328.782 708.867 320.751C669.499 311.626 628.596 302.384 592.951 308.421C584.165 309.772 575.404 311.809 566.837 314.255C486.306 337.125 407.202 403.419 324.926 516.874C311.058 535.922 298.441 557.333 285.994 577.948C255.069 629.444 223.195 682.734 170.803 706.811C155.954 713.652 140.195 717.765 125.066 721.611C112.857 724.786 100.225 728.127 88.1106 732.695C87.8935 732.783 87.6871 732.862 87.4807 732.94C61.7183 743.141 33.7494 764.937 31.7446 795.685L33.4858 795.703C34.9305 765.409 62.3723 744.079 87.6891 734.045ZM94.3884 739.943C106.893 735.717 120.283 733.015 133.179 730.292C149.283 726.996 166.016 723.456 181.851 717.175C238.575 694.005 271.281 638.002 302.811 583.895C314.502 563.802 326.65 543.056 339.878 524.264C392.206 450.028 473.399 347.943 576.697 318.916C585.057 316.548 593.807 314.501 602.398 313.239C637.575 307.866 678.137 318.658 717.095 329.144C752.453 338.678 788.809 348.287 820.896 346.041C845.355 344.436 869.764 340.941 893.472 335.822C940.212 325.143 978.051 306.835 1006.3 281.61C1028.11 261.545 1046.33 236.502 1063.2 202.473C1075.2 178.454 1085.28 152.825 1094.91 127.84C1117.55 69.643 1140.94 9.72972 1189.81 -27.9382L1188.78 -29.1961C1139.5 8.63887 1115.98 68.8506 1093.42 127.247C1083.8 152.221 1073.72 177.85 1061.62 201.67C1044.66 235.49 1026.66 260.455 1004.97 280.232C976.937 305.368 939.225 323.398 892.989 334.109C869.361 339.427 844.952 342.923 820.711 344.439C788.932 346.805 752.474 336.997 717.424 327.584C677.962 317.066 637.308 306.064 601.914 311.526C593.128 312.877 584.574 314.836 576.007 317.281C472.296 346.486 390.761 448.937 338.318 523.461C325.09 542.253 312.92 562.999 301.114 583.379C269.7 637.2 237.118 692.903 180.911 716.137C165.384 722.517 148.548 725.859 132.455 729.144C119.559 731.888 106.158 734.58 93.4477 738.906C67.098 747.671 35.6465 769.41 33.4485 801.431L35.1788 801.459C37.5493 769.847 68.5434 748.762 94.3884 739.943ZM100.458 746.108C113.628 742.311 127.499 740.139 140.958 738.144C158.037 735.421 175.837 732.64 192.681 726.445C253.003 704.205 286.199 645.879 318.435 589.358C329.794 569.643 341.312 549.142 353.91 530.595C410.27 447.865 487.722 349.175 586.28 321.765C594.651 319.408 603.276 317.659 611.855 316.386C646.504 311.458 687.035 323.941 726.086 335.799C761.447 346.516 797.989 357.727 829.825 356.057C854.249 354.939 878.522 351.732 902.437 346.535C949.269 336.065 986.9 317.836 1014.6 291.872C1035.78 272.073 1053.22 246.37 1069.46 211.402C1080.03 188.67 1089.02 163.94 1097.51 140.362C1119.51 80.0543 1142.17 17.8098 1193.52 -19.1899L1192.49 -20.437C1140.79 16.9289 1118.02 79.4611 1096.11 139.978C1087.4 163.624 1078.54 188.076 1068.05 211.008C1051.95 245.687 1034.49 271.381 1013.53 291.111C986.257 316.887 948.843 335.049 902.228 345.429C878.52 350.549 854.236 353.745 830.018 354.785C798.491 356.576 761.938 345.375 726.887 334.778C687.538 322.789 646.996 310.317 611.853 315.203C603.056 316.543 594.431 318.292 586.071 320.66C486.873 348.326 409.215 447.094 352.718 530.112C340.12 548.659 328.395 569.238 317.243 588.875C285.932 644.078 253.365 700.975 195.758 723.804C194.694 724.227 193.434 724.718 192.37 725.141C175.743 731.247 157.943 734.028 140.853 736.762C127.406 738.767 113.534 740.918 100.147 744.804C72.2266 752.777 38.6778 773.671 36.1948 806.754L37.9363 806.792C40.2597 774.474 72.9505 753.924 100.458 746.108ZM106.517 752.262C120.375 748.917 134.923 747.185 148.841 745.719C166.986 743.756 185.783 741.548 203.304 735.793C267.328 714.704 301.219 653.955 333.727 595.177C344.445 575.718 355.631 555.593 367.691 537.501C433.57 437.682 515.218 333.761 621.507 319.942C655.883 315.59 696.529 329.444 735.549 342.993C770.786 355.193 807.433 367.786 839.007 366.682C921.045 363.657 982.732 342.309 1022.82 303.118C1062.89 263.937 1081.92 207.652 1100.19 153.094C1121.32 90.7537 1143.04 26.2669 1196.68 -9.97612L1195.66 -11.234C1141.67 25.3752 1119.75 89.9402 1098.5 152.579C1080.12 206.938 1061.23 262.935 1021.27 301.828C981.538 340.642 920.057 361.912 838.534 364.958C807.247 366.184 770.909 353.711 735.868 341.444C696.561 327.774 655.834 313.699 621.023 318.229C514.002 332.095 432.032 436.382 366.017 536.489C354.06 554.78 342.874 574.904 332.156 594.385C299.763 652.875 266.295 713.457 202.705 734.368C185.38 740.034 166.594 742.253 148.449 744.216C134.324 745.76 119.777 747.492 105.908 750.847C74.1257 758.434 40.8185 780.443 38.0244 812.222L39.7548 812.25C42.6874 781.367 75.4564 759.812 106.517 752.262Z" fill="black"/>
</svg>
