<svg width="49" height="49" viewBox="0 0 49 49" fill="none" xmlns="http://www.w3.org/2000/svg">
<rect x="0.9375" y="0.0581055" width="48" height="48" rx="24" fill="#F68C1B" fill-opacity="0.5"/>
<mask id="path-2-outside-1_306_349" maskUnits="userSpaceOnUse" x="14.8778" y="12.9907" width="20" height="22" fill="black">
<rect fill="white" x="14.8778" y="12.9907" width="20" height="22"/>
<path d="M32.5205 15.3386H31.2595V14.8876C31.2592 14.6498 31.1646 14.4219 30.9965 14.2537C30.8283 14.0856 30.6003 13.991 30.3625 13.9907H30.2271C29.9894 13.991 29.7614 14.0856 29.5932 14.2537C29.4251 14.4219 29.3305 14.6498 29.3302 14.8876V15.3386H25.9022V14.8876C25.9019 14.6498 25.8073 14.4219 25.6392 14.2537C25.471 14.0856 25.243 13.991 25.0052 13.9907H24.8698C24.632 13.991 24.404 14.0856 24.2359 14.2537C24.0677 14.4219 23.9732 14.6498 23.9729 14.8876V15.3386H20.5448V14.8876C20.5445 14.6498 20.4499 14.4219 20.2818 14.2537C20.1136 14.0856 19.8857 13.991 19.6479 13.9907H19.5125C19.2747 13.991 19.0467 14.0856 18.8786 14.2537C18.7104 14.4219 18.6158 14.6498 18.6156 14.8876V15.3386H17.3545C16.963 15.339 16.5877 15.4948 16.3108 15.7716C16.034 16.0484 15.8783 16.4238 15.8778 16.8153V32.6509C15.8782 33.0419 16.0338 33.4168 16.3102 33.6933C16.5867 33.9697 16.9615 34.1252 17.3525 34.1257H32.5225C32.9135 34.1252 33.2883 33.9697 33.5648 33.6933C33.8413 33.4168 33.9968 33.0419 33.9972 32.6509V16.8153C33.9968 16.4238 33.841 16.0484 33.5642 15.7716C33.2874 15.4948 32.912 15.339 32.5205 15.3386H32.5205ZM29.9201 14.8876C29.9202 14.8062 29.9526 14.7282 30.0101 14.6706C30.0677 14.6131 30.1457 14.5807 30.2271 14.5806H30.3625C30.4439 14.5807 30.522 14.6131 30.5795 14.6706C30.6371 14.7282 30.6695 14.8062 30.6696 14.8876V15.3386H29.9201V14.8876ZM24.5628 14.8876C24.5629 14.8062 24.5952 14.7282 24.6528 14.6706C24.7104 14.6131 24.7884 14.5807 24.8698 14.5806H25.0052C25.0866 14.5807 25.1647 14.6131 25.2222 14.6706C25.2798 14.7282 25.3122 14.8062 25.3123 14.8876V15.3386H24.5627L24.5628 14.8876ZM19.2055 14.8876C19.2056 14.8062 19.2379 14.7282 19.2955 14.6706C19.353 14.6131 19.4311 14.5807 19.5125 14.5806H19.6479C19.7293 14.5807 19.8073 14.6131 19.8649 14.6706C19.9224 14.7282 19.9548 14.8062 19.9549 14.8876V15.3386H19.2055V14.8876ZM33.4073 19.5536H30.8848C30.8065 19.5536 30.7315 19.5846 30.6762 19.6399C30.6209 19.6953 30.5898 19.7703 30.5898 19.8485C30.5898 19.9267 30.6209 20.0017 30.6762 20.0571C30.7315 20.1124 30.8065 20.1434 30.8848 20.1434H33.4073V32.6509C33.4071 32.8855 33.3137 33.1104 33.1479 33.2763C32.982 33.4422 32.7571 33.5355 32.5225 33.5358H17.3525C17.1179 33.5355 16.893 33.4422 16.7272 33.2763C16.5613 33.1104 16.468 32.8855 16.4677 32.6509V20.1434H29.705C29.7832 20.1434 29.8582 20.1124 29.9135 20.0571C29.9688 20.0017 29.9999 19.9267 29.9999 19.8485C29.9999 19.7703 29.9688 19.6953 29.9135 19.6399C29.8582 19.5846 29.7832 19.5536 29.705 19.5536H16.4677V16.8153C16.468 16.5802 16.5615 16.3548 16.7277 16.1885C16.894 16.0223 17.1194 15.9287 17.3545 15.9285H18.6156V16.7957C18.6158 17.0335 18.7104 17.2615 18.8786 17.4296C19.0467 17.5978 19.2747 17.6923 19.5125 17.6926C19.5907 17.6926 19.6657 17.6615 19.721 17.6062C19.7764 17.5509 19.8074 17.4759 19.8074 17.3977C19.8074 17.3194 19.7764 17.2444 19.721 17.1891C19.6657 17.1338 19.5907 17.1027 19.5125 17.1027C19.4311 17.1026 19.353 17.0702 19.2955 17.0127C19.2379 16.9551 19.2056 16.8771 19.2055 16.7957V15.9285H23.9728V16.7957C23.9731 17.0335 24.0677 17.2615 24.2358 17.4296C24.404 17.5978 24.632 17.6923 24.8698 17.6926C24.948 17.6926 25.023 17.6615 25.0783 17.6062C25.1336 17.5509 25.1647 17.4759 25.1647 17.3977C25.1647 17.3194 25.1336 17.2444 25.0783 17.1891C25.023 17.1338 24.948 17.1027 24.8698 17.1027C24.7884 17.1026 24.7103 17.0702 24.6528 17.0127C24.5952 16.9551 24.5628 16.8771 24.5627 16.7957V15.9285H29.3302V16.7957C29.3305 17.0335 29.4251 17.2614 29.5932 17.4296C29.7614 17.5977 29.9893 17.6923 30.2271 17.6926C30.3053 17.6926 30.3804 17.6615 30.4357 17.6062C30.491 17.5509 30.5221 17.4759 30.5221 17.3977C30.5221 17.3194 30.491 17.2444 30.4357 17.1891C30.3804 17.1338 30.3053 17.1027 30.2271 17.1027C30.1457 17.1026 30.0677 17.0703 30.0101 17.0127C29.9525 16.9551 29.9202 16.8771 29.9201 16.7957V15.9285H32.5205C32.7556 15.9287 32.981 16.0223 33.1473 16.1885C33.3135 16.3548 33.407 16.5802 33.4073 16.8153L33.4073 19.5536Z"/>
</mask>
<path d="M32.5205 15.3386H31.2595V14.8876C31.2592 14.6498 31.1646 14.4219 30.9965 14.2537C30.8283 14.0856 30.6003 13.991 30.3625 13.9907H30.2271C29.9894 13.991 29.7614 14.0856 29.5932 14.2537C29.4251 14.4219 29.3305 14.6498 29.3302 14.8876V15.3386H25.9022V14.8876C25.9019 14.6498 25.8073 14.4219 25.6392 14.2537C25.471 14.0856 25.243 13.991 25.0052 13.9907H24.8698C24.632 13.991 24.404 14.0856 24.2359 14.2537C24.0677 14.4219 23.9732 14.6498 23.9729 14.8876V15.3386H20.5448V14.8876C20.5445 14.6498 20.4499 14.4219 20.2818 14.2537C20.1136 14.0856 19.8857 13.991 19.6479 13.9907H19.5125C19.2747 13.991 19.0467 14.0856 18.8786 14.2537C18.7104 14.4219 18.6158 14.6498 18.6156 14.8876V15.3386H17.3545C16.963 15.339 16.5877 15.4948 16.3108 15.7716C16.034 16.0484 15.8783 16.4238 15.8778 16.8153V32.6509C15.8782 33.0419 16.0338 33.4168 16.3102 33.6933C16.5867 33.9697 16.9615 34.1252 17.3525 34.1257H32.5225C32.9135 34.1252 33.2883 33.9697 33.5648 33.6933C33.8413 33.4168 33.9968 33.0419 33.9972 32.6509V16.8153C33.9968 16.4238 33.841 16.0484 33.5642 15.7716C33.2874 15.4948 32.912 15.339 32.5205 15.3386H32.5205ZM29.9201 14.8876C29.9202 14.8062 29.9526 14.7282 30.0101 14.6706C30.0677 14.6131 30.1457 14.5807 30.2271 14.5806H30.3625C30.4439 14.5807 30.522 14.6131 30.5795 14.6706C30.6371 14.7282 30.6695 14.8062 30.6696 14.8876V15.3386H29.9201V14.8876ZM24.5628 14.8876C24.5629 14.8062 24.5952 14.7282 24.6528 14.6706C24.7104 14.6131 24.7884 14.5807 24.8698 14.5806H25.0052C25.0866 14.5807 25.1647 14.6131 25.2222 14.6706C25.2798 14.7282 25.3122 14.8062 25.3123 14.8876V15.3386H24.5627L24.5628 14.8876ZM19.2055 14.8876C19.2056 14.8062 19.2379 14.7282 19.2955 14.6706C19.353 14.6131 19.4311 14.5807 19.5125 14.5806H19.6479C19.7293 14.5807 19.8073 14.6131 19.8649 14.6706C19.9224 14.7282 19.9548 14.8062 19.9549 14.8876V15.3386H19.2055V14.8876ZM33.4073 19.5536H30.8848C30.8065 19.5536 30.7315 19.5846 30.6762 19.6399C30.6209 19.6953 30.5898 19.7703 30.5898 19.8485C30.5898 19.9267 30.6209 20.0017 30.6762 20.0571C30.7315 20.1124 30.8065 20.1434 30.8848 20.1434H33.4073V32.6509C33.4071 32.8855 33.3137 33.1104 33.1479 33.2763C32.982 33.4422 32.7571 33.5355 32.5225 33.5358H17.3525C17.1179 33.5355 16.893 33.4422 16.7272 33.2763C16.5613 33.1104 16.468 32.8855 16.4677 32.6509V20.1434H29.705C29.7832 20.1434 29.8582 20.1124 29.9135 20.0571C29.9688 20.0017 29.9999 19.9267 29.9999 19.8485C29.9999 19.7703 29.9688 19.6953 29.9135 19.6399C29.8582 19.5846 29.7832 19.5536 29.705 19.5536H16.4677V16.8153C16.468 16.5802 16.5615 16.3548 16.7277 16.1885C16.894 16.0223 17.1194 15.9287 17.3545 15.9285H18.6156V16.7957C18.6158 17.0335 18.7104 17.2615 18.8786 17.4296C19.0467 17.5978 19.2747 17.6923 19.5125 17.6926C19.5907 17.6926 19.6657 17.6615 19.721 17.6062C19.7764 17.5509 19.8074 17.4759 19.8074 17.3977C19.8074 17.3194 19.7764 17.2444 19.721 17.1891C19.6657 17.1338 19.5907 17.1027 19.5125 17.1027C19.4311 17.1026 19.353 17.0702 19.2955 17.0127C19.2379 16.9551 19.2056 16.8771 19.2055 16.7957V15.9285H23.9728V16.7957C23.9731 17.0335 24.0677 17.2615 24.2358 17.4296C24.404 17.5978 24.632 17.6923 24.8698 17.6926C24.948 17.6926 25.023 17.6615 25.0783 17.6062C25.1336 17.5509 25.1647 17.4759 25.1647 17.3977C25.1647 17.3194 25.1336 17.2444 25.0783 17.1891C25.023 17.1338 24.948 17.1027 24.8698 17.1027C24.7884 17.1026 24.7103 17.0702 24.6528 17.0127C24.5952 16.9551 24.5628 16.8771 24.5627 16.7957V15.9285H29.3302V16.7957C29.3305 17.0335 29.4251 17.2614 29.5932 17.4296C29.7614 17.5977 29.9893 17.6923 30.2271 17.6926C30.3053 17.6926 30.3804 17.6615 30.4357 17.6062C30.491 17.5509 30.5221 17.4759 30.5221 17.3977C30.5221 17.3194 30.491 17.2444 30.4357 17.1891C30.3804 17.1338 30.3053 17.1027 30.2271 17.1027C30.1457 17.1026 30.0677 17.0703 30.0101 17.0127C29.9525 16.9551 29.9202 16.8771 29.9201 16.7957V15.9285H32.5205C32.7556 15.9287 32.981 16.0223 33.1473 16.1885C33.3135 16.3548 33.407 16.5802 33.4073 16.8153L33.4073 19.5536Z" fill="#F35000"/>
<path d="M32.5205 15.3386H31.2595V14.8876C31.2592 14.6498 31.1646 14.4219 30.9965 14.2537C30.8283 14.0856 30.6003 13.991 30.3625 13.9907H30.2271C29.9894 13.991 29.7614 14.0856 29.5932 14.2537C29.4251 14.4219 29.3305 14.6498 29.3302 14.8876V15.3386H25.9022V14.8876C25.9019 14.6498 25.8073 14.4219 25.6392 14.2537C25.471 14.0856 25.243 13.991 25.0052 13.9907H24.8698C24.632 13.991 24.404 14.0856 24.2359 14.2537C24.0677 14.4219 23.9732 14.6498 23.9729 14.8876V15.3386H20.5448V14.8876C20.5445 14.6498 20.4499 14.4219 20.2818 14.2537C20.1136 14.0856 19.8857 13.991 19.6479 13.9907H19.5125C19.2747 13.991 19.0467 14.0856 18.8786 14.2537C18.7104 14.4219 18.6158 14.6498 18.6156 14.8876V15.3386H17.3545C16.963 15.339 16.5877 15.4948 16.3108 15.7716C16.034 16.0484 15.8783 16.4238 15.8778 16.8153V32.6509C15.8782 33.0419 16.0338 33.4168 16.3102 33.6933C16.5867 33.9697 16.9615 34.1252 17.3525 34.1257H32.5225C32.9135 34.1252 33.2883 33.9697 33.5648 33.6933C33.8413 33.4168 33.9968 33.0419 33.9972 32.6509V16.8153C33.9968 16.4238 33.841 16.0484 33.5642 15.7716C33.2874 15.4948 32.912 15.339 32.5205 15.3386H32.5205ZM29.9201 14.8876C29.9202 14.8062 29.9526 14.7282 30.0101 14.6706C30.0677 14.6131 30.1457 14.5807 30.2271 14.5806H30.3625C30.4439 14.5807 30.522 14.6131 30.5795 14.6706C30.6371 14.7282 30.6695 14.8062 30.6696 14.8876V15.3386H29.9201V14.8876ZM24.5628 14.8876C24.5629 14.8062 24.5952 14.7282 24.6528 14.6706C24.7104 14.6131 24.7884 14.5807 24.8698 14.5806H25.0052C25.0866 14.5807 25.1647 14.6131 25.2222 14.6706C25.2798 14.7282 25.3122 14.8062 25.3123 14.8876V15.3386H24.5627L24.5628 14.8876ZM19.2055 14.8876C19.2056 14.8062 19.2379 14.7282 19.2955 14.6706C19.353 14.6131 19.4311 14.5807 19.5125 14.5806H19.6479C19.7293 14.5807 19.8073 14.6131 19.8649 14.6706C19.9224 14.7282 19.9548 14.8062 19.9549 14.8876V15.3386H19.2055V14.8876ZM33.4073 19.5536H30.8848C30.8065 19.5536 30.7315 19.5846 30.6762 19.6399C30.6209 19.6953 30.5898 19.7703 30.5898 19.8485C30.5898 19.9267 30.6209 20.0017 30.6762 20.0571C30.7315 20.1124 30.8065 20.1434 30.8848 20.1434H33.4073V32.6509C33.4071 32.8855 33.3137 33.1104 33.1479 33.2763C32.982 33.4422 32.7571 33.5355 32.5225 33.5358H17.3525C17.1179 33.5355 16.893 33.4422 16.7272 33.2763C16.5613 33.1104 16.468 32.8855 16.4677 32.6509V20.1434H29.705C29.7832 20.1434 29.8582 20.1124 29.9135 20.0571C29.9688 20.0017 29.9999 19.9267 29.9999 19.8485C29.9999 19.7703 29.9688 19.6953 29.9135 19.6399C29.8582 19.5846 29.7832 19.5536 29.705 19.5536H16.4677V16.8153C16.468 16.5802 16.5615 16.3548 16.7277 16.1885C16.894 16.0223 17.1194 15.9287 17.3545 15.9285H18.6156V16.7957C18.6158 17.0335 18.7104 17.2615 18.8786 17.4296C19.0467 17.5978 19.2747 17.6923 19.5125 17.6926C19.5907 17.6926 19.6657 17.6615 19.721 17.6062C19.7764 17.5509 19.8074 17.4759 19.8074 17.3977C19.8074 17.3194 19.7764 17.2444 19.721 17.1891C19.6657 17.1338 19.5907 17.1027 19.5125 17.1027C19.4311 17.1026 19.353 17.0702 19.2955 17.0127C19.2379 16.9551 19.2056 16.8771 19.2055 16.7957V15.9285H23.9728V16.7957C23.9731 17.0335 24.0677 17.2615 24.2358 17.4296C24.404 17.5978 24.632 17.6923 24.8698 17.6926C24.948 17.6926 25.023 17.6615 25.0783 17.6062C25.1336 17.5509 25.1647 17.4759 25.1647 17.3977C25.1647 17.3194 25.1336 17.2444 25.0783 17.1891C25.023 17.1338 24.948 17.1027 24.8698 17.1027C24.7884 17.1026 24.7103 17.0702 24.6528 17.0127C24.5952 16.9551 24.5628 16.8771 24.5627 16.7957V15.9285H29.3302V16.7957C29.3305 17.0335 29.4251 17.2614 29.5932 17.4296C29.7614 17.5977 29.9893 17.6923 30.2271 17.6926C30.3053 17.6926 30.3804 17.6615 30.4357 17.6062C30.491 17.5509 30.5221 17.4759 30.5221 17.3977C30.5221 17.3194 30.491 17.2444 30.4357 17.1891C30.3804 17.1338 30.3053 17.1027 30.2271 17.1027C30.1457 17.1026 30.0677 17.0703 30.0101 17.0127C29.9525 16.9551 29.9202 16.8771 29.9201 16.7957V15.9285H32.5205C32.7556 15.9287 32.981 16.0223 33.1473 16.1885C33.3135 16.3548 33.407 16.5802 33.4073 16.8153L33.4073 19.5536Z" stroke="#F35000" stroke-width="0.4" mask="url(#path-2-outside-1_306_349)"/>
</svg>
