<svg width="854" height="1012" viewBox="0 0 854 1012" fill="none" xmlns="http://www.w3.org/2000/svg">
<mask id="mask0_266_18825" style="mask-type:luminance" maskUnits="userSpaceOnUse" x="-350" y="-403" width="1204" height="1415">
<path d="M-349.441 721.126L439.997 -402.027L853.318 -111.514L63.879 1011.64L-349.441 721.126Z" fill="white"/>
</mask>
<g mask="url(#mask0_266_18825)">
<mask id="mask1_266_18825" style="mask-type:luminance" maskUnits="userSpaceOnUse" x="-408" y="-219" width="1351" height="1070">
<path d="M942.568 183.626L-165.635 850.18L-407.626 447.84L700.576 -218.714L942.568 183.626Z" fill="white"/>
</mask>
<g mask="url(#mask1_266_18825)">
<mask id="mask2_266_18825" style="mask-type:luminance" maskUnits="userSpaceOnUse" x="-408" y="-219" width="1351" height="1070">
<path d="M942.568 183.626L-165.635 850.18L-407.626 447.84L700.576 -218.714L942.568 183.626Z" fill="white"/>
</mask>
<g mask="url(#mask2_266_18825)">
<mask id="mask3_266_18825" style="mask-type:luminance" maskUnits="userSpaceOnUse" x="-238" y="-218" width="992" height="1068">
<path d="M746.826 -138.139L748.418 -138.365C766.402 -44.7072 733.759 66.1194 661.353 157.842C605.043 229.328 525.954 289.924 412.87 348.353C367.268 371.85 319.824 393.493 273.832 414.287C225.737 436.085 175.905 458.688 128.251 483.663C73.2261 512.335 3.54309 553.009 -48.1927 612.887C-103.503 676.633 -131.921 756.903 -159.613 834.276C-161.306 839.221 -163.185 844.281 -165.051 849.349L-166.605 848.799C-164.727 843.739 -163.045 838.785 -161.167 833.726C-133.401 756.073 -104.982 675.803 -49.6092 611.769C2.20908 551.6 72.1801 510.988 127.268 482.028C174.921 457.053 224.746 434.461 272.849 412.652C318.844 391.878 366.296 370.224 411.713 346.841C524.62 288.514 603.338 228.147 659.752 156.839C732.28 65.2894 764.778 -44.9574 746.826 -138.139ZM744.805 -76.9473C741.854 -55.2667 736.999 -33.9107 730.125 -13.0648C710.472 48.6677 681.487 105.921 646.28 152.404C590.039 226.053 508.172 291.025 402.782 345.073C395.245 348.883 387.697 352.684 379.857 356.402C343.721 373.968 306.096 389.473 269.547 404.319C240.339 416.231 210.406 428.577 181.301 441.908C157.406 452.852 136.458 462.984 117.654 472.578C75.2311 494.412 42.2366 514.745 13.4224 536.74C-12.2728 556.138 -35.7286 578.841 -56.3595 603.791C-77.5805 629.83 -96.6154 660.691 -114.102 698.252C-129.744 731.498 -143.038 767.024 -155.864 801.288C-160.784 814.33 -165.806 827.668 -170.911 840.825L-169.361 841.355C-164.244 828.206 -159.242 814.872 -154.302 801.826C-128.835 733.413 -102.215 662.838 -55.0656 604.735C-34.6118 579.888 -11.2304 557.465 14.4766 538.076C43.0937 516.187 76.0883 495.854 118.345 474.131C137.327 464.434 158.086 454.397 181.993 443.461C211.089 430.141 241.031 417.783 270.239 405.871C306.788 391.026 344.59 375.417 380.726 357.852C388.389 354.236 396.111 350.312 403.659 346.511C509.124 292.183 591.271 227.286 647.574 153.349C682.974 106.739 712.137 49.3833 731.679 -12.5147C738.561 -33.3724 743.479 -55.0164 746.429 -76.697C749.505 -98.9538 749.085 -121.309 745.381 -143.419L743.788 -143.193C747.563 -121.382 747.798 -98.9125 744.805 -76.9473ZM738.362 -81.9306C733.693 -59.4473 726.302 -39.0346 718.886 -20.3008C699.034 30.4728 671.209 95.3763 632.439 148.199C576.059 224.88 493.372 292.56 393.324 343.634C385.775 347.435 378.238 351.244 370.575 354.86C335.589 371.486 298.463 384.964 262.641 398.154C232.419 409.196 201.184 420.609 171.322 433.898C147.572 444.262 126.698 454.115 107.52 463.917C65.8934 485.017 32.1031 506.084 4.16833 528.296C-21.0216 548.119 -43.6062 571.049 -63.2748 596.396C-104.044 649.177 -128.139 712.105 -151.447 773.069C-158.972 792.828 -167.002 813.403 -175.189 833.308L-173.813 833.961C-165.452 813.934 -157.596 793.481 -150.07 773.722C-126.651 712.924 -102.73 650.118 -62.158 597.443C-42.6748 572.21 -19.9675 549.454 5.03714 529.745C32.9719 507.534 66.7622 486.467 108.212 465.47C127.378 455.659 148.181 446.106 171.829 435.565C201.513 422.379 232.748 410.965 262.971 399.923C298.792 386.734 335.919 373.256 370.905 356.63C378.556 353.006 386.104 349.205 393.653 345.404C494.063 294.113 576.928 226.329 633.493 149.534C672.441 96.6088 700.159 31.5083 720.011 -19.2653C727.316 -38.1645 734.695 -58.5854 739.376 -81.0605C744.514 -106.028 745.355 -127.915 741.898 -147.964L740.314 -147.75C744.196 -128.206 743.429 -106.598 738.362 -81.9306ZM731.745 -86.7912C725.513 -66.088 716.355 -46.568 707.642 -27.5567C702.778 -17.2542 698.202 -6.88903 693.007 4.10747C671.13 51.9191 648.818 101.47 618.597 143.993C561.395 224.605 480.186 293.116 383.928 341.906C376.391 345.716 368.728 349.332 361.077 352.956C326.878 368.859 289.825 380.816 254.151 392.203C223.277 402.158 191.567 412.382 161.489 425.308C137.986 435.27 117.072 444.657 97.6144 454.385C56.1364 474.926 22.4488 496.17 -5.04331 519.094C-29.7362 539.354 -51.6384 562.607 -70.3248 588.347C-105.387 636.714 -127.436 693.25 -148.575 747.995C-158.309 773.507 -168.54 799.825 -179.89 825.075L-178.514 825.728C-167.167 800.458 -156.933 774.16 -147.033 748.536C-126.063 693.883 -104.196 637.481 -69.0227 589.279C-50.3363 563.539 -28.6194 540.401 -4.11183 520.256C23.503 497.505 56.9935 476.367 98.3805 455.658C117.661 446.032 138.74 436.534 162.07 426.695C191.971 413.872 223.846 403.537 254.551 393.673C290.122 382.108 327.175 370.152 361.654 354.323C369.309 350.719 376.96 347.095 384.508 343.293C481.126 294.266 562.511 225.652 619.796 144.749C649.914 102.048 672.507 52.5719 694.269 4.57506C699.176 -6.48421 704.04 -16.7867 708.904 -27.0892C717.814 -46.2067 726.961 -65.735 733.089 -86.6152C740.495 -111.475 742.566 -133.372 739.286 -153.524L737.702 -153.309C740.982 -133.157 739.087 -111.363 731.745 -86.7912ZM725.022 -91.8488C718.714 -75.7617 710.606 -61.044 701.988 -45.5495C700.175 -41.9997 698.09 -38.536 696.111 -34.8752C685.191 -15.0376 675.121 6.25326 664.417 28.9171C646.577 66.6835 627.981 105.649 604.763 139.776C547.777 223.214 466.028 294.509 374.461 340.479C366.912 344.28 359.261 347.904 351.681 351.228C317.627 366.552 280.659 376.995 244.676 387.082C213.804 395.815 181.62 404.848 151.761 416.915C127.502 426.835 106.482 436.025 87.8149 445.05C46.4078 465.291 13.0083 486.598 -14.2749 509.896C-38.2771 530.467 -59.5678 554.341 -77.2721 580.475C-107.889 625.202 -127.597 676.618 -146.586 726.389C-158.219 756.493 -170.142 787.756 -184.382 817.216L-182.997 817.857C-168.766 788.409 -156.74 757.323 -145.21 727.042C-126.118 677.448 -106.409 626.032 -76.1553 581.522C-58.451 555.388 -37.2312 531.814 -13.406 511.346C13.7 488.15 46.9025 466.95 88.3295 446.706C106.988 437.692 127.894 428.316 152.161 418.385C182.032 406.327 214.019 397.399 245.076 388.552C281.051 378.477 318.031 368.042 352.261 352.615C359.838 349.271 367.678 345.553 375.05 341.854C466.79 295.761 548.779 224.076 605.951 140.523C629.18 106.405 647.776 67.4391 665.802 29.5582C676.612 7.09142 686.671 -14.2077 697.476 -34.2306C699.466 -37.8832 701.448 -41.524 703.364 -44.8966C711.971 -60.3994 719.976 -75.2942 726.575 -91.2986C736.37 -115.877 739.486 -137.669 736.186 -158.29L734.593 -158.063C737.862 -137.919 734.746 -116.128 725.022 -91.8488ZM718.767 -96.9266C712.243 -83.6657 704.2 -71.6999 695.937 -58.8746C692.478 -53.58 688.755 -47.911 685.23 -42.3484C669.68 -17.5148 656.456 10.3517 642.217 39.8118C626.794 72.1984 610.79 105.662 591.355 135.053C533.9 222.217 453.638 294.33 365.427 338.534C358.241 342.118 350.767 345.639 342.536 349.118C308.813 363.748 271.899 372.673 236.186 381.132C204.839 388.674 172.189 396.506 142.29 408.108C117.337 417.697 97.045 426.472 78.3744 435.478C37.0416 455.439 3.81921 476.643 -23.0213 500.655C-46.5148 521.67 -66.9378 545.753 -83.857 572.385C-110.476 613.962 -128.337 661.083 -145.553 706.84C-158.379 741.103 -171.591 776.338 -188.617 808.943L-187.241 809.596C-170.226 776.982 -157.117 741.571 -143.999 707.39C-126.96 661.736 -109.099 614.615 -82.5514 573.338C-65.821 546.8 -45.398 522.717 -21.9788 501.982C4.69627 478.081 37.7216 456.983 78.8808 437.145C97.5596 428.128 117.957 419.549 142.805 409.763C172.695 398.173 205.169 390.444 236.515 382.901C272.413 374.328 309.328 365.403 343.228 350.671C351.459 347.192 358.933 343.671 366.119 340.087C454.61 295.957 535.131 223.45 592.472 136.1C611.981 106.429 627.994 72.954 643.416 40.5673C657.356 11.0363 670.777 -16.9364 686.244 -41.4783C689.852 -47.3326 693.488 -52.7299 696.951 -58.0044C705.317 -70.6526 713.257 -82.7955 719.955 -96.1791C731.965 -120.354 736.201 -142.32 733.251 -163.167L731.659 -162.94C734.864 -142.508 730.518 -120.707 718.767 -96.9266ZM712.147 -101.807C705.368 -90.5957 697.535 -80.7194 689.388 -70.1726C684.227 -63.6266 679.004 -56.7926 673.801 -49.4898C654.037 -21.868 638.717 10.6958 622.249 45.4411C608.557 74.5695 594.358 104.495 577.439 131.128C519.877 221.8 441.209 294.928 355.961 337.107C348.597 340.793 340.832 344.232 333.255 347.576C299.957 361.7 262.836 369.029 227.011 376.081C195.19 382.434 162.427 388.859 132.496 399.983C107.132 409.336 86.7344 417.914 68.3269 426.546C26.9505 446.021 -6.04638 467.576 -32.3155 491.745C-55.3037 513.185 -74.9299 537.775 -90.8751 564.813C-114.024 603.567 -130.017 646.862 -145.255 688.958C-159.11 726.799 -173.349 766.082 -192.998 801.249L-191.507 802.087C-171.788 766.621 -157.453 727.526 -143.693 689.496C-128.353 647.578 -112.648 604.22 -89.573 565.746C-73.8131 538.823 -54.0725 514.418 -31.273 493.072C-5.11489 468.738 27.8076 447.463 69.007 428.09C87.4261 419.467 107.647 410.991 133.003 401.65C162.934 390.526 195.696 384.101 227.328 377.842C263.342 370.696 300.472 363.356 333.935 349.12C341.638 345.97 349.289 342.346 356.838 338.545C442.263 296.263 521.179 222.733 578.918 131.958C596.022 105.21 610.107 75.0998 623.799 45.9714C640.094 11.3487 655.413 -21.2151 675.115 -48.5489C680.298 -55.8481 685.529 -62.6939 690.681 -69.2282C698.837 -79.7867 706.67 -89.6629 713.453 -100.854C727.695 -124.177 733.306 -146.732 730.316 -168.044L728.724 -167.817C731.579 -147.16 726.031 -124.892 712.147 -101.807ZM705.613 -106.959C698.533 -97.0605 690.599 -88.5833 682.155 -79.3292C675.627 -72.206 668.903 -64.9765 662.447 -56.9111C638.924 -27.7712 622.213 8.58689 604.145 47.2244C591.791 74.0769 578.744 101.841 563.671 126.642C506 220.803 428.811 294.761 346.565 335.379C339.379 338.963 331.81 342.296 323.744 345.664C290.604 359.216 253.547 365.035 217.421 370.774C185.315 375.842 152.263 380.963 122.477 391.508C97.381 400.454 76.9431 408.568 58.3469 417.294C16.6824 436.707 -16.1374 458.159 -41.6097 482.835C-63.9155 504.598 -82.8593 529.51 -97.8107 556.949C-118.05 593.204 -132.197 633.426 -145.807 672.087C-160.182 713.18 -175.088 755.823 -197.305 793.275L-195.825 794.105C-173.432 756.55 -158.518 713.895 -143.965 672.699C-130.459 633.862 -116.385 593.92 -96.1461 557.665C-81.2656 530.525 -62.3219 505.613 -40.2048 483.945C-14.729 459.288 17.7248 438.034 59.3928 418.641C77.989 409.915 98.4269 401.801 123.346 392.957C153.132 382.412 186.18 377.272 218.113 372.327C254.227 366.58 291.583 360.831 324.728 347.299C332.781 343.922 340.362 340.598 347.548 337.014C430.082 296.459 507.239 222.024 565.261 127.638C580.511 102.733 593.385 75.0922 605.924 48.1253C623.795 9.59393 640.526 -26.7676 663.966 -55.6161C670.434 -63.6731 677.146 -70.9108 683.674 -78.0341C692.119 -87.2882 700.056 -95.7455 707.124 -105.652C718.368 -121.277 731.206 -145.709 727.673 -172.838L726.089 -172.623C729.187 -146.219 716.786 -122.284 705.613 -106.959ZM699.17 -111.942C691.741 -103.04 683.547 -95.4106 674.628 -87.3465C666.87 -80.214 658.861 -72.6988 651.215 -64.1589C624.079 -34.0804 605.127 7.55456 586.986 47.7139C575.647 72.9726 563.781 99.0316 549.826 122.417C492.143 219.803 416.65 294.953 337.283 333.837C329.809 337.358 322.229 340.683 314.537 343.842C281.818 356.869 244.362 361.218 208.206 365.258C175.996 368.908 142.461 372.85 112.821 382.815C91.0807 389.996 69.5237 398.284 48.6183 407.659C7.099 426.492 -25.2439 447.912 -50.6559 473.522C-72.453 495.73 -90.7062 520.953 -104.695 548.789C-122.355 582.767 -135.032 620.125 -146.949 656.304C-161.743 700.354 -176.795 746.041 -201.643 784.825L-200.341 785.758C-175.607 746.788 -160.366 701.007 -145.573 656.957C-133.541 620.963 -120.978 583.42 -103.381 549.73C-89.4749 522.186 -71.328 496.766 -49.6018 474.858C-24.4577 449.654 7.89348 428.222 49.1247 409.326C70.0301 399.951 91.5953 391.651 113.327 384.482C142.976 374.505 176.305 370.681 208.433 366.851C244.762 362.688 282.222 358.359 315.115 345.209C322.806 342.05 330.386 338.726 338.038 335.102C417.684 296.292 493.539 220.925 551.494 123.152C565.342 99.57 577.189 73.5144 588.548 48.2523C606.669 8.09642 625.455 -33.4276 652.518 -63.2262C660.163 -71.766 668.098 -79.0014 675.744 -86.2993C684.384 -94.4378 692.744 -102.178 700.463 -110.998C723.736 -138.514 726.389 -162.729 724.242 -178.152L722.649 -177.925C726.284 -150.619 711.802 -126.906 699.17 -111.942ZM692.553 -116.803C684.576 -108.811 675.947 -101.906 666.967 -94.7759C657.976 -87.6539 648.634 -80.3065 639.972 -71.4148C609.193 -40.8549 589.504 3.67004 570.417 47.1149C559.825 71.1859 548.892 95.9429 536.098 118.397C462.361 247.551 382.083 306.158 327.816 332.41C320.339 335.911 312.762 339.255 305.141 342.114C272.579 354.57 234.999 357.504 198.743 360.145C166.338 362.679 132.699 365.202 103.019 374.702C81.247 381.406 59.5872 389.517 38.8589 398.789C-2.59772 417.334 -34.8379 438.932 -59.662 464.675C-79.9468 485.726 -96.8838 510.668 -111.414 541.288C-126.88 573.189 -137.865 608.066 -148.547 641.791C-163.416 688.585 -178.721 737.118 -205.909 777.317L-204.615 778.261C-177.242 737.948 -161.937 689.415 -146.997 642.321C-136.303 608.604 -125.326 573.739 -110.049 541.932C-95.4045 511.498 -78.633 486.667 -58.5452 465.722C-33.7211 439.979 -1.65803 418.484 39.6133 400.054C60.4443 390.958 82.1158 382.855 103.781 375.955C133.288 366.577 166.915 364.046 199.32 361.512C235.761 358.757 273.613 355.909 306.258 343.161C314.064 340.188 321.653 336.852 329.119 333.342C427.909 285.475 497.193 190.212 538.011 118.709C550.816 96.2641 561.73 71.5106 572.321 47.4395C591.18 4.39385 610.849 -40.1276 641.451 -70.5848C650.216 -79.2994 659.57 -86.6387 668.269 -93.8432C677.426 -101.076 685.878 -107.878 694.032 -115.973C705.946 -128.05 725.273 -152.711 721.846 -183.348L720.262 -183.134C723.183 -152.921 704.093 -128.671 692.553 -116.803ZM685.944 -121.675C677.45 -114.117 668.398 -107.928 658.973 -101.531C648.834 -94.6914 638.436 -87.4573 628.544 -78.5563C594.193 -47.8146 573.901 -0.217851 554.233 45.5455C544.314 68.7087 534.262 92.4598 522.265 114.179C481.693 187.743 413.422 285.098 318.523 330.859C311.534 334.337 303.831 337.488 295.848 340.564C263.723 352.523 225.936 353.861 189.371 355.201C156.677 356.43 122.761 357.657 93.2253 366.577C71.3307 373.107 49.6308 380.753 28.808 389.837C-12.6888 407.917 -44.8145 429.699 -69.0189 456.053C-88.5387 477.135 -104.876 502.691 -118.609 533.818C-131.94 563.951 -141.773 596.666 -151.13 628.107C-165.889 677.531 -180.896 728.598 -210.767 769.655L-209.461 770.607C-179.708 729.346 -164.336 678.081 -149.682 628.461C-140.326 597.019 -130.501 564.316 -117.162 534.171C-103.614 503.159 -87.3592 477.894 -67.8394 456.812C-43.6268 430.447 -11.749 409.067 29.4596 390.924C50.3934 382.006 71.9906 374.183 93.6998 367.767C123.05 358.961 156.863 357.557 189.38 356.431C225.925 355.094 263.897 353.642 296.323 341.754C304.306 338.678 311.997 335.519 319.183 331.935C414.538 286.145 483.078 188.384 523.704 114.544C535.524 92.9273 545.762 69.0618 555.672 45.9102C575.163 0.249636 595.385 -47.0473 629.558 -77.6863C639.45 -86.5873 649.766 -93.5298 659.802 -100.547C669.401 -107.066 678.287 -113.144 686.947 -120.813C697.555 -130.137 721.954 -155.375 718.344 -188.362L716.751 -188.136C720.318 -155.634 696.364 -130.904 685.944 -121.675ZM679.575 -126.938C670.481 -119.994 661.098 -114.353 651.053 -108.566C639.869 -101.832 628.209 -95.0651 617.437 -86.3801C579.401 -55.642 558.757 -5.35612 538.722 43.0682C529.508 65.3284 519.952 88.2744 508.919 109.169C450.27 219.667 383.255 293.4 309.572 328.623C302.098 332.144 294.58 335.181 286.786 338.162C254.794 349.534 216.895 349.464 180.053 349.508C147.069 349.433 113.041 349.252 83.6395 357.585C61.7248 363.646 40.0167 371.304 19.142 379.914C-22.4492 397.805 -54.1098 419.548 -77.9908 446.461C-96.7573 467.565 -112.223 493.349 -125.411 525.366C-137.093 553.775 -145.654 584.482 -153.819 614.227C-168.102 666.082 -182.936 719.49 -214.928 761.101L-213.634 762.046C-181.375 720.029 -166.478 666.332 -152.194 614.477C-144.018 584.74 -135.646 554.128 -123.972 525.731C-111.138 493.919 -95.6689 468.155 -76.9884 447.323C-53.2811 420.532 -21.6949 399.07 19.731 381.289C40.4912 372.494 62.2938 365.025 84.0432 359.075C113.256 350.836 147.181 350.84 179.979 351.03C216.936 351.171 254.824 351.232 287.187 339.632C294.91 336.95 302.675 333.512 309.964 330.105C383.844 294.775 451.201 220.829 509.933 110.039C521.143 89.0417 530.585 65.9104 539.806 43.6385C559.842 -4.78588 580.415 -54.772 618.097 -85.3046C628.86 -93.9778 640.406 -100.93 651.527 -107.376C661.088 -113.119 671.121 -118.914 680.215 -125.859C704.658 -144.495 717.526 -169.692 715.121 -193.302L713.537 -193.087C716.194 -169.86 703.47 -145.242 679.575 -126.938ZM672.955 -131.819C663.356 -125.299 652.99 -120.052 642.81 -114.919C630.542 -108.755 617.825 -102.101 606.029 -93.5251C564.653 -62.9844 543.547 -10.2263 523.045 40.7019C514.434 62.3541 505.323 84.7914 494.9 105.066C436.684 218.753 370.98 293.407 299.806 327.125C292.517 330.531 284.834 333.679 277.099 336.352C245.358 347.341 207.244 345.687 170.175 344.138C136.903 342.759 102.585 341.274 73.3324 349.047C51.3741 354.623 29.7485 361.989 8.68856 370.714C-32.2806 387.993 -64.7486 410.462 -87.8646 437.406C-106.051 458.655 -120.732 484.939 -133.009 517.649C-143.096 544.609 -150.579 573.434 -157.551 601.482C-171.3 655.461 -185.65 711.29 -220.062 753.385L-218.76 754.318C-184.097 711.84 -169.747 656.012 -155.927 601.733C-148.84 573.87 -141.472 544.859 -131.459 518.179C-119.356 485.591 -104.572 459.485 -86.7396 438.441C-63.9743 411.723 -31.7033 389.361 9.09221 372.204C29.9634 363.573 51.6006 356.216 73.5473 350.631C102.627 342.981 136.83 344.28 169.925 345.763C206.994 347.312 245.293 348.851 277.325 337.945C285.049 335.263 292.732 332.116 300.218 328.603C371.746 294.679 437.509 219.718 495.914 105.936C506.399 85.3734 515.341 63.0271 524.13 41.2722C544.561 -9.35617 565.593 -61.8344 606.598 -92.1462C618.291 -100.9 630.934 -107.273 643.214 -113.429C653.394 -118.562 663.933 -123.932 673.544 -130.444C712.846 -157.04 712.923 -188.782 712.124 -197.891L710.52 -197.672C711.689 -188.792 711.659 -157.788 672.955 -131.819ZM666.886 -137.011C666.701 -136.897 666.523 -136.794 666.338 -136.679C656.23 -130.605 645.08 -125.857 634.383 -121.157C620.955 -115.283 607.165 -109.192 594.6 -100.667C549.613 -70.4093 528.226 -15.2618 507.431 38.0476C499.253 59.1827 490.756 81.0202 480.881 100.963C422.556 219.381 360.063 292.848 290.347 325.685C283.058 329.092 275.355 332.243 267.529 334.748C236.037 345.334 197.519 342.19 160.358 339.231C126.965 336.455 92.6384 333.74 63.3535 341.036C41.4695 346.333 19.615 353.328 -1.35065 361.77C-42.557 378.69 -74.7169 401.218 -97.0478 428.661C-114.663 450.068 -128.32 475.988 -139.841 509.962C-148.531 535.58 -154.81 562.717 -161.078 589.092C-174.166 645.389 -187.682 703.412 -224.443 745.691L-223.326 746.739C-186.305 704.065 -172.604 645.927 -159.619 589.454C-153.548 563.184 -147.072 535.941 -138.579 510.43C-127.057 476.455 -113.464 450.823 -96.0337 429.532C-73.7855 402.38 -41.7944 379.943 -0.887848 362.951C20.0896 354.518 41.6442 347.452 63.6509 342.329C92.5734 335.25 126.9 337.965 159.985 340.681C197.269 343.815 235.972 346.844 267.641 336.155C275.467 333.65 283.171 330.499 290.636 326.99C360.837 294.109 423.393 220.354 481.958 101.545C491.841 81.5905 500.235 59.5759 508.591 38.338C529.311 -14.6915 550.635 -69.551 594.963 -99.6419C607.525 -108.187 621.315 -114.279 634.569 -120.03C645.254 -124.738 656.302 -129.663 666.698 -135.675C666.883 -135.789 667.061 -135.892 667.238 -135.995C689.274 -149.242 711.632 -173.765 708.972 -203.13L707.379 -202.903C710.485 -174.047 688.54 -150.038 666.886 -137.011ZM659.907 -141.655C649.105 -135.91 637.272 -131.485 625.892 -127.108C611.668 -121.741 596.904 -116.055 583.36 -107.903C534.944 -78.0631 513.255 -20.5227 492.365 35.0616C484.624 55.6997 476.56 77.0202 467.225 96.643C430.281 174.172 371.045 282.073 280.951 323.958C273.663 327.365 265.971 330.524 258.311 332.918C226.971 342.912 188.353 338.37 151.245 333.892C117.563 329.812 82.9592 325.801 53.9849 332.406C31.8838 337.34 10.1036 344.056 -10.7994 352.209C-51.9231 368.838 -83.8033 391.44 -105.917 419.246C-122.901 441.271 -135.887 467.505 -146.324 502.05C-153.769 526.445 -159.23 552.094 -164.376 577.073C-176.555 635.284 -189.162 695.223 -228.284 737.678L-227.167 738.725C-187.683 696.053 -175.005 635.815 -162.929 577.426C-157.791 552.459 -152.33 526.809 -144.762 502.588C-134.21 468.229 -121.422 442.101 -104.5 420.364C-82.572 392.673 -50.7662 370.351 -10.1077 353.762C10.6926 345.431 32.4727 338.716 54.3886 333.896C83.0631 327.22 117.79 331.405 151.172 335.414C188.745 339.851 227.478 344.579 259.002 334.47C266.828 331.965 274.354 328.917 281.82 325.408C372.264 283.298 431.76 175.002 468.767 97.1848C478.102 77.562 486.186 56.238 493.99 35.3119C514.817 -19.9844 536.435 -77.225 584.371 -107.052C597.618 -115.256 612.505 -120.768 626.721 -126.123C638.097 -130.52 649.941 -134.937 660.917 -140.804C683.7 -152.776 709.246 -177.732 706.577 -208.327L704.992 -208.112C707.445 -177.879 682.22 -153.606 659.907 -141.655ZM653.463 -146.638C641.991 -141.208 629.641 -137.215 617.642 -133.449C602.443 -128.487 586.594 -123.371 572.117 -115.158C520.278 -85.697 498.482 -25.8899 477.299 32.0755C469.806 52.3111 462.281 73.3116 453.486 92.6145C414.1 178.74 357.785 282.909 271.784 322.601C264.484 326 256.863 328.859 249.214 331.261C218.292 340.762 179.456 334.615 142.062 328.853C108.205 323.654 73.1975 318.153 44.3684 324.179C22.2271 328.648 0.5296 335.072 -20.5506 343.328C-61.7887 359.772 -93.4917 382.271 -114.994 410.699C-131.442 432.384 -143.619 459.134 -153.342 494.478C-159.669 517.456 -164.268 542.103 -168.576 565.591C-179.858 625.709 -191.461 687.751 -232.953 729.921L-231.828 730.957C-190.077 688.392 -178.411 626.062 -167.244 565.759C-162.746 542.176 -158.222 517.809 -151.997 494.654C-142.357 459.601 -130.168 432.86 -113.909 411.269C-92.7658 383.078 -61.2516 360.674 -20.1987 344.344C0.704343 336.191 22.4136 329.775 44.3778 325.409C72.9071 319.312 107.923 324.802 141.48 329.93C179.165 335.775 218.01 341.91 249.389 332.38C257.227 329.883 264.847 327.024 272.136 323.618C358.685 283.594 415.177 179.322 454.645 92.9049C463.441 73.602 471.142 52.4988 478.458 32.366C498.989 -24.223 520.42 -82.591 569.692 -112.231C570.602 -112.78 571.681 -113.42 572.591 -113.968C586.883 -122.067 602.732 -127.183 617.939 -132.156C629.926 -135.931 642.28 -139.903 653.938 -145.448C678.271 -156.889 705.856 -181.338 703.291 -212.978L701.695 -212.772C704.294 -181.877 677.442 -157.873 653.463 -146.638ZM647.032 -151.613C634.865 -146.513 621.833 -142.843 609.337 -139.513C593.053 -135.122 576.21 -130.407 561.051 -122.517C505.663 -93.6272 483.586 -31.4307 462.485 28.7069C455.539 48.6108 448.262 69.2088 439.892 88.0064C394.31 191.626 334.927 301.329 239.881 329.246C209.124 338.164 169.982 330.736 132.37 323.369C98.4093 316.751 63.1041 309.957 34.432 315.412C-40.0445 329.731 -93.2597 358.539 -124.143 401.209C-155.018 443.868 -164.172 499.765 -172.891 553.924C-183.079 615.842 -193.493 679.873 -237.189 721.648L-236.072 722.695C-192.116 680.526 -181.525 616.392 -171.267 554.174C-162.425 500.189 -153.353 444.583 -122.541 402.213C-91.9257 359.949 -38.8876 331.243 35.1154 316.976C63.5078 311.447 98.5132 318.17 132.305 324.879C170.197 332.32 209.445 339.945 240.573 330.798C336.281 302.736 395.904 192.642 441.568 88.7301C449.816 69.7589 457.092 49.1609 464.035 29.2371C485.074 -30.6124 506.788 -92.5917 561.805 -121.253C576.799 -129.032 593.63 -133.755 609.914 -138.146C622.587 -141.579 635.619 -145.249 647.794 -150.36C675.71 -161.975 702.912 -187.445 700.822 -217.895L699.238 -217.681C701.07 -188.058 674.293 -163.093 647.032 -151.613Z" fill="white"/>
</mask>
<g mask="url(#mask3_266_18825)">
<path d="M1142.56 367.142L616.146 -508.054L-635.427 244.724L-109.022 1119.93L1142.56 367.142Z" fill="url(#paint0_linear_266_18825)"/>
</g>
</g>
</g>
</g>
<defs>
<linearGradient id="paint0_linear_266_18825" x1="887.318" y1="-57.2164" x2="-364.258" y2="695.572" gradientUnits="userSpaceOnUse">
<stop stop-color="#FEFFFF"/>
<stop offset="0.03125" stop-color="#FEFFFF"/>
<stop offset="0.046875" stop-color="#FEFFFF"/>
<stop offset="0.0546875" stop-color="#FEFFFF"/>
<stop offset="0.0585937" stop-color="#FEFEFE"/>
<stop offset="0.0625" stop-color="#FEFEFD"/>
<stop offset="0.0664062" stop-color="#FEFDFC"/>
<stop offset="0.0703125" stop-color="#FEFDFB"/>
<stop offset="0.0742187" stop-color="#FEFCFA"/>
<stop offset="0.078125" stop-color="#FEFCF9"/>
<stop offset="0.0820312" stop-color="#FEFBF8"/>
<stop offset="0.0859375" stop-color="#FEFAF7"/>
<stop offset="0.0898438" stop-color="#FEFAF6"/>
<stop offset="0.09375" stop-color="#FEF9F6"/>
<stop offset="0.0976562" stop-color="#FEF9F5"/>
<stop offset="0.101562" stop-color="#FEF8F4"/>
<stop offset="0.105469" stop-color="#FEF8F3"/>
<stop offset="0.109375" stop-color="#FEF7F2"/>
<stop offset="0.113281" stop-color="#FEF7F1"/>
<stop offset="0.117187" stop-color="#FEF6F0"/>
<stop offset="0.121094" stop-color="#FEF6EF"/>
<stop offset="0.125" stop-color="#FEF5EE"/>
<stop offset="0.128906" stop-color="#FEF5EE"/>
<stop offset="0.132812" stop-color="#FEF4ED"/>
<stop offset="0.136719" stop-color="#FEF4EC"/>
<stop offset="0.140625" stop-color="#FEF3EB"/>
<stop offset="0.144531" stop-color="#FEF3EA"/>
<stop offset="0.148438" stop-color="#FEF2E9"/>
<stop offset="0.152344" stop-color="#FEF1E8"/>
<stop offset="0.15625" stop-color="#FEF1E7"/>
<stop offset="0.160156" stop-color="#FDF0E6"/>
<stop offset="0.164062" stop-color="#FDF0E5"/>
<stop offset="0.167969" stop-color="#FDEFE5"/>
<stop offset="0.171875" stop-color="#FDEFE4"/>
<stop offset="0.175781" stop-color="#FDEEE3"/>
<stop offset="0.179687" stop-color="#FDEEE2"/>
<stop offset="0.183594" stop-color="#FDEDE1"/>
<stop offset="0.1875" stop-color="#FDEDE0"/>
<stop offset="0.191406" stop-color="#FDECDF"/>
<stop offset="0.195312" stop-color="#FDECDE"/>
<stop offset="0.199219" stop-color="#FDEBDD"/>
<stop offset="0.203125" stop-color="#FDEBDC"/>
<stop offset="0.207031" stop-color="#FDEADC"/>
<stop offset="0.210937" stop-color="#FDEADB"/>
<stop offset="0.214844" stop-color="#FDE9DA"/>
<stop offset="0.21875" stop-color="#FDE8D9"/>
<stop offset="0.222656" stop-color="#FDE8D8"/>
<stop offset="0.226562" stop-color="#FDE7D7"/>
<stop offset="0.230469" stop-color="#FDE7D6"/>
<stop offset="0.234375" stop-color="#FDE6D5"/>
<stop offset="0.238281" stop-color="#FDE6D4"/>
<stop offset="0.242188" stop-color="#FDE5D4"/>
<stop offset="0.246094" stop-color="#FDE5D3"/>
<stop offset="0.25" stop-color="#FDE4D2"/>
<stop offset="0.253906" stop-color="#FDE4D1"/>
<stop offset="0.257812" stop-color="#FDE3D0"/>
<stop offset="0.261719" stop-color="#FDE3CF"/>
<stop offset="0.265625" stop-color="#FDE2CE"/>
<stop offset="0.269531" stop-color="#FDE2CD"/>
<stop offset="0.273437" stop-color="#FDE1CC"/>
<stop offset="0.277344" stop-color="#FDE1CB"/>
<stop offset="0.28125" stop-color="#FDE0CB"/>
<stop offset="0.285156" stop-color="#FDDFCA"/>
<stop offset="0.289062" stop-color="#FDDFC9"/>
<stop offset="0.292969" stop-color="#FDDEC8"/>
<stop offset="0.296875" stop-color="#FDDEC7"/>
<stop offset="0.300781" stop-color="#FDDDC6"/>
<stop offset="0.304688" stop-color="#FDDDC5"/>
<stop offset="0.308594" stop-color="#FDDCC4"/>
<stop offset="0.3125" stop-color="#FDDCC3"/>
<stop offset="0.316406" stop-color="#FDDBC3"/>
<stop offset="0.320312" stop-color="#FDDBC2"/>
<stop offset="0.324219" stop-color="#FDDAC1"/>
<stop offset="0.328125" stop-color="#FDDAC0"/>
<stop offset="0.332031" stop-color="#FDD9BF"/>
<stop offset="0.335938" stop-color="#FDD9BE"/>
<stop offset="0.339844" stop-color="#FDD8BD"/>
<stop offset="0.34375" stop-color="#FDD8BC"/>
<stop offset="0.347656" stop-color="#FDD7BB"/>
<stop offset="0.351563" stop-color="#FDD6BA"/>
<stop offset="0.355469" stop-color="#FDD6BA"/>
<stop offset="0.359375" stop-color="#FDD5B9"/>
<stop offset="0.363281" stop-color="#FDD5B8"/>
<stop offset="0.367187" stop-color="#FDD4B7"/>
<stop offset="0.371094" stop-color="#FDD4B6"/>
<stop offset="0.375" stop-color="#FCD3B5"/>
<stop offset="0.378906" stop-color="#FCD3B4"/>
<stop offset="0.382812" stop-color="#FCD2B3"/>
<stop offset="0.386719" stop-color="#FCD2B2"/>
<stop offset="0.390625" stop-color="#FCD1B2"/>
<stop offset="0.394531" stop-color="#FCD1B1"/>
<stop offset="0.398438" stop-color="#FCD0B0"/>
<stop offset="0.40615" stop-color="#FCD0AF"/>
<stop offset="0.40625" stop-color="#FCCFAE"/>
<stop offset="0.410156" stop-color="#FCCEAD"/>
<stop offset="0.414063" stop-color="#FCCEAC"/>
<stop offset="0.417969" stop-color="#FCCDAB"/>
<stop offset="0.421875" stop-color="#FCCDAA"/>
<stop offset="0.425781" stop-color="#FCCCA9"/>
<stop offset="0.429687" stop-color="#FCCCA9"/>
<stop offset="0.433594" stop-color="#FCCBA8"/>
<stop offset="0.4375" stop-color="#FCCBA7"/>
<stop offset="0.441406" stop-color="#FCCAA6"/>
<stop offset="0.445312" stop-color="#FCCAA5"/>
<stop offset="0.449219" stop-color="#FCC9A4"/>
<stop offset="0.453125" stop-color="#FCC9A3"/>
<stop offset="0.457031" stop-color="#FCC8A2"/>
<stop offset="0.460938" stop-color="#FCC8A1"/>
<stop offset="0.464844" stop-color="#FCC7A0"/>
<stop offset="0.46875" stop-color="#FCC7A0"/>
<stop offset="0.472656" stop-color="#FCC69F"/>
<stop offset="0.476562" stop-color="#FCC59E"/>
<stop offset="0.480469" stop-color="#FCC59D"/>
<stop offset="0.484375" stop-color="#FCC49C"/>
<stop offset="0.488281" stop-color="#FCC49B"/>
<stop offset="0.492187" stop-color="#FCC39A"/>
<stop offset="0.496094" stop-color="#FCC399"/>
<stop offset="0.5" stop-color="#FCC298"/>
<stop offset="0.503906" stop-color="#FCC298"/>
<stop offset="0.507813" stop-color="#FCC197"/>
<stop offset="0.511719" stop-color="#FCC196"/>
<stop offset="0.515625" stop-color="#FCC095"/>
<stop offset="0.519531" stop-color="#FCC094"/>
<stop offset="0.523438" stop-color="#FCBF93"/>
<stop offset="0.527344" stop-color="#FCBF92"/>
<stop offset="0.53125" stop-color="#FCBE91"/>
<stop offset="0.535156" stop-color="#FCBE90"/>
<stop offset="0.539062" stop-color="#FCBD8F"/>
<stop offset="0.542969" stop-color="#FCBC8F"/>
<stop offset="0.546875" stop-color="#FCBC8E"/>
<stop offset="0.550781" stop-color="#FCBB8D"/>
<stop offset="0.554688" stop-color="#FCBB8C"/>
<stop offset="0.558594" stop-color="#FCBA8B"/>
<stop offset="0.5625" stop-color="#FCBA8A"/>
<stop offset="0.566406" stop-color="#FCB989"/>
<stop offset="0.570312" stop-color="#FCB988"/>
<stop offset="0.574219" stop-color="#FCB887"/>
<stop offset="0.578125" stop-color="#FCB887"/>
<stop offset="0.582031" stop-color="#FCB786"/>
<stop offset="0.585938" stop-color="#FCB785"/>
<stop offset="0.589844" stop-color="#FCB684"/>
<stop offset="0.59375" stop-color="#FBB683"/>
<stop offset="0.597656" stop-color="#FBB582"/>
<stop offset="0.601562" stop-color="#FBB581"/>
<stop offset="0.605469" stop-color="#FBB480"/>
<stop offset="0.609375" stop-color="#FBB37F"/>
<stop offset="0.613281" stop-color="#FBB37E"/>
<stop offset="0.617188" stop-color="#FBB27E"/>
<stop offset="0.621094" stop-color="#FBB27D"/>
<stop offset="0.625" stop-color="#FBB17C"/>
<stop offset="0.628906" stop-color="#FBB17B"/>
<stop offset="0.632812" stop-color="#FBB07A"/>
<stop offset="0.636719" stop-color="#FBB079"/>
<stop offset="0.640625" stop-color="#FBAF78"/>
<stop offset="0.644531" stop-color="#FBAF77"/>
<stop offset="0.648438" stop-color="#FBAE76"/>
<stop offset="0.652344" stop-color="#FBAE76"/>
<stop offset="0.65625" stop-color="#FBAD75"/>
<stop offset="0.660156" stop-color="#FBAD74"/>
<stop offset="0.664063" stop-color="#FBAC73"/>
<stop offset="0.667969" stop-color="#FBAC72"/>
<stop offset="0.671875" stop-color="#FBAB71"/>
<stop offset="0.675781" stop-color="#FBAA70"/>
<stop offset="0.679688" stop-color="#FBAA6F"/>
<stop offset="0.683594" stop-color="#FBA96E"/>
<stop offset="0.6875" stop-color="#FBA96D"/>
<stop offset="0.691406" stop-color="#FBA86D"/>
<stop offset="0.695313" stop-color="#FBA86C"/>
<stop offset="0.699219" stop-color="#FBA76B"/>
<stop offset="0.703125" stop-color="#FBA76A"/>
<stop offset="0.707031" stop-color="#FBA669"/>
<stop offset="0.710938" stop-color="#FBA668"/>
<stop offset="0.714844" stop-color="#FBA567"/>
<stop offset="0.71875" stop-color="#FBA566"/>
<stop offset="0.722656" stop-color="#FBA465"/>
<stop offset="0.726562" stop-color="#FBA465"/>
<stop offset="0.730469" stop-color="#FBA364"/>
<stop offset="0.734375" stop-color="#FBA363"/>
<stop offset="0.738281" stop-color="#FBA262"/>
<stop offset="0.742188" stop-color="#FBA161"/>
<stop offset="0.746094" stop-color="#FBA160"/>
<stop offset="0.75" stop-color="#FBA05F"/>
<stop offset="0.753906" stop-color="#FBA05E"/>
<stop offset="0.757812" stop-color="#FB9F5D"/>
<stop offset="0.761719" stop-color="#FB9F5C"/>
<stop offset="0.765625" stop-color="#FB9E5C"/>
<stop offset="0.769531" stop-color="#FB9E5B"/>
<stop offset="0.773438" stop-color="#FB9D5A"/>
<stop offset="0.777344" stop-color="#FB9D59"/>
<stop offset="0.78125" stop-color="#FB9C58"/>
<stop offset="0.785156" stop-color="#FB9C57"/>
<stop offset="0.789062" stop-color="#FB9B56"/>
<stop offset="0.792969" stop-color="#FB9B55"/>
<stop offset="0.796875" stop-color="#FB9A54"/>
<stop offset="0.800781" stop-color="#FB9A53"/>
<stop offset="0.804688" stop-color="#FB9953"/>
<stop offset="0.808594" stop-color="#FA9852"/>
<stop offset="0.8125" stop-color="#FA9851"/>
<stop offset="0.816406" stop-color="#FA9750"/>
<stop offset="0.820313" stop-color="#FA974F"/>
<stop offset="0.824219" stop-color="#FA964E"/>
<stop offset="0.828125" stop-color="#FA964D"/>
<stop offset="0.832031" stop-color="#FA954C"/>
<stop offset="0.835938" stop-color="#FA954B"/>
<stop offset="0.839844" stop-color="#FA944B"/>
<stop offset="0.84375" stop-color="#FA944A"/>
<stop offset="0.847656" stop-color="#FA9349"/>
<stop offset="0.851562" stop-color="#FA9348"/>
<stop offset="0.855469" stop-color="#FA9247"/>
<stop offset="0.859375" stop-color="#FA9246"/>
<stop offset="0.863281" stop-color="#FA9145"/>
<stop offset="0.867188" stop-color="#FA9144"/>
<stop offset="0.871094" stop-color="#FA9043"/>
<stop offset="0.875" stop-color="#FA8F42"/>
<stop offset="0.878906" stop-color="#FA8F42"/>
<stop offset="0.882812" stop-color="#FA8E41"/>
<stop offset="0.886719" stop-color="#FA8E40"/>
<stop offset="0.890625" stop-color="#FA8D3F"/>
<stop offset="0.894531" stop-color="#FA8D3E"/>
<stop offset="0.898438" stop-color="#FA8C3D"/>
<stop offset="0.902344" stop-color="#FA8C3C"/>
<stop offset="0.90625" stop-color="#FA8B3B"/>
<stop offset="0.910156" stop-color="#FA8B3A"/>
<stop offset="0.914062" stop-color="#FA8A3A"/>
<stop offset="0.917969" stop-color="#FA8A39"/>
<stop offset="0.921875" stop-color="#FA8938"/>
<stop offset="0.925781" stop-color="#FA8937"/>
<stop offset="0.929688" stop-color="#FA8836"/>
<stop offset="0.933594" stop-color="#FA8835"/>
<stop offset="0.9375" stop-color="#FA8734"/>
<stop offset="1" stop-color="#FA8734"/>
</linearGradient>
</defs>
</svg>
