<svg width="525" height="278" viewBox="0 0 525 278" fill="none" xmlns="http://www.w3.org/2000/svg">
<path d="M616.929 221.947L617.53 222.603C581.005 260.44 520.641 280.835 456.285 277.281C406.199 274.547 353.763 258.089 291.539 225.556C266.497 212.433 241.673 197.889 217.724 183.727C192.627 168.964 166.654 153.654 140.245 140.094C109.844 124.347 69.4367 105.811 26.0222 101.436C-20.2901 96.7341 -65.509 109.365 -109.197 121.394C-111.985 122.214 -114.883 122.925 -117.727 123.69L-118 122.816C-115.102 122.05 -112.368 121.285 -109.47 120.519C-65.6183 108.435 -20.3995 95.8045 26.0769 100.452C69.6554 104.772 110.117 123.417 140.682 139.11C167.037 152.67 193.064 168.034 218.161 182.797C242.11 196.959 266.934 211.503 291.867 224.572C353.982 256.996 406.199 273.399 456.23 276.242C520.531 279.906 580.568 259.62 616.929 221.947ZM588.66 240.483C577.998 246.005 566.789 250.598 555.197 254.098C521.133 264.815 486.084 269.9 453.988 268.751C402.919 266.728 347.639 250.38 289.844 219.979C285.743 217.791 281.643 215.604 277.432 213.253C258.076 202.482 239.158 190.452 220.84 178.642C206.241 169.237 191.15 159.669 175.895 150.756C163.374 143.429 152.165 137.196 141.885 131.783C118.592 119.535 98.9629 111.114 79.8802 105.1C62.9847 99.632 45.3236 96.2966 27.4986 94.875C9.01734 93.5627 -10.9402 94.7656 -33.4129 98.7571C-53.3704 102.257 -73.6013 107.56 -93.1214 112.645C-100.612 114.504 -108.213 116.473 -115.758 118.387L-115.485 119.261C-107.939 117.348 -100.339 115.379 -92.9027 113.466C-53.9719 103.295 -13.6741 92.9066 27.4986 95.7498C45.2143 97.1168 62.7113 100.562 79.6068 105.975C98.5802 111.989 118.21 120.41 141.393 132.603C151.782 138.071 162.936 144.249 175.403 151.576C190.658 160.489 205.749 170.057 220.348 179.462C238.666 191.218 257.694 203.356 277.05 214.073C281.15 216.37 285.361 218.666 289.462 220.853C347.42 251.2 402.755 267.658 453.933 269.626C486.193 270.829 521.352 265.799 555.471 254.973C567.062 251.473 578.381 246.826 589.098 241.248C600.088 235.617 610.039 228.344 618.843 219.651L618.241 218.994C609.602 227.634 599.541 234.851 588.66 240.483ZM588.879 235.999C577.287 240.975 565.696 244.146 554.924 246.716C525.726 253.879 487.615 261.917 451.473 261.151C398.982 260.058 342.226 244.201 287.493 215.276C283.392 213.089 279.291 210.847 275.191 208.551C256.6 198.053 238.775 185.586 221.442 173.612C206.898 163.441 191.806 152.998 176.332 143.703C164.139 136.321 153.094 129.978 142.596 124.456C119.85 112.372 99.619 103.788 80.7551 98.265C63.8595 93.18 46.3078 90.2273 28.6468 89.4072C-8.09692 87.7668 -44.1298 96.8434 -79.0145 105.647C-90.3329 108.545 -102.143 111.442 -113.735 114.067L-113.571 114.887C-101.87 112.317 -90.1688 109.365 -78.8504 106.467C-44.0205 97.7729 -8.09692 88.6417 28.5374 90.2273C46.0891 91.0475 63.5862 94.0548 80.3723 99.0852C99.291 104.662 119.467 113.247 142.104 125.276C152.602 130.799 163.538 137.141 175.786 144.468C191.15 153.709 206.187 164.152 220.731 174.322C238.064 186.297 255.889 198.763 274.534 209.262C278.581 211.558 282.681 213.745 286.782 215.987C341.789 245.021 398.654 260.878 451.2 262.081C487.451 262.846 525.616 254.699 554.815 247.591C565.641 244.857 577.178 241.74 588.824 236.71C601.728 231.133 611.844 224.572 619.827 216.643L619.225 215.987C611.625 223.915 601.619 230.422 588.879 235.999ZM588.988 231.461C577.67 235.234 565.969 237.257 554.596 239.335C548.417 240.428 542.293 241.631 535.677 242.779C507.19 248.083 477.773 253.715 449.012 253.606C394.498 253.332 337.797 238.405 285.306 210.465C281.15 208.277 277.104 205.981 273.058 203.684C255.014 193.296 237.9 180.337 221.442 167.87C207.171 157.099 192.462 146.054 177.098 136.594C165.178 129.104 154.297 122.651 143.744 116.965C121.326 104.772 101.041 96.2966 82.0127 91.1569C65.0078 86.4546 47.5654 83.9394 30.0685 83.666C-2.90248 83.2285 -35.3813 91.1569 -66.7666 98.9759C-81.3656 102.694 -96.5115 106.412 -111.493 109.31L-111.329 110.13C-96.3474 107.232 -81.2563 103.514 -66.5479 99.8507C-35.2173 92.0317 -2.84781 83.994 30.0137 84.5408C47.5654 84.8142 64.8984 87.2747 81.794 91.9771C100.767 97.2262 120.943 105.592 143.416 117.73C153.86 123.362 164.85 129.869 176.661 137.251C191.97 146.71 206.733 157.81 220.895 168.526C237.408 180.884 254.522 193.842 272.621 204.341C276.667 206.692 280.713 208.988 284.869 211.175C337.578 239.225 394.389 254.152 449.012 254.371C477.828 254.426 507.354 248.903 535.896 243.49C542.457 242.233 548.636 241.139 554.815 240.1C566.242 238.022 577.943 235.999 589.316 232.117C602.877 227.579 613.43 221.564 621.467 213.691L620.866 213.034C612.828 220.908 602.385 226.977 588.988 231.461ZM589.152 226.813C579.857 229.055 570.671 230.094 560.939 231.078C558.751 231.406 556.564 231.57 554.268 231.844C541.856 233.211 529.061 235.398 515.446 237.749C492.755 241.686 469.243 245.677 446.497 246.005C390.78 246.771 332.712 232.5 282.9 205.762C278.799 203.575 274.753 201.224 270.871 198.873C253.155 188.375 236.697 175.033 220.731 161.965C207.007 150.811 192.736 139.164 177.809 129.541C165.67 121.722 154.844 115.161 144.838 109.583C122.584 97.3355 102.408 89.0244 83.2156 84.1034C66.32 79.7838 48.823 77.7607 31.3807 78.0341C1.52644 78.4169 -27.9451 85.8531 -56.4324 93.0706C-73.656 97.3355 -91.5905 101.874 -109.361 104.826L-109.251 105.647C-91.4264 102.694 -73.6013 98.265 -56.2684 93.8908C-27.8357 86.7826 1.58112 79.3464 31.2713 78.909C48.7137 78.5809 66.0466 80.7134 82.8328 84.9236C101.916 89.8446 121.982 98.101 144.236 110.349C154.242 115.926 165.123 122.378 177.262 130.142C192.189 139.82 206.351 151.412 220.184 162.621C236.15 175.635 252.608 189.031 270.434 199.584C274.316 201.935 278.471 204.286 282.463 206.473C332.384 233.211 390.725 247.482 446.552 246.771C469.298 246.443 492.755 242.451 515.556 238.569C529.171 236.327 541.965 234.14 554.432 232.664C556.674 232.391 558.97 232.117 561.103 231.953C570.835 230.914 580.076 229.766 589.371 227.688C603.587 224.298 614.414 218.83 622.67 210.793L622.069 210.137C613.976 218.01 603.205 223.478 589.152 226.813ZM589.426 222.384C581.388 223.642 573.46 223.806 565.039 224.134C561.54 224.243 557.822 224.408 554.213 224.572C538.028 225.446 521.297 228.29 503.472 231.188C484.006 234.523 463.83 237.913 444.365 238.46C386.843 240.155 328.83 226.813 280.932 201.06C277.05 198.982 273.058 196.686 268.903 194.061C251.624 183.508 235.877 169.675 220.731 156.279C207.39 144.523 193.501 132.275 178.793 122.433C166.545 114.231 156.156 107.834 146.15 102.311C124.06 89.954 103.939 81.6976 84.6372 77.214C67.687 73.2771 50.354 71.6915 32.9664 72.5116C5.73665 73.7146 -21.165 80.604 -47.2465 87.3294C-66.7666 92.4145 -86.8881 97.6089 -107.01 100.288L-106.846 101.108C-86.7241 98.4291 -66.6025 93.1253 -47.0278 88.2043C-21.001 81.4242 5.90069 74.5347 32.9664 73.3865C50.2447 72.5116 67.5776 74.0973 84.3638 78.0888C103.611 82.5724 123.568 90.7741 145.603 103.077C155.555 108.599 165.889 115.106 178.192 123.198C192.9 133.04 206.679 145.234 220.02 156.989C235.276 170.44 251.023 184.274 268.41 194.881C272.621 197.506 276.557 199.748 280.44 201.88C328.447 227.798 386.679 241.139 444.255 239.28C463.83 238.679 484.006 235.288 503.526 232.008C521.242 228.891 538.138 226.103 554.104 225.282C557.877 225.064 561.485 225.009 564.985 224.9C573.35 224.626 581.333 224.353 589.481 223.15C604.189 220.908 615.453 215.878 623.928 207.895L623.326 207.239C615.125 215.167 603.916 220.143 589.426 222.384ZM589.535 217.846C582.318 218.338 575.428 217.955 568.047 217.627C563.454 217.354 558.751 217.19 553.776 217.135C535.076 216.971 515.501 220.416 494.614 223.97C477.117 227.032 459.128 230.149 441.74 230.914C382.578 233.703 324.62 221.4 278.581 196.358C274.589 194.171 270.543 191.765 266.661 189.413C249.711 178.861 234.619 164.426 220.13 150.537C207.171 138.18 193.829 125.44 179.34 115.434C167.092 106.959 156.758 100.507 147.025 94.9297C125.099 82.4084 104.923 74.3707 85.6761 70.2152C68.7259 66.6064 51.3929 65.5675 34.1693 66.9344C9.34542 68.7935 -15.2598 75.3002 -39.0994 81.8069C-60.5879 87.5481 -82.7873 93.5627 -104.877 95.8592L-104.823 96.7887C-82.5686 94.4376 -60.3692 88.5323 -38.826 82.6817C-15.0957 76.2844 9.45477 69.6137 34.1146 67.8093C51.2835 66.3877 68.5618 67.5906 85.4027 71.09C104.704 75.1909 124.716 83.2832 146.533 95.7498C156.266 101.327 166.49 107.724 178.738 116.199C193.283 126.206 206.569 138.946 219.419 151.248C234.073 165.191 249.164 179.626 266.169 190.234C270.051 192.694 274.097 194.991 278.198 197.178C324.346 222.33 382.578 234.632 441.85 231.898C459.347 231.078 477.39 227.907 494.887 224.845C515.665 221.236 535.185 217.791 553.776 218.01C558.697 218.065 563.454 218.229 568.047 218.502C575.374 218.83 582.318 219.213 589.535 218.721C604.572 217.791 616.546 213.144 625.185 205.051L624.584 204.395C616.163 212.214 604.353 216.807 589.535 217.846ZM589.809 213.253C583.083 213.198 576.741 212.324 569.906 211.449C564.602 210.738 559.244 210.027 553.557 209.644C532.943 208.277 511.236 212.269 488.053 216.37C472.032 219.322 455.355 222.22 439.389 223.314C378.642 227.141 320.792 215.768 276.393 191.546C272.457 189.468 268.574 187.062 264.528 184.492C247.906 173.83 233.526 158.958 219.474 144.523C207.007 131.619 194.212 118.332 179.996 108.271C168.021 99.7413 157.851 93.1253 148.009 87.4934C126.029 74.8628 105.962 66.8251 86.7697 63.1617C69.8741 59.9903 52.5958 59.3889 35.4816 61.3026C12.7355 63.7085 -9.9013 70.0511 -31.6632 76.1751C-54.7374 82.7364 -78.7411 89.5165 -102.69 91.3756L-102.581 92.3051C-78.5224 90.5007 -54.5733 83.7206 -31.3351 77.214C-9.57323 70.9807 12.9542 64.6927 35.7003 62.2868C52.6505 60.4278 69.9288 61.0292 86.715 64.1459C105.907 67.864 125.81 75.7376 147.736 88.3683C157.578 94.0001 167.748 100.671 179.613 109.091C193.829 119.207 206.624 132.494 218.981 145.288C233.034 159.778 247.469 174.814 264.091 185.477C268.137 188.047 272.074 190.398 275.956 192.53C320.409 216.862 378.478 228.071 439.444 224.353C455.519 223.314 472.087 220.361 488.217 217.463C511.291 213.308 532.998 209.316 553.448 210.738C559.134 211.121 564.493 211.832 569.796 212.542C576.631 213.417 582.974 214.292 589.699 214.347C600.307 214.511 615.398 212.542 626.498 202.318L625.896 201.661C615.015 211.449 600.252 213.472 589.809 213.253ZM590.027 208.77C583.63 208.223 577.615 206.965 571.109 205.489C565.477 204.286 559.517 203.028 553.229 202.318C531.084 199.584 506.26 204.231 482.421 208.824C467.384 211.667 451.91 214.62 436.929 215.714C374.705 220.58 316.855 210.355 274.152 186.898C270.16 184.602 266.278 182.251 262.396 179.79C246.156 169.128 232.323 153.654 219.036 138.618C207.171 125.221 194.759 111.333 180.871 101.108C170.701 93.6174 160.148 86.5092 149.267 80.0572C127.614 67.2625 107.711 59.4982 88.0819 56.1629C71.1864 53.3743 54.0175 53.1009 37.0126 55.6161C16.0708 58.4593 -4.81624 64.5833 -24.8831 70.6526C-49.4883 77.9795 -74.8589 85.6344 -100.23 86.7279V87.6028C-74.8043 86.4546 -49.3242 78.7996 -24.7738 71.4727C-4.70688 65.5128 16.2349 59.2795 37.0126 56.5456C53.8534 54.0851 71.0224 54.1945 87.8086 57.0377C107.165 60.3731 127.067 68.1921 148.72 80.8227C159.546 87.2747 170.154 94.3829 180.269 101.874C194.158 112.099 206.46 125.932 218.38 139.219C231.776 154.255 245.61 169.784 261.958 180.501C265.841 182.961 269.723 185.313 273.824 187.609C316.582 211.23 374.65 221.564 437.093 216.698C452.129 215.495 467.658 212.542 482.639 209.644C506.534 205.106 531.194 200.404 553.229 203.192C559.517 203.903 565.313 205.215 570.999 206.364C577.397 207.676 583.575 208.988 589.973 209.644C609.766 211.449 621.522 204.942 627.81 199.092L627.208 198.435C616.054 208.77 600.744 209.754 590.027 208.77ZM590.082 204.231C583.958 203.192 578.107 201.497 572.038 199.693C565.969 197.889 559.681 196.03 552.956 194.936C529.389 190.726 503.089 195.975 477.39 201.115C463.174 203.958 448.575 206.911 434.359 208.223C352.724 215.932 300.835 198.326 271.801 182.141C267.809 179.9 263.927 177.548 260.209 174.978C244.243 164.262 231.011 148.241 218.325 132.712C206.898 118.879 195.087 104.498 181.418 94.1642C171.466 86.4546 160.968 79.2371 150.196 72.8397C128.708 59.9903 108.696 52.3354 89.2302 49.2734C73.3188 46.8129 56.6967 47.0863 38.2702 50.2029C18.9688 53.3743 -0.277939 59.4436 -18.8685 65.3488C-44.6766 73.4412 -71.4689 81.9709 -98.2065 82.4084V83.3379C-71.3595 82.9005 -44.6219 74.4254 -18.5951 66.2236C-0.00455475 60.3184 19.1875 54.2491 38.3795 51.0231C56.7514 48.0158 73.2642 47.6878 89.1208 50.0936C108.586 53.1556 128.434 60.8105 149.868 73.5505C160.585 80.1119 171.083 87.2747 181.089 94.875C194.65 105.209 206.46 119.59 217.888 133.423C230.683 148.952 243.969 165.136 260.099 175.853C263.927 178.423 267.809 180.774 271.746 183.016C324.674 212.433 389.632 213.472 434.851 209.207C449.012 207.895 463.666 204.942 477.882 202.099C503.253 196.959 529.608 191.71 553.065 195.866C559.736 197.068 566.024 198.927 572.038 200.568C578.217 202.427 583.958 204.067 590.191 205.161C599.432 206.746 616.656 207.621 629.396 196.358L628.794 195.701C616.109 206.637 599.104 205.708 590.082 204.231ZM590.191 199.748C584.122 198.271 578.436 196.194 572.585 193.952C566.242 191.546 559.681 189.14 552.573 187.5C527.804 181.759 499.863 187.718 473.016 193.35C459.401 196.194 445.513 199.201 431.898 200.677C385.859 205.708 320.245 205.762 269.504 177.494C265.731 175.416 261.904 172.955 257.967 170.331C242.384 159.614 229.808 142.992 217.614 126.916C206.679 112.536 195.36 97.6636 181.964 87.1654C172.068 79.3464 161.733 71.9649 151.016 65.4582C129.747 52.4447 109.734 44.8992 90.1597 42.3293C74.4671 40.1968 57.7356 40.9077 39.3637 44.6258C21.5386 48.1252 3.65888 54.0851 -13.5101 59.8263C-40.4664 68.8482 -68.2976 78.2528 -96.2928 77.8154V78.6903C-68.2429 79.073 -40.2477 69.723 -13.2367 60.5918C3.93227 54.8506 21.812 48.8907 39.6371 45.3913C57.8996 41.6732 74.4671 40.9624 90.1597 43.0948C109.734 45.6647 129.528 53.2649 150.743 66.1143C161.405 72.7303 171.794 80.0025 181.582 87.7122C194.868 98.2104 206.241 112.973 217.013 127.299C229.206 143.375 241.946 160.051 257.584 170.878C261.466 173.502 265.348 176.017 269.231 178.095C320.136 206.582 385.968 206.528 432.172 201.443C445.677 199.912 459.675 196.959 473.289 194.116C500.082 188.429 527.804 182.524 552.463 188.211C559.626 189.851 566.024 192.311 572.366 194.608C578.381 196.904 583.903 198.982 590.137 200.458C597.682 202.263 616.82 205.27 630.544 193.186L629.942 192.53C616.437 204.45 597.682 201.497 590.191 199.748ZM590.574 195.155C584.56 193.296 579.037 190.835 573.241 188.156C566.625 185.203 559.9 182.087 552.573 180.009C526.601 172.627 497.403 179.243 469.189 185.531C456.23 188.429 442.834 191.437 429.93 193.077C361.473 201.661 306.959 194.772 267.7 172.737C263.763 170.44 259.99 168.034 256.163 165.464C240.907 154.638 228.878 137.524 217.177 120.902C206.788 105.975 196.071 90.6101 183.003 79.9479C173.27 72.0195 162.991 64.638 152.438 57.9673C131.168 44.8445 111.32 37.463 91.636 35.2211C76.1621 33.4715 59.6493 34.6744 41.0041 38.8299C24.4913 42.6027 7.92377 48.4533 -8.09692 54.1945C-36.0375 64.2006 -64.7982 74.48 -93.7229 73.2224L-93.7776 74.0973C-64.5794 75.3549 -35.6 65.0207 -7.71417 55.0146C8.30652 49.2734 24.7646 43.3682 41.2775 39.6501C59.704 35.3305 76.2168 34.1276 91.5813 35.932C111.156 38.1738 130.84 45.61 152.001 58.6234C162.554 65.2394 172.888 72.6757 182.456 80.604C195.415 91.2116 206.187 106.521 216.521 121.339C228.167 138.071 240.142 155.185 255.616 166.121C259.279 168.745 263.325 171.151 267.153 173.393C306.521 195.483 361.254 202.427 429.875 193.788C442.888 192.202 456.285 189.14 469.298 186.242C497.457 179.9 526.546 173.338 552.299 180.665C559.626 182.743 566.406 185.75 572.858 188.757C578.49 191.218 584.286 193.897 590.301 195.811C606.431 200.951 621.905 198.763 631.747 190.179L631.145 189.523C621.522 198.107 606.376 200.13 590.574 195.155ZM590.683 190.671C584.669 188.375 579.037 185.367 573.46 182.415C566.789 178.806 559.79 175.197 552.135 172.573C525.288 163.605 494.778 170.823 465.306 177.712C452.785 180.72 439.772 183.727 427.305 185.422C357.591 195.209 303.076 189.249 265.294 167.816C261.412 165.629 257.584 163.168 253.921 160.543C238.884 149.663 227.566 131.947 216.521 114.723C206.569 99.3039 196.345 83.3379 183.55 72.621C174.091 64.4739 163.921 57.0377 153.313 50.3123C132.481 37.2989 112.086 29.808 92.5656 27.8943C77.2557 26.418 60.7429 28.1677 42.0976 32.9793C26.7331 36.9708 11.3138 42.7667 -3.55862 48.5079C-32.2647 59.3889 -62.0096 70.6526 -91.8638 68.4655L-91.9185 69.3403C-61.7362 71.5274 -31.9913 60.2637 -3.1212 49.3281C11.6966 43.6416 27.1158 37.791 42.3163 33.8542C60.8522 28.9878 77.3103 27.3475 92.4562 28.7144C111.758 30.5188 132.043 38.0097 152.766 50.9685C163.264 57.6392 173.435 65.0754 182.949 73.2224C195.579 83.8847 205.859 99.7413 215.701 115.161C226.746 132.384 238.173 150.155 253.265 161.145C256.928 163.769 260.756 166.23 264.747 168.472C302.748 190.015 357.426 195.92 427.25 186.187C439.881 184.383 452.785 181.321 465.361 178.369C494.669 171.534 525.015 164.426 551.698 173.283C559.408 175.799 566.242 179.462 572.913 183.071C578.49 186.023 584.231 189.085 590.246 191.327C614.687 200.677 629.013 190.616 632.895 187.39L632.294 186.734C628.63 190.07 614.632 199.857 590.683 190.671ZM591.066 186.242C590.957 186.242 590.847 186.187 590.738 186.133C584.833 183.508 579.146 179.954 573.624 176.619C566.734 172.409 559.572 168.144 551.753 165.191C523.867 154.474 492.153 162.293 461.534 169.839C449.395 172.846 436.874 175.963 424.735 177.822C352.833 189.031 299.85 184.164 262.943 163.113C259.06 160.926 255.233 158.411 251.624 155.677C236.861 144.851 226.035 126.479 215.591 108.763C206.241 92.7972 196.618 76.4485 184.042 65.5675C174.692 57.3658 164.631 49.7108 154.133 42.9308C133.465 29.6986 113.07 22.3718 93.6044 21.0048C78.3492 19.8566 62.3285 21.8797 43.3552 27.4568C29.0842 31.6671 14.8132 37.4629 0.92498 42.9854C-28.6012 54.9053 -59.057 67.2079 -89.7861 64.0365L-89.9501 64.8567C-58.9476 68.028 -28.3825 55.7801 1.25305 43.7509C15.0319 38.1738 29.3576 32.4326 43.5739 28.1677C62.5473 22.5905 78.4039 20.6221 93.5498 21.7156C112.851 23.1373 133.137 30.4641 153.75 43.5322C164.194 50.3123 174.255 57.8032 183.55 66.1143C195.907 76.9406 205.531 93.2893 214.826 109.037C225.215 126.862 236.15 145.288 251.023 156.169C254.632 158.903 258.459 161.418 262.451 163.66C299.522 184.875 352.615 189.742 424.79 178.478C436.929 176.619 449.559 173.393 461.752 170.44C492.263 163.004 523.757 155.185 551.425 165.683C559.244 168.636 566.352 172.901 573.186 177.056C578.709 180.392 584.395 183.836 590.41 186.625C590.519 186.68 590.629 186.68 590.738 186.734C603.697 192.475 621.85 194.827 634.262 184.274L633.66 183.618C621.631 194.17 603.806 191.929 591.066 186.242ZM590.957 181.649C584.942 178.587 579.201 174.65 573.624 170.932C566.68 166.175 559.408 161.309 551.479 157.81C522.664 145.452 489.802 153.873 458.089 162.074C446.333 165.136 434.14 168.253 422.329 170.276C375.634 178.204 308.216 185.695 260.701 158.302C256.873 156.115 252.991 153.654 249.492 150.975C235.057 139.984 224.832 121.12 215.099 102.967C206.296 86.4546 197.11 69.559 184.917 58.6234C175.731 50.2029 165.78 42.4933 155.445 35.6586C134.941 22.3718 114.601 15.1543 95.0807 14.006C79.7162 13.2952 63.8049 15.8104 44.8862 22.0437C31.4901 26.418 18.2033 32.0498 5.29923 37.6817C-24.8284 50.6404 -55.8309 63.9818 -87.4349 59.7716L-87.5443 60.5918C-55.7763 64.9114 -24.555 51.5152 5.6273 38.4471C18.5313 32.8153 31.8181 27.1835 45.1596 22.9186C63.9689 16.7399 79.8255 14.2247 95.0261 14.9902C114.437 16.0838 134.613 23.356 155.008 36.4787C165.342 43.2042 175.294 50.9138 184.425 59.2795C196.509 70.0511 205.64 87.056 214.388 103.405C224.34 121.777 234.455 140.75 249 151.74C252.663 154.474 256.381 156.935 260.373 159.176C308.052 186.625 375.744 179.134 422.603 171.151C434.413 169.128 446.607 166.011 458.526 162.895C490.076 154.748 522.719 146.382 551.37 158.52C559.298 161.91 566.516 166.886 573.46 171.588C579.037 175.361 584.778 179.298 590.902 182.36C603.533 188.867 622.889 192.475 635.848 181.54L635.246 180.884C622.397 191.601 603.423 187.937 590.957 181.649ZM591.176 177.166C585.052 173.721 579.365 169.401 573.843 165.191C566.789 159.887 559.462 154.365 551.151 150.428C521.461 136.376 487.56 145.507 454.699 154.365C443.162 157.372 431.297 160.653 419.814 162.785C368.471 172.354 303.623 179.954 258.404 153.763C254.577 151.522 250.859 149.006 247.359 146.327C233.252 135.391 223.738 115.926 214.498 97.2262C206.077 80.2759 197.438 62.7789 185.628 51.6793C176.551 43.0948 166.764 35.3305 156.375 28.441C135.871 15.0449 115.694 7.88206 96.0103 7.17125C81.0285 6.67915 65.1171 9.63176 46.0891 16.4665C33.6772 20.8955 21.1012 26.6367 9.18138 32.1592C-21.5477 46.1021 -53.2064 60.5371 -85.4118 55.1787L-85.5212 56.0535C-53.0424 61.3573 -21.2197 46.8676 9.50946 32.8153C21.5933 27.3475 34.0053 21.661 46.4172 17.1227C65.2812 10.3426 81.2472 7.38995 96.1196 7.88205C115.53 8.48352 135.652 15.5917 156.047 28.9332C166.326 35.7679 176.114 43.5322 185.026 52.062C196.837 62.9976 205.476 80.5493 213.787 97.2808C223.137 116.145 232.651 135.61 246.922 146.765C250.531 149.498 254.249 152.014 258.076 154.255C303.569 180.61 368.526 173.01 420.033 163.441C431.57 161.254 443.49 158.028 454.918 154.966C486.959 146.272 520.094 137.415 549.073 150.264C549.62 150.483 550.222 150.811 550.768 151.029C558.97 154.912 566.297 160.434 573.35 165.738C578.873 169.948 584.56 174.268 590.793 177.767C603.642 185.094 623.436 189.796 636.886 178.587L636.285 177.931C623.162 188.921 603.861 184.438 591.176 177.166ZM591.394 172.682C585.216 168.8 579.42 164.098 573.952 159.505C566.789 153.545 559.353 147.475 550.987 143.101C520.367 127.299 485.319 137.032 451.473 146.601C440.319 149.772 428.727 152.998 417.572 155.185C356.388 167.488 288.04 175.525 245.336 141.461C231.557 130.416 222.481 110.404 213.896 91.1022C206.077 73.6599 197.93 55.6161 186.393 44.4071C156.32 15.3183 126.466 0.44583 97.4319 0.0630933C68.3978 -0.319657 40.2386 13.2405 13.0635 26.4726C-18.103 41.5091 -50.3084 57.1471 -83.006 50.6951L-83.1153 51.5152C-50.1444 57.9673 -17.8843 42.384 13.4463 27.2928C40.6213 14.1701 68.5618 0.609878 97.4866 1.10199C126.247 1.48473 155.992 16.3572 185.901 45.1726C197.438 56.2722 205.476 74.2067 213.186 91.5396C221.825 111.005 230.847 131.127 244.844 142.281C287.821 176.564 356.442 168.526 417.791 156.169C428.945 153.873 440.537 150.647 451.746 147.475C485.428 137.961 520.258 128.119 550.659 143.867C558.915 148.132 566.352 154.255 573.515 160.215C579.092 164.808 584.888 169.565 591.066 173.393C605.118 182.305 625.24 186.516 638.308 175.908L637.707 175.307C624.967 185.477 605.173 181.321 591.394 172.682Z" fill="black"/>
</svg>
