<svg width="47" height="41" viewBox="0 0 47 41" fill="none" xmlns="http://www.w3.org/2000/svg">
<path fill-rule="evenodd" clip-rule="evenodd" d="M32.9018 35.9747C32.7281 35.6821 32.8287 35.2981 33.1213 35.1244C33.4139 34.9506 33.7979 35.0512 33.9716 35.3438C34.3282 35.9381 34.8219 36.185 35.2517 36.1576C35.4163 36.1484 35.5808 36.0936 35.718 36.0113C35.8643 35.9198 35.9832 35.801 36.0746 35.6364C36.358 35.1335 36.3489 34.3197 35.718 33.2683C35.2608 32.5002 35.1328 31.5676 35.3065 30.7447C35.4163 30.2418 35.6357 29.7755 35.9649 29.4006C36.3123 29.0166 36.7695 28.7423 37.3364 28.6417C38.0495 28.5137 38.9182 28.6783 39.9148 29.2726C40.6097 29.6841 41.1674 29.8761 41.588 29.8852C41.8075 29.8852 41.9629 29.8395 42.0726 29.7481C42.1915 29.6475 42.2646 29.4738 42.3012 29.2452C42.3835 28.7697 42.2829 28.1206 42.0086 27.3342C41.6886 26.429 41.6063 25.6244 41.7069 24.9661C41.8075 24.2986 42.1001 23.7683 42.5298 23.3843C42.9595 23.0003 43.5081 22.7808 44.139 22.7351C44.7973 22.6894 45.5562 22.8266 46.3426 23.1923C46.6534 23.3386 46.7906 23.7043 46.6534 24.0152C46.5071 24.3261 46.1414 24.4632 45.8305 24.3261C45.2362 24.0609 44.6968 23.9512 44.2305 23.9786C43.8739 24.006 43.5721 24.1158 43.3527 24.3169C43.1333 24.5089 42.987 24.7924 42.9321 25.1581C42.859 25.6244 42.9321 26.2187 43.179 26.9228C43.5264 27.9103 43.6361 28.7789 43.5264 29.4463C43.4441 29.9675 43.2247 30.379 42.8955 30.6715C42.5572 30.9733 42.1092 31.1287 41.5606 31.1196C40.9388 31.1104 40.1708 30.8636 39.2839 30.3332C38.5616 29.9127 37.9855 29.7846 37.5558 29.8578C37.2815 29.9035 37.0621 30.0407 36.8975 30.2235C36.7146 30.4247 36.5958 30.6898 36.5318 30.9824C36.422 31.5127 36.5043 32.1162 36.7969 32.6191C37.6838 34.1186 37.6381 35.3895 37.1535 36.2398C36.9523 36.5782 36.6872 36.8525 36.3763 37.0536C36.0654 37.2456 35.7089 37.3645 35.3431 37.3919C34.4745 37.4559 33.5236 37.0262 32.9018 35.9747ZM2.12532 24.7375C2.39048 24.5272 2.78364 24.5729 2.99394 24.8381C3.20424 25.1032 3.15852 25.4964 2.89336 25.7067C2.34476 26.1364 2.17104 26.6576 2.26247 27.0874C2.29905 27.2519 2.37219 27.3982 2.47277 27.5262C2.58249 27.6542 2.71964 27.7548 2.89336 27.828C3.42368 28.0474 4.23744 27.9194 5.18834 27.1605C5.89238 26.6028 6.79757 26.3467 7.62962 26.4107C8.14165 26.4473 8.63539 26.6028 9.04684 26.8862C9.47658 27.1788 9.80574 27.5994 9.97946 28.1388C10.1989 28.8246 10.1623 29.7115 9.70516 30.7813C9.39429 31.531 9.27542 32.1071 9.32114 32.5185C9.34857 32.7379 9.41257 32.8934 9.52229 32.9848C9.64116 33.0854 9.81488 33.1403 10.0526 33.1494C10.5281 33.1677 11.1681 32.9848 11.9087 32.6008C12.7682 32.1619 13.5454 31.9699 14.2128 31.979C14.8803 31.9882 15.4472 32.2076 15.8861 32.5825C16.3249 32.9574 16.6175 33.4694 16.7455 34.0912C16.8827 34.7403 16.8461 35.5084 16.5901 36.3404C16.4895 36.6696 16.1421 36.8525 15.8129 36.761C15.4838 36.6604 15.3009 36.313 15.3923 35.9838C15.5843 35.3621 15.6118 34.8043 15.5203 34.3472C15.4472 33.9997 15.2917 33.7163 15.0723 33.5243C14.8529 33.3323 14.5511 33.2317 14.1763 33.2225C13.7008 33.2134 13.1248 33.3597 12.4573 33.7071C11.5247 34.1826 10.6835 34.4112 9.99775 34.3929C9.47658 34.3746 9.02855 34.2192 8.69025 33.9266C8.3428 33.6249 8.12336 33.2043 8.0685 32.6648C7.99535 32.0431 8.1325 31.2567 8.53481 30.3058C8.86397 29.5286 8.90969 28.9435 8.77254 28.5229C8.69025 28.2577 8.52567 28.0566 8.32451 27.9194C8.10507 27.764 7.82163 27.6817 7.5199 27.6634C6.98044 27.6268 6.38612 27.7914 5.9381 28.148C4.5666 29.236 3.30481 29.364 2.39962 28.9892C2.03389 28.8429 1.73216 28.6143 1.49443 28.3309C1.2567 28.0474 1.09212 27.7091 1.01898 27.3525C0.872683 26.493 1.16527 25.4964 2.12532 24.7375ZM21.8201 11.5985C21.8201 11.2602 22.0944 10.9768 22.4327 10.9768C22.771 10.9768 23.0545 11.2511 23.0545 11.5894C23.0727 13.418 23.2739 15.4662 23.6579 17.7246C24.0419 19.9921 24.6088 22.4791 25.3586 25.1581C25.45 25.4873 25.258 25.8347 24.9288 25.9261C24.5997 26.0176 24.2522 25.8256 24.1608 25.4964C23.3928 22.7626 22.8167 20.239 22.4327 17.9349C22.0395 15.6125 21.8384 13.5003 21.8201 11.5985ZM23.7951 0.516781C23.7585 0.315627 23.6305 0.13276 23.4293 0.0504701C23.1093 -0.0866802 22.7527 0.0596135 22.6156 0.379631L21.0429 4.04611L17.0656 3.67124C16.8735 3.65295 16.6724 3.7261 16.5444 3.88153C16.3158 4.13755 16.3432 4.53071 16.5992 4.7593L19.6074 7.39258L18.0348 11.0316C17.9433 11.2145 17.9433 11.4339 18.0622 11.626C18.2359 11.9185 18.6199 12.0191 18.9125 11.8362L22.3413 9.78814L25.3403 12.4306C25.4866 12.5586 25.6877 12.6134 25.8889 12.5677C26.2272 12.4946 26.4375 12.1563 26.3552 11.8271L25.4683 7.93204L28.9062 5.90221C29.0708 5.80164 29.1896 5.62791 29.2079 5.42676C29.2354 5.08846 28.9885 4.78673 28.6502 4.75015L24.6728 4.39356L23.7951 0.516781ZM23.5482 5.0976C23.6122 5.3719 23.8408 5.56391 24.1059 5.5822L26.6112 5.81078L24.4442 7.09085C24.1974 7.23714 24.0877 7.52973 24.1608 7.79489L24.7094 10.2179L22.8167 8.55379C22.5973 8.36178 22.2773 8.35263 22.0487 8.50807L19.9274 9.77899L20.9332 7.46573C21.0429 7.20971 20.9698 6.92627 20.7686 6.75255L18.8668 5.08846L21.3812 5.32618C21.6555 5.35361 21.9115 5.18903 22.0121 4.95131L22.9996 2.62889L23.5482 5.0976ZM29.1439 22.9088C28.0742 24.3809 27.169 26.493 26.4284 29.2726C25.706 31.9973 25.13 35.3712 24.7185 39.3943C24.682 39.7326 24.9288 40.0435 25.2763 40.0709C25.6146 40.1075 25.9255 39.8606 25.9529 39.5132C26.3643 35.5541 26.9221 32.2442 27.6261 29.5743C28.321 26.9502 29.1622 24.9752 30.1406 23.6312C30.3417 23.3569 30.2868 22.9637 30.0034 22.7626C29.7382 22.5705 29.3451 22.6254 29.1439 22.9088ZM31.5852 16.1519L31.8869 18.6572C31.9235 18.9498 31.7498 19.2149 31.4846 19.3155L29.2354 20.3487L31.7041 20.8333C31.9875 20.8882 32.1795 21.1259 32.2069 21.391L32.4995 23.878L33.7247 21.6745C33.8619 21.4276 34.1545 21.3088 34.4196 21.3728L36.8701 21.8665L35.1511 20.0195C34.9591 19.8184 34.9317 19.5258 35.0597 19.2881L36.294 17.0937L34.0082 18.1543C33.7522 18.2732 33.4596 18.2 33.2859 17.9989L31.5852 16.1519ZM30.5977 18.3555L26.9678 20.0104C26.6569 20.1567 26.5198 20.5224 26.6569 20.8333C26.7392 21.0253 26.9129 21.1442 27.105 21.1808L31.0183 21.9579L31.4755 25.9261C31.5121 26.2645 31.8229 26.5113 32.1612 26.4748C32.3807 26.4473 32.5635 26.3102 32.655 26.1273L34.5842 22.6711L38.4976 23.4574C38.8359 23.5214 39.1559 23.3112 39.229 22.9729C39.2656 22.7717 39.2016 22.5705 39.0736 22.4334L36.358 19.5075L38.3147 16.0239C38.4793 15.7222 38.3787 15.3473 38.077 15.1736C37.885 15.0639 37.6655 15.073 37.4918 15.1644L33.8893 16.8285L31.1829 13.8935C30.9543 13.6375 30.5611 13.6283 30.3051 13.8569C30.1497 13.9941 30.0857 14.1952 30.1131 14.3872L30.5977 18.3555ZM17.7879 20.7967C18.6839 21.7659 19.8726 24.2346 20.8143 27.3708C21.6007 29.9767 22.195 33.0031 22.3138 36.0021C22.323 36.3404 22.6156 36.6147 22.9539 36.5964C23.2922 36.5873 23.5665 36.2947 23.5482 35.9564C23.4293 32.8385 22.8076 29.7024 21.9938 27.0142C20.9972 23.7043 19.6988 21.0436 18.6839 19.9464C18.4553 19.6995 18.0622 19.6812 17.8062 19.9098C17.5776 20.1476 17.5593 20.5407 17.7879 20.7967ZM14.1031 11.2054L14.9717 15.0639L18.9491 15.4204C19.2874 15.4479 19.5434 15.7496 19.5068 16.097C19.4885 16.3073 19.3697 16.4811 19.2051 16.5725L15.7672 18.6023L16.6541 22.4974C16.7273 22.8357 16.517 23.1649 16.1878 23.238C15.9866 23.2837 15.7855 23.2289 15.6392 23.1009L12.6402 20.4584L9.21142 22.5065C8.91883 22.6803 8.53481 22.5888 8.36109 22.2962C8.25137 22.1042 8.25137 21.8848 8.33366 21.7019L9.90631 18.0629L6.89815 15.4296C6.64214 15.201 6.61471 14.8078 6.84329 14.5518C6.98044 14.3964 7.17245 14.3232 7.36446 14.3415L11.3418 14.7164L12.9145 11.0499C13.0516 10.7299 13.4174 10.5836 13.7282 10.7208C13.9385 10.8213 14.0757 11.0042 14.1031 11.2054ZM13.8562 15.777L13.3076 13.3175L12.3202 15.6399C12.2196 15.8776 11.9636 16.0422 11.6893 16.0148L9.17485 15.777L11.0767 17.4411C11.2778 17.6148 11.351 17.8983 11.2412 18.1543L10.2355 20.4676L12.3659 19.1966C12.5945 19.0321 12.9145 19.0504 13.1339 19.2424L15.0266 20.9065L14.478 18.4835C14.4048 18.2183 14.5146 17.9257 14.7614 17.7794L16.9284 16.4994L14.4231 16.2708C14.1488 16.2433 13.9202 16.0513 13.8562 15.777Z" fill="white"/>
</svg>
