<svg width="68" height="88" viewBox="0 0 68 88" fill="none" xmlns="http://www.w3.org/2000/svg">
<path d="M6.63967 21.647C6.63967 22.257 6.14475 22.752 5.53475 22.752C4.92438 22.752 4.43018 22.257 4.43018 21.647C4.43018 21.037 4.92438 20.5421 5.53475 20.5421C6.14475 20.5421 6.63967 21.037 6.63967 21.647Z" fill="#F9AA39"/>
<path d="M46.839 80.6624L8.68214 80.7422C5.75396 80.7487 3.35277 78.3578 3.34671 75.4292L3.29469 50.5832C3.28863 47.6547 5.67949 45.2538 8.60767 45.2474L46.7645 45.1676C49.6931 45.1615 52.0939 47.5524 52.0999 50.4806L52.152 75.327C52.1584 78.2552 49.7675 80.656 46.839 80.6624Z" fill="#5777C4"/>
<path d="M46.7753 45.7018H46.7656L8.60879 45.7817C5.9678 45.7874 3.82386 47.9409 3.82921 50.5819L3.88123 75.428C3.88657 78.0657 6.03478 80.2075 8.67079 80.2075H8.68112L46.838 80.1277C48.1118 80.125 49.3119 79.6225 50.2176 78.7132C51.1234 77.8035 51.6204 76.6014 51.6176 75.3278L51.5655 50.4814C51.5602 47.8436 49.4123 45.7018 46.7753 45.7018ZM8.67079 81.2769C5.4458 81.2769 2.81906 78.6568 2.81229 75.4301L2.76027 50.584C2.7535 47.3534 5.37596 44.7198 8.60665 44.7127L46.7635 44.6329H46.7753C50.001 44.6329 52.6277 47.2529 52.6345 50.4793L52.6865 75.3257C52.6901 76.8846 52.0822 78.3555 50.9751 79.4672C49.8677 80.5791 48.3993 81.1931 46.8401 81.1967L8.68326 81.2769H8.67079Z" fill="#3D3D3D"/>
<mask id="mask0_320_88" style="mask-type:luminance" maskUnits="userSpaceOnUse" x="3" y="46" width="4" height="5">
<path d="M3.83018 50.9927L3.82911 50.5822C3.82591 49.064 4.53319 47.7068 5.63704 46.826L6.67391 49.3643C5.73503 49.4812 4.86527 49.907 4.18329 50.5918C4.05644 50.7194 3.9385 50.8534 3.83018 50.9927Z" fill="white"/>
</mask>
<g mask="url(#mask0_320_88)">
<path d="M3.82593 50.9927H6.67393V46.826H3.82593V50.9927Z" fill="#F35000"/>
</g>
<path d="M3.29754 51.8818L3.29469 50.5831C3.29113 48.8446 4.13203 47.2922 5.42865 46.3162L5.63709 46.8258C4.53323 47.7066 3.82595 49.0638 3.82916 50.582L3.83022 50.9925C3.61537 51.2686 3.43686 51.5669 3.29754 51.8818Z" fill="#3D3D3D"/>
<path d="M44.6936 75.1183L27.8916 59.0098C27.7099 58.8359 27.7038 58.5476 27.8777 58.3666L49.6873 35.6178C49.8615 35.4364 50.1494 35.4304 50.3308 35.6043L67.1331 51.7132C67.3145 51.8871 67.3209 52.1753 67.1466 52.3563L45.3371 75.1048C45.1632 75.2865 44.8753 75.2925 44.6936 75.1183Z" fill="white"/>
<path d="M28.3187 58.6793L45.0063 74.6781L66.7058 52.0441L50.0182 36.0453L28.3187 58.6793ZM45.0633 74.7326H45.063V74.7323L45.0633 74.7326ZM45.0081 75.7798C44.7519 75.7798 44.5093 75.6825 44.324 75.5044H44.3236L27.5213 59.3959C27.3307 59.2131 27.2224 58.9665 27.217 58.7025C27.2113 58.4381 27.3093 58.1876 27.4921 57.9966L49.3013 35.2482C49.6797 34.8534 50.3068 34.8413 50.7009 35.219L67.5028 51.3275C67.8969 51.7056 67.9101 52.333 67.5321 52.7271L45.7229 75.4749C45.5401 75.6655 45.2935 75.7741 45.0291 75.7795L45.0081 75.7798Z" fill="#3D3D3D"/>
<path d="M58.9932 56.4062C58.9045 56.4062 58.8158 56.3731 58.7463 56.3068L46.0947 44.1772C45.9529 44.0411 45.9479 43.8159 46.0844 43.6734C46.2208 43.5323 46.4464 43.527 46.5882 43.6631L59.2398 55.7927C59.3816 55.9288 59.3866 56.1543 59.2501 56.2965C59.1803 56.3692 59.0866 56.4062 58.9932 56.4062Z" fill="#3D3D3D"/>
<path d="M54.8689 60.7075C54.7801 60.7075 54.6914 60.6744 54.6223 60.6085L41.9707 48.4789C41.8289 48.3427 41.8239 48.1172 41.9604 47.975C42.0965 47.8332 42.322 47.8282 42.4642 47.9643L55.1158 60.0939C55.2576 60.2301 55.2626 60.4556 55.1261 60.5978C55.0563 60.6705 54.9626 60.7075 54.8689 60.7075Z" fill="#3D3D3D"/>
<path d="M50.9878 64.7559C50.8991 64.7559 50.8104 64.7231 50.7409 64.6568L38.0893 52.5272C37.9471 52.3911 37.9425 52.1655 38.0786 52.0234C38.2147 51.8816 38.4402 51.8769 38.5824 52.013L51.2344 64.1426C51.3765 64.2784 51.3812 64.5039 51.2451 64.6465C51.1749 64.7192 51.0812 64.7559 50.9878 64.7559Z" fill="#3D3D3D"/>
<path d="M46.864 69.0576C46.7752 69.0576 46.6865 69.0245 46.617 68.9582L33.9651 56.8287C33.8233 56.6926 33.8183 56.4674 33.9547 56.3248C34.0908 56.1834 34.3164 56.1788 34.4586 56.3145L47.1105 68.4441C47.2523 68.5802 47.2573 68.8054 47.1209 68.9479C47.051 69.0206 46.9573 69.0576 46.864 69.0576Z" fill="#3D3D3D"/>
<path d="M35.0181 54.5821L13.4704 63.3852C13.2378 63.48 12.972 63.3684 12.8772 63.1358L0.959217 33.9619C0.863725 33.7292 0.975251 33.4634 1.20828 33.3683L22.756 24.5656C22.989 24.4708 23.2544 24.5823 23.3492 24.815L35.2679 53.9885C35.3627 54.2215 35.2511 54.487 35.0181 54.5821Z" fill="white"/>
<path d="M34.8159 54.0877H34.8156L34.8163 54.0873L34.8159 54.0877ZM1.48392 33.833L13.3424 62.8601L34.7432 54.1172L22.8848 25.0902L1.48392 33.833ZM13.2985 63.9536C13.1688 63.9536 13.0388 63.9276 12.9155 63.8759C12.6718 63.7733 12.4822 63.5823 12.3825 63.3379L0.464506 34.1641C0.364382 33.9196 0.365806 33.6503 0.468068 33.4065C0.57033 33.1625 0.76167 32.9733 1.00646 32.8735L22.5541 24.0708C23.0608 23.8652 23.638 24.1078 23.8443 24.6124L35.7627 53.7862C35.9686 54.2911 35.726 54.8698 35.2211 55.0764L35.2207 55.0768L13.6727 63.8795C13.5519 63.929 13.4254 63.9536 13.2985 63.9536Z" fill="#3D3D3D"/>
<path d="M19.7037 35.6357C19.5633 35.6357 19.4301 35.552 19.3738 35.4141C19.2993 35.232 19.3866 35.024 19.569 34.9495L23.2743 33.4355C23.4546 33.3607 23.6641 33.4483 23.7389 33.6308C23.8134 33.8125 23.7261 34.0206 23.5437 34.095L19.8384 35.609C19.7946 35.6272 19.7486 35.6357 19.7037 35.6357Z" fill="#3D3D3D"/>
<path d="M9.43748 46.2671C9.29744 46.2671 9.16418 46.1834 9.10789 46.0455C9.03342 45.8634 9.12072 45.6553 9.30315 45.5808L25.5279 38.9523C25.7085 38.8772 25.9177 38.9648 25.9921 39.1476C26.0666 39.3297 25.9793 39.5378 25.7972 39.6122L9.57216 46.2404C9.52834 46.2585 9.48237 46.2671 9.43748 46.2671Z" fill="#3D3D3D"/>
<path d="M20.7467 46.0264C20.6063 46.0264 20.473 45.9426 20.4167 45.8047C20.3423 45.6227 20.4296 45.4146 20.612 45.3401L27.0609 42.7059C27.2426 42.6307 27.4511 42.7187 27.5255 42.9008C27.6 43.0829 27.5127 43.291 27.3303 43.3654L20.8814 46C20.8372 46.0178 20.7916 46.0264 20.7467 46.0264Z" fill="#F9AA39"/>
<path d="M10.9707 50.0205C10.8307 50.0205 10.6975 49.9368 10.6408 49.7989C10.5663 49.6168 10.654 49.4087 10.8361 49.3342L14.7837 47.7216C14.9643 47.6468 15.1738 47.7344 15.2483 47.9168C15.3228 48.0986 15.2355 48.3066 15.053 48.3811L11.1054 49.9941C11.0616 50.012 11.0156 50.0205 10.9707 50.0205Z" fill="#F9AA39"/>
<path d="M12.2444 54.3965C12.1043 54.3965 11.9711 54.3131 11.9148 54.1749C11.8403 53.9928 11.9276 53.7847 12.1097 53.7102L22.1032 49.6276C22.2838 49.5528 22.4934 49.6401 22.5678 49.8229C22.6423 50.0049 22.555 50.213 22.3726 50.2875L12.3791 54.3701C12.3352 54.3883 12.2893 54.3965 12.2444 54.3965Z" fill="#3D3D3D"/>
<path d="M17.8837 38.3394L9.26771 42.0721C8.90569 42.2293 8.48524 42.0629 8.32846 41.7009L4.32386 32.4581C4.16673 32.0961 4.33313 31.6753 4.69514 31.5189L13.3111 27.7858C13.6728 27.629 14.0936 27.7954 14.2504 28.157L18.255 37.4002C18.4118 37.7618 18.2454 38.1823 17.8837 38.3394Z" fill="#F9AA39"/>
<path d="M13.5947 28.0836C13.5477 28.0836 13.4992 28.0932 13.4529 28.1128L4.83692 31.8463C4.74926 31.884 4.68192 31.9539 4.64665 32.043C4.61173 32.1317 4.6128 32.229 4.65092 32.3166L8.65588 41.5597C8.69401 41.6474 8.76349 41.7147 8.85257 41.75C8.94093 41.7853 9.03785 41.7831 9.12621 41.7457L17.7422 38.0126C17.8299 37.9745 17.8976 37.9047 17.9325 37.8159C17.9678 37.7272 17.9663 37.6296 17.9286 37.5419L13.9236 28.2992C13.8652 28.1645 13.7333 28.0836 13.5947 28.0836ZM8.9844 42.4883C8.85114 42.4883 8.71788 42.4633 8.59068 42.4127C8.32416 42.3076 8.11571 42.1052 8.00169 41.843L3.99709 32.5999C3.88378 32.3376 3.87879 32.0465 3.9839 31.7807C4.08902 31.5146 4.2914 31.3058 4.55365 31.1921L13.1697 27.459C13.7113 27.2249 14.343 27.4736 14.5774 28.0159L18.5824 37.2587C18.6957 37.5213 18.7007 37.812 18.5956 38.0778C18.4905 38.3436 18.2877 38.5528 18.0255 38.6665V38.6668L9.40948 42.3996C9.27337 42.4587 9.12871 42.4883 8.9844 42.4883Z" fill="#3D3D3D"/>
<path d="M8.69508 33.4434C8.59033 33.4434 8.48522 33.4238 8.38474 33.3839C8.17558 33.3012 8.01096 33.1419 7.92153 32.9353L7.45155 31.8517C7.41271 31.7612 7.45405 31.6564 7.54419 31.6169C7.63505 31.5777 7.73945 31.6194 7.77865 31.7095L8.24862 32.7934C8.29993 32.9128 8.39507 33.0047 8.51586 33.0525C8.63736 33.1006 8.7692 33.0981 8.88785 33.0464L8.96695 33.0122C9.15687 32.9299 9.24452 32.7083 9.16221 32.5184L7.97355 29.7748C7.88875 29.5788 7.65964 29.489 7.46295 29.5731L7.32827 29.6319C7.11947 29.722 7.02291 29.9657 7.11341 30.1745L7.14263 30.2415C7.18182 30.332 7.14085 30.4368 7.0507 30.476C6.96126 30.5159 6.85544 30.4746 6.81625 30.3841L6.78667 30.3164C6.61778 29.9265 6.79736 29.4733 7.18646 29.3048L7.3215 29.246C7.69705 29.0839 8.13746 29.2567 8.30065 29.6329L9.48931 32.3766C9.64929 32.7468 9.47897 33.1786 9.10876 33.3393L9.02931 33.3735C8.92206 33.4202 8.80839 33.4434 8.69508 33.4434Z" fill="#3D3D3D"/>
<path d="M13.7488 29.3948C14.0414 29.693 14.0371 30.1723 13.7389 30.4648C13.4403 30.7577 12.961 30.7534 12.6685 30.4548C12.376 30.1566 12.3802 29.6773 12.6785 29.3844C12.9767 29.0916 13.4563 29.0962 13.7488 29.3948Z" fill="white"/>
<path d="M55.3844 31.1893L33.9586 40.2856C33.727 40.3836 33.4597 40.2756 33.3618 40.0444L21.0469 11.0359C20.9485 10.8046 21.0565 10.5374 21.2877 10.4391L42.7136 1.34309C42.9452 1.24475 43.2124 1.35271 43.3104 1.58432L55.6253 30.5925C55.7236 30.8241 55.6156 31.0913 55.3844 31.1893Z" fill="white"/>
<path d="M21.5695 10.9001L33.8228 39.7626L55.1025 30.7282L42.8492 1.86618L21.5695 10.9001ZM33.7807 40.8564C33.6553 40.8564 33.5299 40.8326 33.4101 40.7841C33.1646 40.6851 32.9729 40.4962 32.8696 40.2532L20.5547 11.2447C20.3416 10.7423 20.5765 10.1604 21.0785 9.947L42.5047 0.851044C42.7477 0.747711 43.0167 0.745579 43.2622 0.844631C43.5073 0.943687 43.699 1.13217 43.8024 1.37553L56.1173 30.3837C56.2206 30.6271 56.2227 30.8961 56.124 31.1409C56.025 31.3864 55.8365 31.5781 55.5931 31.6814L34.1673 40.7773C34.043 40.8301 33.9118 40.8564 33.7807 40.8564Z" fill="#3D3D3D"/>
<path d="M39.8076 12.4541C39.669 12.4541 39.5371 12.3725 39.4794 12.2368C39.4024 12.0554 39.4869 11.8466 39.6682 11.7696L43.3525 10.2054C43.5321 10.1288 43.7427 10.2125 43.82 10.3939C43.8966 10.5753 43.8122 10.7844 43.6308 10.861L39.9469 12.4256C39.9016 12.4448 39.8542 12.4541 39.8076 12.4541Z" fill="#3D3D3D"/>
<path d="M29.6874 23.2241C29.5488 23.2241 29.417 23.1425 29.3593 23.0068C29.2823 22.8258 29.3668 22.6166 29.5481 22.5396L45.6813 15.6906C45.8605 15.614 46.0714 15.6981 46.1487 15.8794C46.2257 16.0605 46.1409 16.2696 45.9595 16.3466L29.8264 23.1956C29.7812 23.2149 29.7338 23.2241 29.6874 23.2241Z" fill="#3D3D3D"/>
<path d="M40.9923 22.8296C40.8537 22.8296 40.7219 22.748 40.6642 22.6122C40.5872 22.4312 40.672 22.2221 40.853 22.1451L47.2659 19.4225C47.4452 19.3459 47.6557 19.43 47.7331 19.6114C47.81 19.7924 47.7256 20.0015 47.5442 20.0785L41.1316 22.8011C41.0864 22.8203 41.039 22.8296 40.9923 22.8296Z" fill="#F9AA39"/>
<path d="M31.2717 26.9556C31.1331 26.9556 31.0012 26.8743 30.9435 26.7386C30.8665 26.5576 30.951 26.3481 31.1324 26.2711L35.0579 24.605C35.2374 24.5291 35.448 24.6125 35.525 24.7938C35.6019 24.9748 35.5175 25.1843 35.3361 25.2609L31.4106 26.9274C31.3654 26.9467 31.3184 26.9556 31.2717 26.9556Z" fill="#F9AA39"/>
<path d="M32.6046 31.3149C32.466 31.3149 32.3342 31.2333 32.2765 31.0976C32.1995 30.9169 32.2843 30.7074 32.4653 30.6305L42.4025 26.4117C42.5825 26.3355 42.7927 26.4192 42.87 26.6006C42.9466 26.7816 42.8622 26.9911 42.6808 27.068L32.7439 31.2868C32.6987 31.3057 32.6513 31.3149 32.6046 31.3149Z" fill="#3D3D3D"/>
<path d="M44.4318 62.1276L21.4189 58.6357C21.1699 58.5983 20.9992 58.3663 21.037 58.1176L25.7642 26.9598C25.8016 26.7115 26.0339 26.5405 26.2823 26.5782L49.2958 30.0701C49.5442 30.1075 49.7152 30.3395 49.6774 30.5882L44.9499 61.746C44.9124 61.9943 44.6805 62.1654 44.4318 62.1276Z" fill="#F9AA39"/>
<path d="M21.5773 58.119L44.4334 61.587L49.1367 30.586L26.2803 27.118L21.5773 58.119ZM44.5022 62.667C44.4523 62.667 44.4017 62.6634 44.3518 62.6559L21.3386 59.1641C21.0771 59.1245 20.8465 58.9856 20.6901 58.7721C20.533 58.5594 20.4685 58.2982 20.5088 58.0367L25.2353 26.8793C25.2752 26.6181 25.4138 26.3879 25.6268 26.2311C25.8396 26.0747 26.1011 26.0099 26.3623 26.0491L49.3755 29.5409C49.637 29.5808 49.8672 29.7194 50.0239 29.9325C50.1807 30.1456 50.2452 30.4064 50.2057 30.6676L45.4785 61.8257C45.4389 62.0869 45.3 62.3171 45.0869 62.4739C44.9151 62.6004 44.7117 62.667 44.5022 62.667Z" fill="#3D3D3D"/>
<path d="M33.6703 32.1328L33.6165 32.1285L29.1986 31.4583C29.0044 31.4291 28.8708 31.2474 28.9003 31.0525C28.9299 30.8583 29.1116 30.7232 29.3058 30.7542L33.7237 31.4241C33.9183 31.4533 34.0519 31.635 34.0223 31.8299C33.9953 32.0063 33.8438 32.1328 33.6703 32.1328Z" fill="white"/>
<path d="M45.1389 38.6587L45.0847 38.6544L40.0119 37.8848C39.8174 37.8556 39.6838 37.6738 39.7133 37.4793C39.7429 37.2847 39.9235 37.1504 40.1192 37.1807L45.192 37.9503C45.3865 37.9796 45.5202 38.1613 45.4906 38.3558C45.4639 38.5326 45.3121 38.6587 45.1389 38.6587Z" fill="#3D3D3D"/>
<path d="M36.4745 37.3447L36.4207 37.3405L27.7565 36.0257C27.562 35.9964 27.4284 35.8151 27.458 35.6202C27.4875 35.4256 27.6678 35.2909 27.8634 35.3216L36.5279 36.636C36.7225 36.6652 36.8561 36.847 36.8265 37.0419C36.7994 37.2182 36.648 37.3447 36.4745 37.3447Z" fill="white"/>
<path d="M36.788 43.4189L36.7342 43.415L26.8625 41.9174C26.668 41.8882 26.5343 41.7065 26.5639 41.5116C26.5935 41.3171 26.7745 41.1827 26.9698 41.213L36.8414 42.7106C37.036 42.7398 37.1696 42.9215 37.14 43.1164C37.1129 43.2928 36.9615 43.4189 36.788 43.4189Z" fill="#3D3D3D"/>
<path d="M43.4041 50.0957L43.3499 50.0914L26.0213 47.4626C25.8268 47.4333 25.6935 47.2516 25.7231 47.0567C25.7527 46.8622 25.9333 46.7282 26.1286 46.7585L43.4572 49.3874C43.6517 49.4162 43.7853 49.5979 43.7557 49.7928C43.729 49.9692 43.5772 50.0957 43.4041 50.0957Z" fill="white"/>
<path d="M34.9259 54.8364L34.8717 54.8325L25.1276 53.3542C24.9331 53.3249 24.7995 53.1432 24.8291 52.9487C24.8583 52.7541 25.0364 52.6205 25.2345 52.6501L34.979 54.1281C35.1735 54.1573 35.3071 54.339 35.2776 54.5339C35.2512 54.7103 35.0991 54.8364 34.9259 54.8364Z" fill="white"/>
<path d="M48.2481 85.0958L7.27249 85.1821C5.11965 85.1867 3.35411 83.4287 3.34984 81.2755L3.29176 53.6103C3.28713 51.4571 5.04482 49.6919 7.19802 49.6872L48.1737 49.6014C50.3269 49.5967 52.0924 51.3548 52.097 53.508L52.1551 81.1732C52.1597 83.3261 50.4013 85.0915 48.2481 85.0958Z" fill="white"/>
<path d="M48.1822 49.9578H48.1744L7.19871 50.0437C6.2527 50.0458 5.36085 50.4189 4.68813 51.0945C4.01541 51.7704 3.64591 52.6637 3.64805 53.6097L3.70613 81.2749C3.70791 82.2208 4.08097 83.1127 4.7569 83.7854C5.43068 84.4567 6.32075 84.8259 7.26427 84.8259H7.27176L48.2474 84.7396C50.2096 84.7358 51.803 83.136 51.7988 81.1737L51.7407 53.5088C51.7364 51.5495 50.1408 49.9578 48.1822 49.9578ZM7.26427 85.5386C6.13119 85.5386 5.06261 85.0957 4.25414 84.2907C3.44353 83.4834 2.99564 82.4126 2.9935 81.2759L2.93507 53.6111C2.93293 52.4748 3.37618 51.4023 4.18323 50.5917C4.99028 49.7811 6.061 49.3336 7.19728 49.3311L48.1729 49.2452H48.1822C50.5331 49.2452 52.4483 51.155 52.4533 53.5074L52.5114 81.1722C52.5164 83.5275 50.6044 85.4473 48.2488 85.4523L7.27318 85.5386H7.26427Z" fill="#3D3D3D"/>
<path d="M48.583 42.9451L38.2478 42.9668C36.3316 42.9711 34.7667 44.5421 34.7709 46.4583L34.7813 51.404L8.60402 51.4592C5.67548 51.4652 3.28461 53.8661 3.29103 56.7943L3.34305 81.641C3.34947 84.5691 5.7503 86.9601 8.67848 86.9541L46.8353 86.8735C49.7635 86.8678 52.1544 84.467 52.1487 81.5384L52.0974 57.2008L52.0963 56.692L52.0749 46.422C52.0706 44.5057 50.4997 42.9412 48.583 42.9451Z" fill="#F35000"/>
<path d="M48.584 43.4798L38.2488 43.5015C37.4649 43.5033 36.7259 43.8126 36.1679 44.3727C35.61 44.9328 35.3035 45.6736 35.3053 46.4575L35.3156 51.4035C35.316 51.5449 35.2601 51.681 35.1599 51.7815C35.0602 51.8816 34.9244 51.9386 34.7822 51.939L8.60499 51.9939C5.964 51.9996 3.81971 54.1524 3.82541 56.7938L3.87743 81.6402C3.88313 84.2776 6.03099 86.4198 8.66735 86.4198H8.67732L46.8345 86.3392C49.4752 86.3342 51.6191 84.181 51.6141 81.5397L51.5404 46.4233C51.5368 44.7988 50.2142 43.4798 48.5904 43.4798H48.584ZM8.66735 87.4888C5.44271 87.4888 2.81562 84.8683 2.80849 81.6423L2.75612 56.7959C2.74935 53.5656 5.37181 50.9317 8.60286 50.9249L34.2456 50.8708L34.2364 46.4596C34.2339 45.3903 34.6511 44.3812 35.4104 43.6187C36.1697 42.8559 37.177 42.4351 38.2467 42.4326L48.5819 42.4108H48.5904C50.8024 42.4108 52.6043 44.2077 52.6093 46.4211L52.6831 81.5375C52.6895 84.7678 50.0666 87.4018 46.8363 87.4085L8.67946 87.4888H8.66735Z" fill="#3D3D3D"/>
<path d="M12.5089 86.293C9.89352 86.2925 7.75101 84.1551 7.7453 81.5379L7.69899 59.3022C7.69328 56.6815 9.83259 54.533 12.4526 54.5273L35.8748 54.4781L35.8655 50.052C35.862 48.337 37.2616 46.931 38.9765 46.9271L48.2239 46.9079C48.2264 46.9079 48.2285 46.9079 48.231 46.9079C49.9424 46.9079 51.3445 48.3068 51.3481 50.0196L51.3673 59.2106L51.3684 59.666L51.414 81.4464C51.4197 84.0667 49.2804 86.2156 46.66 86.221L12.5192 86.293C12.5156 86.293 12.5124 86.293 12.5089 86.293Z" fill="#F68C1B"/>
<path d="M48.7615 81.7507C48.7615 82.7118 47.9826 83.4902 47.0216 83.4902C46.061 83.4902 45.2817 82.7118 45.2817 81.7507C45.2817 80.7898 46.061 80.0109 47.0216 80.0109C47.9826 80.0109 48.7615 80.7898 48.7615 81.7507Z" fill="white"/>
<path d="M49.9779 52.3398C49.7809 52.3398 49.6216 52.1802 49.6216 51.9835V47.2474C49.6216 46.4525 48.9164 45.8061 48.0499 45.8061H44.599C44.4019 45.8061 44.2427 45.6465 44.2427 45.4498C44.2427 45.2528 44.4019 45.0935 44.599 45.0935H48.0499C49.3095 45.0935 50.3342 46.0598 50.3342 47.2474V51.9835C50.3342 52.1802 50.1749 52.3398 49.9779 52.3398Z" fill="white"/>
<path d="M24.4911 66.3906C24.2606 66.3906 24.0304 66.3015 23.8554 66.1245C23.5109 65.7735 23.5155 65.2098 23.8665 64.8645L28.0532 60.7488L32.1743 64.8702C32.5224 65.218 32.5224 65.7817 32.1743 66.1298C31.8261 66.4776 31.2625 66.4776 30.9147 66.1298L28.0425 63.2576L25.1154 66.1351C24.9418 66.3058 24.7163 66.3906 24.4911 66.3906Z" fill="white"/>
<path d="M28.0177 71.9087C27.5257 71.9087 27.127 71.51 27.127 71.0179V62.0033C27.127 61.5112 27.5257 61.1125 28.0177 61.1125C28.5098 61.1125 28.9085 61.5112 28.9085 62.0033V71.0179C28.9085 71.51 28.5098 71.9087 28.0177 71.9087Z" fill="white"/>
<path d="M34.5757 76.1899H21.3557C20.2996 76.1899 19.4402 75.3305 19.4402 74.2743V69.4716C19.4402 68.9796 19.8389 68.5808 20.331 68.5808C20.823 68.5808 21.2218 68.9796 21.2218 69.4716V74.2743C21.2218 74.3481 21.282 74.4084 21.3557 74.4084H34.5757C34.7068 74.4084 34.8133 74.3018 34.8133 74.1706V69.4716C34.8133 68.9796 35.212 68.5808 35.7041 68.5808C36.1962 68.5808 36.5949 68.9796 36.5949 69.4716V74.1706C36.5949 75.2841 35.6891 76.1899 34.5757 76.1899Z" fill="white"/>
</svg>
